<svg width="148" height="15" viewBox="0 0 148 15" fill="none" xmlns="http://www.w3.org/2000/svg">
<path d="M-6.64386e-05 11.4645L5.55941 13.0219L4.12843 7.42857L-6.64386e-05 11.4645ZM147.5 11.4644C147.666 10.9927 147.666 10.9927 147.666 10.9927C147.666 10.9927 147.666 10.9927 147.666 10.9927C147.666 10.9927 147.666 10.9927 147.666 10.9926C147.665 10.9926 147.665 10.9926 147.665 10.9925C147.665 10.9924 147.664 10.9923 147.664 10.9921C147.663 10.9917 147.661 10.9911 147.659 10.9905C147.655 10.9891 147.649 10.987 147.642 10.9844C147.626 10.979 147.604 10.9712 147.574 10.961C147.514 10.9405 147.425 10.9103 147.307 10.8711C147.072 10.7927 146.722 10.6783 146.261 10.5332L145.961 11.4872C146.417 11.6305 146.761 11.7432 146.991 11.8198C147.106 11.8582 147.193 11.8875 147.25 11.9071C147.279 11.9169 147.3 11.9243 147.314 11.9291C147.321 11.9316 147.326 11.9334 147.33 11.9346C147.331 11.9351 147.333 11.9356 147.333 11.9358C147.334 11.936 147.334 11.9361 147.334 11.9361C147.334 11.9361 147.334 11.9362 147.334 11.9362C147.334 11.9362 147.334 11.9362 147.334 11.9362C147.334 11.9362 147.334 11.9362 147.334 11.9362C147.334 11.9362 147.334 11.9362 147.5 11.4644ZM143.371 9.67144C142.533 9.4329 141.576 9.16947 140.505 8.88751L140.25 9.85457C141.315 10.1348 142.265 10.3965 143.097 10.6333L143.371 9.67144ZM137.603 8.15084C136.69 7.92699 135.717 7.69614 134.688 7.46073L134.465 8.43557C135.489 8.66982 136.457 8.89948 137.365 9.12212L137.603 8.15084ZM131.766 6.81508C130.828 6.61467 129.851 6.41262 128.837 6.21032L128.642 7.191C129.651 7.39241 130.624 7.59354 131.557 7.79302L131.766 6.81508ZM125.894 5.64332C124.936 5.46502 123.948 5.28753 122.932 5.1118L122.762 6.09716C123.773 6.27217 124.757 6.44892 125.711 6.62646L125.894 5.64332ZM119.988 4.62078C119.029 4.46687 118.048 4.31511 117.046 4.16618L116.899 5.15533C117.898 5.30367 118.875 5.45484 119.829 5.60813L119.988 4.62078ZM114.074 3.74246C113.102 3.60956 112.111 3.4797 111.102 3.35344L110.978 4.3457C111.983 4.47149 112.97 4.60085 113.939 4.73325L114.074 3.74246ZM108.148 3.00057C107.167 2.8888 106.169 2.78067 105.156 2.67667L105.054 3.67145C106.063 3.77507 107.057 3.88279 108.035 3.99415L108.148 3.00057ZM102.193 2.38877C101.213 2.29884 100.219 2.21294 99.2115 2.13146L99.1309 3.1282C100.135 3.20939 101.125 3.29498 102.102 3.38459L102.193 2.38877ZM96.2227 1.90576C95.2432 1.83704 94.2519 1.77263 93.2492 1.71287L93.1897 2.7111C94.1889 2.77065 95.1767 2.83483 96.1527 2.90331L96.2227 1.90576ZM90.2449 1.54973C89.2657 1.50173 88.2761 1.45825 87.2763 1.41959L87.2377 2.41884C88.234 2.45737 89.2201 2.50069 90.1959 2.54853L90.2449 1.54973ZM84.2647 1.31885C83.2849 1.29118 82.2959 1.26823 81.2978 1.25023L81.2798 2.25007C82.2745 2.268 83.2601 2.29088 84.2365 2.31846L84.2647 1.31885ZM78.2851 1.21145C77.304 1.20387 76.3146 1.20116 75.317 1.20354L75.3193 2.20354C76.3136 2.20117 77.2996 2.20387 78.2773 2.21142L78.2851 1.21145ZM72.3077 1.22608C71.3246 1.23846 70.334 1.25584 69.3359 1.27844L69.3585 2.27818C70.3533 2.25566 71.3406 2.23834 72.3203 2.226L72.3077 1.22608ZM66.3341 1.36158C65.3484 1.39386 64.3558 1.43128 63.3563 1.47403L63.3991 2.47311C64.3951 2.43051 65.3844 2.39322 66.3668 2.36104L66.3341 1.36158ZM60.365 1.61699C59.3762 1.6692 58.3811 1.72668 57.3796 1.78959L57.4423 2.78762C58.4404 2.72492 59.4323 2.66764 60.4177 2.61559L60.365 1.61699ZM54.4013 1.99155C53.4091 2.06379 52.4109 2.14141 51.4069 2.22456L51.4895 3.22115C52.4901 3.13827 53.485 3.06091 54.4739 2.98891L54.4013 1.99155ZM48.4439 2.4847C47.4507 2.57683 46.452 2.67442 45.448 2.77763L45.5503 3.77239C46.551 3.66952 47.5463 3.57225 48.5362 3.48043L48.4439 2.4847ZM42.4934 3.096C41.5064 3.20724 40.5144 3.32395 39.5175 3.44628L39.6393 4.43883C40.6329 4.31691 41.6216 4.20059 42.6054 4.08971L42.4934 3.096ZM36.5505 3.82513C35.5703 3.95519 34.5855 4.09071 33.5962 4.23182L33.7374 5.2218C34.7234 5.08115 35.705 4.94608 36.6821 4.81644L36.5505 3.82513ZM30.6162 4.67187C29.6432 4.82044 28.666 4.97446 27.6846 5.13404L27.8452 6.12108C28.8233 5.96202 29.7973 5.8085 30.7671 5.66041L30.6162 4.67187ZM24.7285 5.62961C23.7507 5.79841 22.7691 5.97277 21.7835 6.15281L21.9632 7.13653C22.9456 6.95708 23.924 6.78328 24.8986 6.61503L24.7285 5.62961ZM18.8536 6.70268C17.8732 6.89158 16.8892 7.08612 15.9015 7.28642L16.1002 8.26647C17.0847 8.06682 18.0656 7.87291 19.0428 7.68462L18.8536 6.70268ZM12.9909 7.89123C12.0199 8.09784 11.0456 8.31004 10.068 8.52795L10.2855 9.504C11.26 9.28679 12.2312 9.07527 13.199 8.86932L12.9909 7.89123ZM7.14071 9.19524C6.17959 9.41921 5.21536 9.64872 4.24807 9.88386L4.48429 10.8556C5.44848 10.6212 6.40962 10.3924 7.36766 10.1691L7.14071 9.19524ZM-6.64386e-05 11.4645L11.1189 14.5793L8.25693 3.39263L-6.64386e-05 11.4645ZM147.5 11.4644C147.832 10.521 147.832 10.521 147.831 10.521C147.831 10.521 147.831 10.521 147.831 10.5209C147.831 10.5209 147.831 10.5209 147.831 10.5209C147.831 10.5208 147.831 10.5208 147.831 10.5207C147.83 10.5206 147.83 10.5204 147.829 10.5202C147.828 10.5197 147.826 10.5192 147.824 10.5184C147.82 10.5169 147.814 10.5148 147.806 10.512C147.79 10.5064 147.766 10.4984 147.736 10.4879C147.675 10.467 147.584 10.4364 147.465 10.3967C147.228 10.3175 146.875 10.2022 146.411 10.0563L145.811 11.9642C146.264 12.1067 146.606 12.2185 146.833 12.2942C146.947 12.3321 147.032 12.3609 147.088 12.3801C147.116 12.3897 147.137 12.3969 147.15 12.4015C147.157 12.4038 147.162 12.4055 147.165 12.4066C147.166 12.4071 147.167 12.4075 147.168 12.4077C147.168 12.4078 147.168 12.4079 147.169 12.4079C147.169 12.4079 147.169 12.4079 147.169 12.4079C147.169 12.4079 147.169 12.4079 147.169 12.4079C147.169 12.4079 147.168 12.4079 147.168 12.4079C147.168 12.4079 147.168 12.4079 147.5 11.4644ZM143.508 9.19053C142.667 8.9511 141.707 8.6868 140.632 8.40398L140.123 10.3381C141.184 10.6175 142.132 10.8783 142.961 11.1142L143.508 9.19053ZM137.722 7.6652C136.806 7.44075 135.831 7.20931 134.799 6.97331L134.353 8.92299C135.375 9.15666 136.34 9.38572 137.246 9.60775L137.722 7.6652ZM131.871 6.32611C130.93 6.12524 129.951 5.92273 128.935 5.71997L128.544 7.68134C129.551 7.88231 130.521 8.08298 131.453 8.28199L131.871 6.32611ZM125.986 5.15175C125.025 4.97307 124.035 4.79521 123.018 4.61912L122.677 6.58985C123.686 6.76449 124.667 6.94087 125.62 7.11803L125.986 5.15175ZM120.067 4.12711C119.107 3.97289 118.124 3.82082 117.119 3.67161L116.825 5.6499C117.822 5.79796 118.797 5.94882 119.75 6.10181L120.067 4.12711ZM114.142 3.24707C113.168 3.11391 112.175 2.9838 111.164 2.85731L110.916 4.84183C111.919 4.96738 112.904 5.0965 113.871 5.22864L114.142 3.24707ZM108.205 2.50378C107.221 2.3918 106.222 2.28348 105.207 2.17929L105.003 4.16883C106.01 4.27226 107.002 4.37979 107.979 4.49094L108.205 2.50378ZM102.239 1.89086C101.257 1.80076 100.261 1.71471 99.2518 1.63309L99.0906 3.62657C100.092 3.70761 101.081 3.79305 102.056 3.8825L102.239 1.89086ZM96.2577 1.40698C95.2764 1.33814 94.2834 1.27362 93.2789 1.21376L93.1599 3.21022C94.1574 3.26966 95.1434 3.33373 96.1177 3.40208L96.2577 1.40698ZM90.2694 1.05033C89.2884 1.00224 88.2971 0.958688 87.2956 0.919961L87.2184 2.91847C88.2129 2.95693 89.1973 3.00018 90.1714 3.04793L90.2694 1.05033ZM84.2788 0.819053C83.2974 0.791335 82.3067 0.768337 81.3069 0.750311L81.2708 2.74998C82.2638 2.76789 83.2477 2.79073 84.2224 2.81826L84.2788 0.819053ZM78.2889 0.711463C77.3061 0.703875 76.3151 0.701157 75.3158 0.703541L75.3205 2.70354C76.313 2.70117 77.2974 2.70387 78.2735 2.7114L78.2889 0.711463ZM72.3015 0.726124C71.3167 0.738523 70.3244 0.755934 69.3246 0.778565L69.3698 2.77805C70.3629 2.75557 71.3485 2.73828 72.3266 2.72597L72.3015 0.726124ZM66.3177 0.861848C65.3304 0.894186 64.3361 0.931667 63.335 0.974483L63.4204 2.97266C64.4148 2.93013 65.4025 2.8929 66.3832 2.86078L66.3177 0.861848ZM60.3386 1.11768C59.3482 1.16999 58.3514 1.22756 57.3483 1.29057L57.4737 3.28664C58.4701 3.22404 59.4603 3.16685 60.4441 3.1149L60.3386 1.11768ZM54.365 1.49287C53.3711 1.56523 52.3713 1.64297 51.3657 1.72627L51.5308 3.71945C52.5297 3.6367 53.5229 3.55947 54.5102 3.48759L54.365 1.49287ZM48.3977 1.98684C47.4028 2.07912 46.4026 2.17687 45.3969 2.28025L45.6014 4.26977C46.6004 4.16707 47.5941 4.06996 48.5824 3.97829L48.3977 1.98684ZM42.4374 2.59915C41.4487 2.71057 40.4551 2.82747 39.4566 2.95L39.7002 4.93511C40.6922 4.81339 41.6792 4.69726 42.6613 4.58656L42.4374 2.59915ZM36.4848 3.32947C35.5029 3.45975 34.5165 3.59549 33.5256 3.73683L33.808 5.71679C34.7924 5.57637 35.7724 5.44152 36.7478 5.3121L36.4848 3.32947ZM30.5407 4.1776C29.5661 4.32642 28.5873 4.48068 27.6044 4.64053L27.9254 6.61459C28.9019 6.45579 29.8743 6.30253 30.8426 6.15468L30.5407 4.1776ZM24.6434 5.1369C23.6641 5.30598 22.6808 5.48062 21.6937 5.66095L22.0531 7.62839C23.0338 7.44923 24.0107 7.27572 24.9837 7.10774L24.6434 5.1369ZM18.759 6.21172C17.777 6.40092 16.7914 6.59577 15.8021 6.79639L16.1996 8.7565C17.1825 8.55717 18.1618 8.36357 19.1374 8.17559L18.759 6.21172ZM12.8868 7.40218C11.9143 7.60912 10.9384 7.82167 9.95921 8.03993L10.3943 9.99202C11.3672 9.77517 12.3368 9.56399 13.3031 9.35837L12.8868 7.40218ZM7.02723 8.70829C6.06458 8.93262 5.0988 9.16249 4.12997 9.39802L4.60239 11.3414C5.56505 11.1074 6.52465 10.879 7.48114 10.6561L7.02723 8.70829Z" fill="#0D3982"/>
</svg>
