<svg width="54" height="47" viewBox="0 0 54 47" fill="none" xmlns="http://www.w3.org/2000/svg">
<g clip-path="url(#clip0_1914_1673)">
<path d="M26.6173 27.8246C34.699 19.7548 42.75 11.7156 50.801 3.67628C49.4541 3.67628 48.0765 3.67628 46.6836 3.67628C45.75 3.67628 45.3061 3.38644 45.3061 2.77625C45.3061 2.1508 45.75 1.86096 46.6683 1.8457C48.7041 1.8457 50.7551 1.8457 52.7908 1.8457C53.6785 1.8457 53.9847 2.13554 53.9847 2.98981C53.9847 5.14074 53.9847 7.29166 53.9847 9.45784C53.9847 10.2053 53.5102 10.663 52.8979 10.5104C52.3469 10.3731 52.1479 9.97651 52.1479 9.44259C52.1479 8.26797 52.1479 7.0781 52.1479 5.90348C52.1479 5.68991 52.1479 5.4916 52.1479 5.12548C51.9183 5.33905 51.7959 5.46109 51.6734 5.58313C43.699 13.5614 35.7245 21.5244 27.75 29.5026C26.8622 30.3874 26.5714 30.3874 25.6836 29.5026C22.699 26.5279 19.7143 23.538 16.7296 20.5633C16.5765 20.4108 16.4234 20.2735 16.2551 20.1057C16.0714 20.2887 15.903 20.426 15.75 20.5938C11.1428 25.1855 6.53569 29.7925 1.94385 34.3842C1.77548 34.552 1.62242 34.7198 1.43875 34.8418C1.01018 35.1011 0.596913 35.0706 0.260178 34.6893C-0.0612503 34.3231 -0.0612504 33.9265 0.229566 33.5452C0.336709 33.4079 0.459158 33.2858 0.581607 33.179C5.49487 28.267 10.4081 23.355 15.3214 18.4582C16.0561 17.7259 16.4541 17.7107 17.1888 18.4582C20.2194 21.4786 23.2347 24.4991 26.2653 27.5195C26.3877 27.6263 26.5408 27.7636 26.6173 27.8246Z" fill="#01B9EA"/>
<path d="M51.75 29.1372C51.75 34.5831 51.75 40.0443 51.75 45.4903C51.75 46.8022 51.5511 47.0005 50.2041 47.0005C47.7551 47.0005 45.3215 47.0005 42.8725 47.0005C41.8623 47.0005 41.5715 46.7259 41.5715 45.7191C41.5715 37.39 41.5715 29.0609 41.5562 20.7318C41.5562 20.2131 41.7245 19.8317 42.0766 19.4656C44.6939 16.8723 47.2959 14.279 49.898 11.6704C50.25 11.3196 50.6174 11.0145 51.1531 11.2433C51.6888 11.4721 51.7347 11.945 51.7347 12.4484C51.75 18.0012 51.75 23.5692 51.75 29.1372Z" fill="#01B9EA"/>
<path d="M27.1377 19.4194C21.7959 19.4194 17.4183 15.026 17.4183 9.68683C17.4183 4.3324 21.7806 -0.0152148 27.153 4.00218e-05C32.5255 4.00218e-05 36.8877 4.36291 36.8877 9.70208C36.8724 15.0413 32.4796 19.4194 27.1377 19.4194ZM27.1071 17.5736C31.4694 17.5888 35.0357 14.0497 35.0357 9.71734C35.0357 5.38498 31.5306 1.86112 27.1989 1.83061C22.8214 1.81536 19.2704 5.30871 19.2551 9.65632C19.2398 14.0039 22.7449 17.543 27.1071 17.5736Z" fill="#01B9EA"/>
<path d="M38.7245 35.5747C38.7245 38.946 38.7245 42.3173 38.7245 45.6886C38.7245 46.6955 38.449 46.9853 37.4388 46.9853C34.898 46.9853 32.3571 46.9853 29.8316 46.9853C28.8674 46.9853 28.5765 46.6802 28.5765 45.7039C28.5765 41.7071 28.5765 37.6951 28.5765 33.6984C28.5765 33.1797 28.7449 32.7984 29.1123 32.4322C31.7449 29.8237 34.3469 27.2151 36.9643 24.5913C37.3163 24.2404 37.6684 23.9811 38.1735 24.1947C38.6786 24.4082 38.7551 24.8354 38.7551 25.3235C38.7245 28.7558 38.7245 32.1729 38.7245 35.5747Z" fill="#01B9EA"/>
<path d="M15.5817 36.0013C15.5817 32.7673 15.5817 29.518 15.5817 26.284C15.5817 25.7806 15.6276 25.3077 16.1633 25.0942C16.6684 24.8958 17.0204 25.1704 17.3725 25.506C19.9898 28.1299 22.6072 30.7384 25.2398 33.3317C25.6072 33.6979 25.7602 34.0945 25.7602 34.5979C25.7449 38.2895 25.7602 41.9965 25.7602 45.6881C25.7602 46.6949 25.4694 46.9848 24.4592 46.9848C21.9337 46.9848 19.4235 46.9848 16.898 46.9848C15.8572 46.9848 15.597 46.7102 15.597 45.6424C15.5817 42.4389 15.5817 39.2201 15.5817 36.0013Z" fill="#01B9EA"/>
<path d="M12.7194 38.1223C12.7194 40.6698 12.7194 43.2326 12.7194 45.7802C12.7194 46.6649 12.4133 46.9853 11.5102 46.9853C8.93881 46.9853 6.35207 46.9853 3.78064 46.9853C2.86227 46.9853 2.55615 46.6649 2.55615 45.7344C2.55615 43.4157 2.55615 41.0817 2.55615 38.763C2.55615 38.2748 2.72452 37.8934 3.07656 37.5578C5.70921 34.9493 8.31125 32.3407 10.9286 29.7169C11.2653 29.3813 11.6021 29.0762 12.1225 29.2897C12.6582 29.5033 12.7194 29.961 12.7194 30.4644C12.7194 33.0119 12.7194 35.5595 12.7194 38.1223Z" fill="#01B9EA"/>
<path d="M26.2193 14.9503C25.6377 14.5384 25.102 14.2333 24.6581 13.8214C24.1224 13.3332 23.9847 12.6468 24.0306 11.9298C24.0765 11.4111 24.4132 11.0603 24.8877 11.0298C25.3469 10.9993 25.7449 11.3501 25.8367 11.8535C26.0357 12.9061 26.7704 13.3638 27.7347 12.9366C28.0102 12.8146 28.2704 12.5095 28.3775 12.2349C28.5153 11.8688 28.301 11.5484 27.9642 11.3349C27.153 10.8315 26.3571 10.3128 25.5306 9.8399C24.4132 9.18395 24.0153 8.19239 24.1377 6.94149C24.2449 5.82789 24.9183 5.17194 25.8673 4.71429C26.0357 4.63802 26.2347 4.42445 26.25 4.2719C26.3571 3.43289 26.602 3.08203 27.1836 3.08203C27.7806 3.08203 28.0714 3.4634 28.102 4.33292C28.102 4.4092 28.1173 4.48547 28.1173 4.56175C28.3928 4.69904 28.6836 4.80582 28.9438 4.95837C29.9847 5.56856 30.4591 6.66691 30.2295 7.84153C30.1377 8.28391 29.7244 8.61952 29.2806 8.58901C28.7755 8.5585 28.4387 8.16188 28.4081 7.56694C28.3622 6.52961 27.5969 6.01095 26.6173 6.42283C26.3418 6.52961 26.0663 6.83471 25.9744 7.12455C25.8367 7.52117 25.9285 7.94831 26.3571 8.2229C27.1224 8.68054 27.8724 9.18395 28.653 9.62634C29.7704 10.267 30.3673 11.1823 30.2142 12.4942C30.0765 13.6994 29.3112 14.3706 28.2244 14.7672C28.1785 14.7825 28.1173 14.813 28.0714 14.8282C27.9489 16.0181 27.7347 16.369 27.1377 16.3842C26.5408 16.3842 26.2806 15.9723 26.2193 14.9503Z" fill="#01B9EA"/>
</g>
<defs>
<clipPath id="clip0_1914_1673">
<rect width="54" height="47" fill="white"/>
</clipPath>
</defs>
</svg>
