<svg width="19" height="28" viewBox="0 0 19 28" fill="none" xmlns="http://www.w3.org/2000/svg">
<g clip-path="url(#clip0_1887_8089)">
<path d="M7.94714 2.02416L16.3238 14.243L8.03651 26.5227C7.8872 26.7517 7.89286 27.1159 8.04909 27.3361C8.20152 27.5509 8.44191 27.55 8.59273 27.3341L17.1548 14.6462C17.3068 14.421 17.3054 14.0568 17.1519 13.8327L8.49742 1.20752C8.34119 0.987331 8.09349 0.994597 7.94418 1.22366C7.79852 1.44716 7.79981 1.80059 7.9471 2.02302L7.94714 2.02416Z" fill="#607D8B"/>
<path d="M0.90371 2.04951L9.28041 14.2684L0.99308 26.548C0.84377 26.7771 0.849428 27.1413 1.00566 27.3615C1.15809 27.5762 1.39847 27.5754 1.54934 27.3595L10.1114 14.6715C10.2634 14.4463 10.262 14.0822 10.1085 13.858L1.45403 1.23287C1.30305 1.0049 1.05534 0.999497 0.900686 1.22076C0.746066 1.44208 0.743103 1.80626 0.894043 2.03429C0.897215 2.03907 0.900424 2.04375 0.903705 2.04838L0.90371 2.04951Z" fill="#607D8B"/>
<path d="M17.268 14.2384C17.2688 14.3911 17.2282 14.5378 17.1552 14.6462L8.59312 27.3341C8.4385 27.5554 8.19076 27.55 8.03978 27.322C7.89253 27.0996 7.89124 26.7462 8.03687 26.5227L16.3234 14.2419L7.94672 2.02306C7.79574 1.79509 7.79874 1.43085 7.95336 1.20953C8.10423 0.993622 8.34461 0.992745 8.49704 1.20755L17.1515 13.8327C17.2253 13.94 17.2672 14.086 17.268 14.2384Z" fill="#358BDB"/>
<path d="M10.225 14.2657C10.2257 14.4184 10.1852 14.5651 10.1122 14.6735L1.55011 27.3614C1.39549 27.5828 1.14774 27.5773 0.996766 27.3493C0.849515 27.1269 0.848225 26.7735 0.99385 26.55L9.28041 14.2692L0.903705 2.05031C0.747474 1.83013 0.741854 1.46598 0.891127 1.23686C1.0404 1.00774 1.2881 1.00058 1.44436 1.22071C1.44765 1.22534 1.45085 1.23002 1.45403 1.2348L10.1085 13.86C10.1823 13.9674 10.2242 14.1133 10.225 14.2657Z" fill="#358BDB"/>
</g>
<defs>
<clipPath id="clip0_1887_8089">
<rect width="26.465" height="18" fill="white" transform="translate(0.0965576 27.5273) rotate(-90.209)"/>
</clipPath>
</defs>
</svg>
