<svg width="44" height="52" viewBox="0 0 44 52" fill="none" xmlns="http://www.w3.org/2000/svg">
<g clip-path="url(#clip0_1907_12055)">
<path d="M10.9042 17.2683C9.31397 16.2344 8.68925 15.019 9.04421 13.5241C9.41336 11.9314 10.535 11.0931 12.2246 10.8556C11.3301 9.97544 10.4782 9.13718 9.64053 8.31289C8.95902 7.64228 8.57567 6.84594 8.57567 5.88194C8.54727 3.32525 11.2307 1.6627 13.5592 2.80832C14.3401 3.18554 14.4253 3.1576 14.7093 2.33331C15.192 0.922239 16.5266 -0.0138167 18.0174 0.000154281C19.4798 0.0141253 20.7861 0.964152 21.2546 2.37522C21.5102 3.14363 21.6237 3.18554 22.3762 2.82229C23.8671 2.08183 25.6844 2.50096 26.6641 3.78629C27.6722 5.09956 27.6154 6.90182 26.4795 8.1173C25.727 8.92761 24.9177 9.68205 24.1226 10.4644C23.9948 10.5902 23.8813 10.7159 23.7251 10.8696C25.4856 11.1211 26.6357 12.0152 26.9055 13.7197C27.161 15.2984 26.4227 16.444 25.0313 17.2543C26.5079 18.9448 27.9845 20.6353 29.4611 22.3258C29.9722 20.9846 30.4834 20.6353 31.9316 20.6353C33.7773 20.6353 35.6089 20.6353 37.4547 20.6353C38.8745 20.6353 39.6838 21.4316 39.6838 22.8427C39.6838 28.3054 39.6838 33.782 39.6838 39.2446C39.6838 39.4542 39.6838 39.6638 39.6838 39.9292C40.5924 39.9292 41.4443 39.9432 42.3104 39.9292C42.9919 39.9153 43.5315 40.1388 43.8296 40.7675C44.1136 41.3822 43.9148 41.9131 43.4889 42.4021C40.9048 45.3919 38.3349 48.3956 35.7509 51.3854C35.041 52.2097 34.1181 52.1958 33.394 51.3715C32.3717 50.1979 31.3495 49.0104 30.384 47.8787C29.1914 48.6052 28.0839 49.3736 26.8771 49.9883C23.6683 51.6509 20.2039 52.1538 16.6402 51.9582C12.5653 51.7347 8.85963 50.4773 5.70765 47.8787C1.93094 44.7632 -0.127786 40.7675 -2.60444e-06 35.8218C0.070988 33.0834 0.937074 30.5547 2.34269 28.1936C4.5434 24.5053 7.31203 21.236 10.1943 18.0646C10.4498 17.7992 10.677 17.5337 10.9042 17.2683ZM29.5037 39.9292C29.5179 39.7616 29.5321 39.6498 29.5321 39.552C29.5321 34.8717 29.5321 30.1915 29.5179 25.5112C29.5179 25.2737 29.4043 24.9942 29.2481 24.8126C27.2604 22.4795 25.2585 20.1463 23.2281 17.8271C23.0862 17.6595 22.7738 17.5477 22.5466 17.5477C19.494 17.5337 16.4556 17.5337 13.403 17.5477C13.1759 17.5477 12.8777 17.6734 12.7215 17.8411C11.6283 19.0147 10.5492 20.1882 9.49855 21.3897C7.19845 24.0442 4.99774 26.7825 3.33656 29.8981C1.91674 32.5665 1.30623 35.4026 1.85995 38.4064C2.64085 42.6396 5.08293 45.7412 8.76024 47.9346C11.8696 49.7927 15.2914 50.4354 18.8977 50.2957C22.4898 50.156 25.7696 49.1082 28.666 46.9566C28.8506 46.8169 29.0352 46.6632 29.2339 46.4956C28.0129 45.0845 26.8345 43.7014 25.656 42.3322C25.2443 41.8433 25.1023 41.3263 25.3721 40.7395C25.656 40.1528 26.1388 39.9153 26.7919 39.9153C27.6721 39.9432 28.5524 39.9292 29.5037 39.9292ZM17.9606 10.8975C18.9545 10.8975 19.9484 10.9115 20.9422 10.8836C21.1268 10.8836 21.3682 10.7997 21.496 10.674C22.717 9.48645 23.938 8.29892 25.1449 7.08344C25.8122 6.41284 25.869 5.49075 25.3295 4.7922C24.7899 4.10762 23.8955 3.926 23.0436 4.3591C21.496 5.14148 20.1897 4.61058 19.6644 2.98994C19.3946 2.16566 18.7557 1.6627 17.9606 1.67667C17.1655 1.67667 16.5408 2.17963 16.2711 3.01789C15.7741 4.59661 14.4253 5.14148 12.9345 4.37307C12.0542 3.926 11.1313 4.10762 10.606 4.82014C10.0807 5.53266 10.1801 6.45475 10.8758 7.13933C12.0542 8.29892 13.2185 9.47248 14.4111 10.6181C14.5673 10.7718 14.837 10.8696 15.05 10.8836C16.0155 10.9115 16.9952 10.8975 17.9606 10.8975ZM17.9606 15.8712C19.8348 15.8712 21.7089 15.8852 23.5831 15.8572C24.6054 15.8433 25.3153 15.1028 25.2869 14.1667C25.2585 13.2586 24.5344 12.574 23.5405 12.5601C22.6744 12.5461 21.8083 12.5601 20.9422 12.5601C18.1168 12.5601 15.2772 12.5601 12.4518 12.5601C11.5573 12.5601 10.9042 13.0491 10.7196 13.8035C10.4498 14.8793 11.2307 15.8293 12.4376 15.8433C14.2691 15.8852 16.1149 15.8712 17.9606 15.8712Z" fill="#01B9EA"/>
<path d="M17.0804 41.3541C15.9729 41.1585 15.0074 40.8092 14.1981 40.1107C13.474 39.4959 12.9629 38.7275 12.7357 37.7915C12.6221 37.2745 12.8493 36.8973 13.3037 36.7576C13.758 36.6179 14.2123 36.8275 14.3401 37.3165C14.8229 39.1886 16.839 39.8871 18.5144 39.6636C19.1391 39.5798 19.778 39.3981 20.3175 39.1187C21.7515 38.3783 21.8935 36.59 20.5447 35.6958C19.8774 35.2488 19.0397 35.0392 18.2588 34.7877C17.4779 34.5362 16.626 34.4384 15.8593 34.159C14.0136 33.4744 13.1191 32.217 13.1475 30.5126C13.1759 28.85 14.2549 27.425 16.0155 26.8103C16.3421 26.6985 16.6828 26.6007 17.0804 26.4889C17.0804 26.1397 17.0662 25.7764 17.0804 25.4132C17.0946 24.9102 17.4353 24.561 17.9039 24.561C18.3582 24.547 18.7273 24.8963 18.7699 25.3852C18.7841 25.5808 18.7841 25.7625 18.7841 25.958C18.7841 26.1257 18.7841 26.3073 18.7841 26.4889C19.0823 26.5728 19.3521 26.6426 19.6218 26.7125C21.0132 27.1456 22.0213 28.0118 22.646 29.3111C22.9158 29.8699 22.7738 30.3589 22.3195 30.5685C21.8651 30.778 21.3824 30.5964 21.1268 30.0376C20.0904 27.8581 17.4637 27.7603 15.9871 28.6544C15.2204 29.1155 14.8229 29.7861 14.8513 30.6942C14.8797 31.5604 15.3624 32.1332 16.1149 32.4126C17.0378 32.7479 18.0032 32.9575 18.9687 33.195C20.1756 33.4884 21.3114 33.9075 22.1633 34.8296C23.7819 36.59 23.4553 39.2025 21.3966 40.418C20.7293 40.8092 19.9342 41.0188 19.1817 41.2423C18.8835 41.3261 18.7699 41.41 18.7841 41.7173C18.7983 41.9548 18.7983 42.2063 18.7841 42.4438C18.7273 42.9468 18.3724 43.2681 17.918 43.2541C17.4495 43.2402 17.123 42.9188 17.0946 42.4019C17.0804 42.2342 17.0946 42.0526 17.0946 41.885C17.0804 41.7453 17.0804 41.5636 17.0804 41.3541Z" fill="#01B9EA"/>
</g>
<defs>
<clipPath id="clip0_1907_12055">
<rect width="44" height="52" fill="white"/>
</clipPath>
</defs>
</svg>
