<svg width="24" height="24" viewBox="0 0 24 24" fill="none" xmlns="http://www.w3.org/2000/svg">
<g clip-path="url(#clip0_1930_4684)">
<path d="M20.25 8.625H19.92C20.3814 7.82713 20.6246 6.9218 20.625 6.00011C20.6254 5.07841 20.3831 4.17287 19.9224 3.37458C19.4616 2.5763 18.7988 1.91344 18.0005 1.4527C17.2022 0.991966 16.2967 0.749603 15.375 0.75C14.2435 0.753942 13.1434 1.12227 12.2376 1.8004C11.3319 2.47854 10.6687 3.43042 10.3463 4.515C9.69105 3.88994 8.84837 3.49784 7.94823 3.39921C7.04808 3.30057 6.14049 3.50087 5.36547 3.96921C4.59045 4.43754 3.99108 5.14789 3.65982 5.99066C3.32856 6.83343 3.28382 7.76178 3.5325 8.6325C2.77678 8.68841 2.07011 9.02785 1.5541 9.5828C1.03809 10.1378 0.750869 10.8672 0.750001 11.625C0.749304 12.369 1.02763 13.0862 1.53 13.635C1.51057 13.7135 1.5005 13.7941 1.5 13.875V21H1.17C1.11553 21.0003 1.06178 21.0125 1.01249 21.0356C0.963193 21.0588 0.91954 21.0924 0.884564 21.1342C0.849588 21.176 0.824128 21.2248 0.809956 21.2774C0.795785 21.33 0.793241 21.3851 0.802501 21.4387L0.975001 22.3988C0.975332 22.4128 0.977862 22.4267 0.982501 22.44C1.05178 22.673 1.19419 22.8776 1.38867 23.0234C1.58315 23.1693 1.8194 23.2487 2.0625 23.25H15.1875C15.4306 23.2487 15.6668 23.1693 15.8613 23.0234C16.0558 22.8776 16.1982 22.673 16.2675 22.44C16.2721 22.4267 16.2747 22.4128 16.275 22.3988L16.4475 21.4387C16.4568 21.3851 16.4542 21.33 16.44 21.2774C16.4259 21.2248 16.4004 21.176 16.3654 21.1342C16.3305 21.0924 16.2868 21.0588 16.2375 21.0356C16.1882 21.0125 16.1345 21.0003 16.08 21H15.75V16.5H16.125C16.2088 16.4999 16.2901 16.4718 16.356 16.4202C16.4219 16.3685 16.4687 16.2963 16.4888 16.215L16.5525 15.9637L16.7738 16.0988C16.8454 16.1416 16.9293 16.1594 17.0122 16.1492C17.095 16.139 17.1721 16.1015 17.2313 16.0425L18.2925 14.9813C18.3376 14.935 18.3703 14.878 18.3873 14.8157C18.4044 14.7534 18.4053 14.6878 18.39 14.625H20.25C21.0457 14.625 21.8087 14.3089 22.3713 13.7463C22.9339 13.1837 23.25 12.4207 23.25 11.625C23.25 10.8294 22.9339 10.0663 22.3713 9.50368C21.8087 8.94107 21.0457 8.625 20.25 8.625ZM15.5438 22.245C15.5179 22.3191 15.4698 22.3833 15.406 22.429C15.3423 22.4746 15.2659 22.4994 15.1875 22.5H2.0625C1.98407 22.4994 1.90774 22.4746 1.84396 22.429C1.78018 22.3833 1.73208 22.3191 1.70625 22.245L1.62 21.75H7.125C7.125 21.8495 7.16451 21.9448 7.23484 22.0152C7.30516 22.0855 7.40055 22.125 7.5 22.125H9.75C9.84946 22.125 9.94484 22.0855 10.0152 22.0152C10.0855 21.9448 10.125 21.8495 10.125 21.75H15.63L15.5438 22.245ZM12.285 14.2388L12.5363 14.3025L12.4013 14.5238C12.3584 14.5954 12.3406 14.6793 12.3508 14.7622C12.361 14.845 12.3985 14.9221 12.4575 14.9813L13.5188 16.0425C13.5779 16.1015 13.655 16.139 13.7378 16.1492C13.8207 16.1594 13.9046 16.1416 13.9763 16.0988L14.1975 15.9637L14.2613 16.215C14.2814 16.2963 14.3281 16.3685 14.394 16.4202C14.4599 16.4718 14.5413 16.4999 14.625 16.5H15V21H9.75C9.65055 21 9.55516 21.0395 9.48484 21.1098C9.41451 21.1802 9.375 21.2755 9.375 21.375H7.875C7.875 21.2755 7.83549 21.1802 7.76517 21.1098C7.69484 21.0395 7.59946 21 7.5 21H2.25V13.875C2.25119 13.8164 2.26527 13.7588 2.29125 13.7062C2.322 13.6441 2.36958 13.5918 2.42859 13.5553C2.48759 13.5189 2.55564 13.4997 2.625 13.5H12V13.875C12.0001 13.9587 12.0282 14.0401 12.0798 14.106C12.1315 14.1719 12.2037 14.2187 12.285 14.2388ZM18 13.5825L17.5425 13.695C17.4857 13.7096 17.4332 13.7371 17.3889 13.7755C17.3446 13.8139 17.3099 13.8621 17.2875 13.9163C17.2651 13.9705 17.2555 14.0291 17.2594 14.0876C17.2633 14.1462 17.2806 14.203 17.31 14.2537L17.5538 14.6588L16.9088 15.3038L16.5038 15.06C16.453 15.0306 16.3962 15.0133 16.3376 15.0094C16.2791 15.0055 16.2205 15.0151 16.1663 15.0375C16.1121 15.0599 16.0639 15.0946 16.0255 15.1389C15.9871 15.1832 15.9596 15.2357 15.945 15.2925L15.8325 15.75H14.9175L14.805 15.2925C14.7904 15.2357 14.7629 15.1832 14.7245 15.1389C14.6861 15.0946 14.6379 15.0599 14.5838 15.0375C14.5295 15.0151 14.4709 15.0055 14.4124 15.0094C14.3538 15.0133 14.297 15.0306 14.2463 15.06L13.8413 15.3038L13.1963 14.6588L13.44 14.2537C13.4694 14.203 13.4867 14.1462 13.4906 14.0876C13.4945 14.0291 13.4849 13.9705 13.4625 13.9163C13.4401 13.8621 13.4054 13.8139 13.3611 13.7755C13.3168 13.7371 13.2643 13.7096 13.2075 13.695L12.75 13.5825V12.6675L13.2075 12.555C13.2643 12.5404 13.3168 12.5129 13.3611 12.4745C13.4054 12.4361 13.4401 12.3879 13.4625 12.3338C13.4849 12.2795 13.4945 12.2209 13.4906 12.1624C13.4867 12.1038 13.4694 12.047 13.44 11.9963L13.1963 11.5913L13.8413 10.9463L14.2463 11.1863C14.2964 11.2171 14.3531 11.2356 14.4118 11.2401C14.4705 11.2447 14.5294 11.2352 14.5838 11.2125C14.6379 11.1901 14.6861 11.1554 14.7245 11.1111C14.7629 11.0668 14.7904 11.0143 14.805 10.9575L14.9175 10.5H15.8325L15.945 10.9575C15.9596 11.0143 15.9871 11.0668 16.0255 11.1111C16.0639 11.1554 16.1121 11.1901 16.1663 11.2125C16.2206 11.2352 16.2795 11.2447 16.3382 11.2401C16.3969 11.2356 16.4536 11.2171 16.5038 11.1863L16.9088 10.9463L17.5538 11.5913L17.31 11.9963C17.2806 12.047 17.2633 12.1038 17.2594 12.1624C17.2555 12.2209 17.2651 12.2795 17.2875 12.3338C17.3099 12.3879 17.3446 12.4361 17.3889 12.4745C17.4332 12.5129 17.4857 12.5404 17.5425 12.555L18 12.6675V13.5825ZM20.25 13.875H18.75V12.375C18.7499 12.2913 18.7218 12.2099 18.6702 12.144C18.6185 12.0781 18.5463 12.0314 18.465 12.0113L18.2138 11.9475L18.3488 11.7263C18.3916 11.6546 18.4094 11.5707 18.3992 11.4878C18.389 11.405 18.3515 11.3279 18.2925 11.2688L17.2313 10.2075C17.1721 10.1485 17.095 10.111 17.0122 10.1008C16.9293 10.0906 16.8454 10.1084 16.7738 10.1513L16.5525 10.2863L16.4888 10.035C16.4687 9.9537 16.4219 9.88147 16.356 9.82981C16.2901 9.77816 16.2088 9.75007 16.125 9.75H14.625C14.5413 9.75007 14.4599 9.77816 14.394 9.82981C14.3281 9.88147 14.2814 9.9537 14.2613 10.035L14.1975 10.2863L13.9763 10.1513C13.9046 10.1084 13.8207 10.0906 13.7378 10.1008C13.655 10.111 13.5779 10.1485 13.5188 10.2075L12.4575 11.2688C12.3985 11.3279 12.361 11.405 12.3508 11.4878C12.3406 11.5707 12.3584 11.6546 12.4013 11.7263L12.5363 11.9475L12.285 12.0113C12.2037 12.0314 12.1315 12.0781 12.0798 12.144C12.0282 12.2099 12.0001 12.2913 12 12.375V12.75H2.625C2.38282 12.7505 2.14731 12.8294 1.95375 12.975C1.70177 12.6413 1.5479 12.244 1.50949 11.8276C1.47107 11.4113 1.54962 10.9925 1.73629 10.6184C1.92296 10.2442 2.21035 9.92964 2.56612 9.70998C2.92188 9.49031 3.33189 9.3743 3.75 9.375H4.065C4.12732 9.37487 4.18865 9.35941 4.24358 9.32998C4.29852 9.30055 4.34537 9.25806 4.38 9.20625C4.41322 9.15363 4.43329 9.0938 4.43851 9.03179C4.44373 8.96978 4.43395 8.90743 4.41 8.85C4.22036 8.4253 4.12321 7.96512 4.125 7.5C4.12517 6.78466 4.35263 6.08788 4.77455 5.51021C5.19646 4.93254 5.79101 4.50387 6.47238 4.28606C7.15376 4.06826 7.88672 4.07258 8.56547 4.29841C9.24423 4.52424 9.83368 4.9599 10.2488 5.5425C10.292 5.60375 10.3527 5.65049 10.423 5.67659C10.4933 5.70269 10.5698 5.70693 10.6425 5.68875C10.7151 5.67081 10.7806 5.63159 10.8307 5.57613C10.8808 5.52067 10.9132 5.4515 10.9238 5.3775C11.0805 4.24898 11.6597 3.22202 12.5444 2.50412C13.4291 1.78621 14.5534 1.43088 15.69 1.50992C16.8266 1.58897 17.8908 2.09649 18.6677 2.92994C19.4445 3.7634 19.876 4.86065 19.875 6C19.8779 7.00465 19.5394 7.98048 18.915 8.7675C18.8712 8.82291 18.844 8.88955 18.8364 8.95976C18.8288 9.02998 18.8412 9.1009 18.8722 9.16437C18.9031 9.22785 18.9514 9.28129 19.0114 9.31855C19.0713 9.35582 19.1406 9.37538 19.2113 9.375H20.25C20.8467 9.375 21.419 9.61205 21.841 10.034C22.2629 10.456 22.5 11.0283 22.5 11.625C22.5 12.2217 22.2629 12.794 21.841 13.216C21.419 13.6379 20.8467 13.875 20.25 13.875Z" fill="#01B9EA"/>
<path d="M15.375 2.25V3C16.1704 3.00089 16.9329 3.31725 17.4953 3.87967C18.0577 4.44208 18.3741 5.20462 18.375 6H19.125C19.1239 5.00577 18.7285 4.05258 18.0254 3.34956C17.3224 2.64653 16.3692 2.25109 15.375 2.25Z" fill="#01B9EA"/>
<path d="M4.875 7.5H5.625C5.6256 7.0029 5.82333 6.52633 6.17483 6.17483C6.52633 5.82333 7.0029 5.6256 7.5 5.625V4.875C6.80405 4.87579 6.13683 5.15261 5.64472 5.64472C5.15261 6.13683 4.87579 6.80405 4.875 7.5Z" fill="#01B9EA"/>
<path d="M15.375 11.625C15.0783 11.625 14.7883 11.713 14.5416 11.8778C14.295 12.0426 14.1027 12.2769 13.9892 12.551C13.8756 12.8251 13.8459 13.1267 13.9038 13.4176C13.9617 13.7086 14.1046 13.9759 14.3143 14.1857C14.5241 14.3954 14.7914 14.5383 15.0824 14.5962C15.3733 14.6541 15.6749 14.6244 15.949 14.5108C16.2231 14.3973 16.4574 14.205 16.6222 13.9584C16.787 13.7117 16.875 13.4217 16.875 13.125C16.875 12.7272 16.717 12.3456 16.4357 12.0643C16.1544 11.783 15.7728 11.625 15.375 11.625ZM15.375 13.875C15.2267 13.875 15.0817 13.831 14.9583 13.7486C14.835 13.6662 14.7389 13.5491 14.6821 13.412C14.6253 13.275 14.6105 13.1242 14.6394 12.9787C14.6684 12.8332 14.7398 12.6996 14.8447 12.5947C14.9496 12.4898 15.0832 12.4184 15.2287 12.3894C15.3742 12.3605 15.525 12.3753 15.662 12.4321C15.7991 12.4889 15.9162 12.585 15.9986 12.7083C16.081 12.8317 16.125 12.9767 16.125 13.125C16.125 13.3239 16.046 13.5147 15.9053 13.6553C15.7647 13.796 15.5739 13.875 15.375 13.875Z" fill="#01B9EA"/>
<path d="M9 11.25H8.25V12H9V11.25Z" fill="#01B9EA"/>
<path d="M15.375 7.125H8.625C8.52554 7.125 8.43016 7.16451 8.35983 7.23483C8.28951 7.30516 8.25 7.40054 8.25 7.5V10.5H9V7.875H15V9H15.75V7.5C15.75 7.40054 15.7105 7.30516 15.6402 7.23483C15.5698 7.16451 15.4745 7.125 15.375 7.125Z" fill="#01B9EA"/>
<path d="M12.3751 17.25H12.3474C12.366 17.1259 12.3753 17.0005 12.3751 16.875C12.3744 16.179 12.0975 15.5118 11.6054 15.0197C11.1133 14.5276 10.4461 14.2508 9.75014 14.25C9.36405 14.2517 8.98362 14.343 8.63876 14.5166C8.29389 14.6902 7.994 14.9414 7.76264 15.2505C7.44805 15.0925 7.1021 15.0069 6.75014 15C6.15359 15.0006 5.58164 15.2378 5.15981 15.6597C4.73798 16.0815 4.50074 16.6534 4.50014 17.25V17.2972C4.1463 17.3882 3.83783 17.6052 3.63262 17.9075C3.42741 18.2098 3.33958 18.5765 3.38561 18.939C3.43164 19.3014 3.60837 19.6346 3.88262 19.876C4.15687 20.1174 4.50979 20.2504 4.87514 20.25H12.3751C12.773 20.25 13.1545 20.092 13.4358 19.8107C13.7171 19.5294 13.8751 19.1478 13.8751 18.75C13.8751 18.3522 13.7171 17.9706 13.4358 17.6893C13.1545 17.408 12.773 17.25 12.3751 17.25ZM12.3751 19.5H4.87514C4.67623 19.5 4.48547 19.421 4.34481 19.2803C4.20416 19.1397 4.12514 18.9489 4.12514 18.75C4.12514 18.5511 4.20416 18.3603 4.34481 18.2197C4.48547 18.079 4.67623 18 4.87514 18C4.9746 18 5.06998 17.9605 5.14031 17.8902C5.21063 17.8198 5.25014 17.7245 5.25014 17.625V17.25C5.25014 16.8522 5.40818 16.4706 5.68948 16.1893C5.97079 15.908 6.35232 15.75 6.75014 15.75C7.07675 15.7617 7.39287 15.8683 7.65989 16.0567C7.70194 16.0863 7.7496 16.1069 7.79992 16.1172C7.85024 16.1276 7.90216 16.1274 7.95244 16.1169C8.00272 16.1064 8.0503 16.0856 8.09222 16.0559C8.13414 16.0262 8.16952 15.9882 8.19614 15.9442C8.3493 15.6641 8.5736 15.4294 8.84643 15.2636C9.11926 15.0978 9.43097 15.0069 9.75014 15C10.0503 14.9992 10.3463 15.0706 10.6131 15.2083C10.8798 15.3461 11.1095 15.546 11.2827 15.7912C11.4559 16.0364 11.5674 16.3197 11.608 16.6172C11.6485 16.9146 11.6169 17.2175 11.5156 17.5001C11.4957 17.5567 11.4896 17.6172 11.4978 17.6766C11.5061 17.736 11.5285 17.7926 11.5631 17.8416C11.5977 17.8905 11.6436 17.9305 11.6969 17.958C11.7502 17.9856 11.8093 18 11.8693 18H12.3751C12.5741 18 12.7648 18.079 12.9055 18.2197C13.0461 18.3603 13.1251 18.5511 13.1251 18.75C13.1251 18.9489 13.0461 19.1397 12.9055 19.2803C12.7648 19.421 12.5741 19.5 12.3751 19.5Z" fill="#01B9EA"/>
<path d="M17.25 18.75H16.5V19.5H17.25V18.75Z" fill="#01B9EA"/>
<path d="M19.5 18.75H18V19.5H19.875C19.9745 19.5 20.0698 19.4605 20.1402 19.3902C20.2105 19.3198 20.25 19.2245 20.25 19.125V15.375H19.5V18.75Z" fill="#01B9EA"/>
</g>
<defs>
<clipPath id="clip0_1930_4684">
<rect width="24" height="24" fill="white"/>
</clipPath>
</defs>
</svg>
