<svg width="60" height="60" viewBox="0 0 60 60" fill="none" xmlns="http://www.w3.org/2000/svg">
<circle cx="30" cy="30" r="30" fill="#01B9EA"/>
<g clip-path="url(#clip0_2014_1737)">
<path d="M23.1782 21.9512C21.9855 21.1758 21.517 20.2642 21.7832 19.1431C22.0601 17.9485 22.9013 17.3198 24.1685 17.1417C23.4976 16.4816 22.8587 15.8529 22.2305 15.2347C21.7193 14.7317 21.4318 14.1345 21.4318 13.4115C21.4105 11.4939 23.4231 10.247 25.1695 11.1062C25.7551 11.3892 25.819 11.3682 26.032 10.75C26.3941 9.69168 27.395 8.98964 28.5131 9.00012C29.6099 9.01059 30.5896 9.72311 30.941 10.7814C31.1327 11.3577 31.2179 11.3892 31.7822 11.1167C32.9004 10.5614 34.2634 10.8757 34.9981 11.8397C35.7542 12.8247 35.7116 14.1764 34.8597 15.088C34.2953 15.6957 33.6883 16.2615 33.092 16.8483C32.9962 16.9426 32.911 17.0369 32.7939 17.1522C34.1143 17.3408 34.9768 18.0114 35.1791 19.2897C35.3708 20.4738 34.8171 21.333 33.7735 21.9407C34.881 23.2086 35.9884 24.4765 37.0959 25.7443C37.4792 24.7384 37.8626 24.4765 38.9488 24.4765C40.3331 24.4765 41.7067 24.4765 43.0911 24.4765C44.1559 24.4765 44.7629 25.0737 44.7629 26.132C44.7629 30.229 44.7629 34.3365 44.7629 38.4335C44.7629 38.5907 44.7629 38.7478 44.7629 38.9469C45.4444 38.9469 46.0833 38.9574 46.7329 38.9469C47.244 38.9364 47.6487 39.1041 47.8723 39.5756C48.0852 40.0367 47.9362 40.4348 47.6167 40.8016C45.6787 43.0439 43.7513 45.2967 41.8132 47.5391C41.2808 48.1573 40.5886 48.1468 40.0456 47.5286C39.2789 46.6484 38.5122 45.7578 37.7881 44.909C36.8936 45.4539 36.063 46.0302 35.1579 46.4913C32.7513 47.7382 30.153 48.1154 27.4802 47.9687C24.4241 47.801 21.6448 46.858 19.2808 44.909C16.4483 42.5724 14.9042 39.5756 15.0001 35.8663C15.0533 33.8126 15.7029 31.916 16.7571 30.1452C18.4076 27.3789 20.4841 24.927 22.6458 22.5485C22.8374 22.3494 23.0078 22.1503 23.1782 21.9512ZM37.1278 38.9469C37.1385 38.8212 37.1491 38.7374 37.1491 38.664C37.1491 35.1538 37.1491 31.6436 37.1385 28.1334C37.1385 27.9552 37.0533 27.7457 36.9362 27.6095C35.4454 25.8596 33.9439 24.1097 32.4212 22.3703C32.3147 22.2446 32.0804 22.1608 31.91 22.1608C29.6206 22.1503 27.3418 22.1503 25.0523 22.1608C24.882 22.1608 24.6583 22.2551 24.5412 22.3808C23.7213 23.261 22.912 24.1412 22.124 25.0423C20.3989 27.0332 18.7484 29.0869 17.5025 31.4235C16.4376 33.4249 15.9797 35.552 16.395 37.8048C16.9807 40.9797 18.8123 43.3059 21.5702 44.951C23.9023 46.3446 26.4686 46.8266 29.1733 46.7218C31.8674 46.617 34.3273 45.8311 36.4996 44.2175C36.638 44.1127 36.7764 43.9974 36.9255 43.8717C36.0097 42.8134 35.1259 41.776 34.2421 40.7492C33.9333 40.3824 33.8268 39.9947 34.0291 39.5547C34.2421 39.1146 34.6041 38.9364 35.094 38.9364C35.7542 38.9574 36.4144 38.9469 37.1278 38.9469ZM28.4705 17.1731C29.2159 17.1731 29.9613 17.1836 30.7067 17.1627C30.8452 17.1627 31.0262 17.0998 31.122 17.0055C32.0378 16.1148 32.9536 15.2242 33.8587 14.3126C34.3592 13.8096 34.4018 13.1181 33.9972 12.5942C33.5925 12.0807 32.9216 11.9445 32.2827 12.2693C31.122 12.8561 30.1424 12.4579 29.7484 11.2425C29.546 10.6242 29.0669 10.247 28.4705 10.2575C27.8742 10.2575 27.4057 10.6347 27.2034 11.2634C26.8307 12.4475 25.819 12.8561 24.7009 12.2798C24.0407 11.9445 23.3486 12.0807 22.9546 12.6151C22.5606 13.1495 22.6351 13.8411 23.1569 14.3545C24.0407 15.2242 24.9139 16.1044 25.8084 16.9636C25.9255 17.0788 26.1278 17.1522 26.2876 17.1627C27.0117 17.1836 27.7464 17.1731 28.4705 17.1731ZM28.4705 20.9034C29.8761 20.9034 31.2818 20.9139 32.6874 20.8929C33.4541 20.8824 33.9865 20.3271 33.9652 19.6251C33.9439 18.944 33.4008 18.4305 32.6554 18.4201C32.0059 18.4096 31.3563 18.4201 30.7067 18.4201C28.5877 18.4201 26.4579 18.4201 24.3389 18.4201C23.668 18.4201 23.1782 18.7868 23.0397 19.3526C22.8374 20.1594 23.4231 20.872 24.3282 20.8824C25.7019 20.9139 27.0862 20.9034 28.4705 20.9034Z" fill="white"/>
<path d="M27.8102 40.0151C26.9796 39.8684 26.2555 39.6064 25.6485 39.0825C25.1055 38.6215 24.7221 38.0452 24.5517 37.3431C24.4665 36.9554 24.6369 36.6725 24.9777 36.5677C25.3184 36.4629 25.6592 36.6201 25.755 36.9869C26.1171 38.3909 27.6292 38.9149 28.8857 38.7472C29.3543 38.6843 29.8334 38.5481 30.2381 38.3385C31.3136 37.7832 31.4201 36.442 30.4085 35.7714C29.908 35.4361 29.2797 35.2789 28.694 35.0903C28.1084 34.9017 27.4695 34.8283 26.8944 34.6188C25.5101 34.1053 24.8393 33.1623 24.8605 31.884C24.8818 30.637 25.6911 29.5683 27.0116 29.1072C27.2565 29.0234 27.512 28.95 27.8102 28.8662C27.8102 28.6043 27.7996 28.3318 27.8102 28.0594C27.8209 27.6822 28.0764 27.4202 28.4278 27.4202C28.7686 27.4097 29.0454 27.6717 29.0774 28.0384C29.088 28.1851 29.088 28.3214 29.088 28.468C29.088 28.5938 29.088 28.73 29.088 28.8662C29.3117 28.9291 29.514 28.9815 29.7163 29.0339C30.7599 29.3587 31.5159 30.0083 31.9845 30.9828C32.1868 31.402 32.0803 31.7687 31.7395 31.9259C31.3988 32.083 31.0367 31.9468 30.8451 31.5277C30.0677 29.8931 28.0977 29.8197 26.9903 30.4903C26.4152 30.8361 26.1171 31.3391 26.1384 32.0202C26.1597 32.6698 26.5217 33.0994 27.0861 33.309C27.7783 33.5605 28.5024 33.7176 29.2265 33.8958C30.1316 34.1158 30.9835 34.4302 31.6224 35.1217C32.8363 36.442 32.5914 38.4014 31.0474 39.313C30.5469 39.6064 29.9506 39.7636 29.3862 39.9312C29.1626 39.9941 29.0774 40.057 29.088 40.2875C29.0987 40.4656 29.0987 40.6542 29.088 40.8324C29.0454 41.2096 28.7792 41.4506 28.4385 41.4401C28.0871 41.4296 27.8422 41.1886 27.8209 40.8009C27.8102 40.6752 27.8209 40.539 27.8209 40.4132C27.8102 40.3085 27.8102 40.1722 27.8102 40.0151Z" fill="white"/>
</g>
<defs>
<clipPath id="clip0_2014_1737">
<rect width="33" height="39" fill="white" transform="translate(15 9)"/>
</clipPath>
</defs>
</svg>
