<svg width="24" height="24" viewBox="0 0 24 24" fill="none" xmlns="http://www.w3.org/2000/svg">
<g clip-path="url(#clip0_1792_1579)">
<path d="M8.46756 17.8471C8.17669 17.8536 7.96985 18.0148 7.79533 18.2212C7.65959 18.3825 7.55617 18.3954 7.38165 18.2599C6.70295 17.7439 6.10182 17.157 5.60411 16.4604C5.51362 16.3379 5.51362 16.254 5.62996 16.1637C5.70106 16.1121 5.75924 16.0412 5.81741 15.9767C6.0695 15.7058 6.13414 15.422 5.97254 15.093C5.79802 14.7318 5.64289 14.3577 5.50715 13.9772C5.3908 13.6547 5.13872 13.487 4.78321 13.4806C4.31135 13.4677 4.31782 13.4677 4.24672 13.0033C4.13037 12.2615 4.16269 11.5262 4.25964 10.791C4.29196 10.5588 4.37599 10.4427 4.62161 10.4878C4.67332 10.5007 4.7315 10.4878 4.78967 10.4878C5.15164 10.4814 5.39727 10.3072 5.52008 9.95892C5.63643 9.62353 5.7657 9.29458 5.9273 8.97854C6.1406 8.5464 6.09536 8.2755 5.75924 7.93366C5.48776 7.65631 5.48776 7.65631 5.72046 7.34672C6.20524 6.70818 6.77405 6.15349 7.42689 5.68265C7.56263 5.5859 7.64666 5.5859 7.75008 5.70845C7.80826 5.78585 7.87936 5.85035 7.95692 5.91485C8.20901 6.13414 8.49342 6.19864 8.80368 6.05029C9.17211 5.8697 9.55348 5.72135 9.9413 5.57945C10.2968 5.45045 10.4325 5.16666 10.4261 4.79902C10.4196 4.39912 10.4261 4.39912 10.8204 4.33463C11.6219 4.20563 12.4234 4.23788 13.2249 4.36042C13.3606 4.37977 13.4253 4.43137 13.4059 4.57972C13.393 4.66357 13.3994 4.75387 13.4059 4.84417C13.4123 5.23116 13.5933 5.4827 13.9553 5.60525C14.2979 5.72135 14.634 5.8568 14.9572 6.01804C15.3515 6.21154 15.623 6.15994 15.9397 5.85035C15.9849 5.8052 16.0366 5.7665 16.0754 5.7149C16.1853 5.56655 16.2823 5.59235 16.418 5.6891C17.1096 6.19219 17.7043 6.78558 18.2085 7.47572C18.3184 7.62406 18.3184 7.71436 18.1762 7.83691C17.9111 8.06266 17.672 8.34 17.8013 8.71409C17.9693 9.20429 18.1762 9.68803 18.4024 10.1589C18.5446 10.4491 18.8419 10.5072 19.1522 10.5007C19.5012 10.4943 19.5142 10.5007 19.5659 10.8426C19.6951 11.6746 19.6757 12.5131 19.54 13.3451C19.5206 13.4548 19.4689 13.4999 19.359 13.487C19.2815 13.4806 19.1974 13.487 19.1199 13.487C18.6545 13.487 18.4412 13.6418 18.286 14.0739C18.1826 14.3771 18.0598 14.6738 17.9176 14.964C17.6849 15.4413 17.7302 15.6929 18.0986 16.067C18.3701 16.3443 18.3765 16.2605 18.1438 16.5829C17.6655 17.2408 17.0902 17.7955 16.4374 18.2793C16.2758 18.3954 16.1724 18.3889 16.0625 18.2406C16.0173 18.1761 15.9526 18.1245 15.8944 18.0664C15.6424 17.8342 15.3579 17.7697 15.0477 17.9245C14.6793 18.1051 14.2979 18.2599 13.9101 18.3954C13.5933 18.505 13.4447 18.7501 13.4124 19.0726C13.4059 19.1758 13.3994 19.2854 13.4124 19.3886C13.4317 19.5434 13.3606 19.6015 13.2184 19.6208C12.3523 19.7627 11.4861 19.7627 10.62 19.6208C10.4843 19.595 10.4002 19.5499 10.4196 19.3886C10.4325 19.2725 10.4261 19.15 10.4132 19.0275C10.3938 18.7372 10.2386 18.5179 9.97362 18.4147C9.5664 18.2599 9.16565 18.0987 8.77136 17.9116C8.68087 17.8729 8.57745 17.8471 8.46756 17.8471ZM10.6846 16.8667C11.4991 17.0602 12.3135 17.0925 13.1279 16.8667C15.7393 16.3121 17.4716 13.4741 16.8123 10.8361C16.1853 8.3271 13.9165 6.73398 11.3569 7.00488C8.68733 7.28867 6.70941 9.67513 6.91625 12.3647C7.07785 14.5448 8.54513 16.2992 10.6846 16.8667Z" fill="#358BDB"/>
<path d="M12.2036 23.9942C9.9025 23.9813 8.00215 23.4718 6.21815 22.5043C6.05655 22.4205 6.03716 22.3495 6.12119 22.1947C6.37974 21.7174 6.36681 21.7239 6.8516 21.9625C8.028 22.5559 9.26259 22.9558 10.5812 23.1235C11.2146 23.2073 11.8481 23.2396 12.4815 23.2073C13.8066 23.1428 15.0864 22.859 16.3081 22.3431C17.8659 21.6916 19.2168 20.7499 20.3415 19.4922C21.6019 18.0797 22.4681 16.4543 22.9012 14.6032C23.108 13.7325 23.2308 12.8553 23.2243 11.9652C23.1985 10.1012 22.7848 8.32747 21.8863 6.6763C21.8346 6.57956 21.6989 6.45056 21.8088 6.35381C21.9704 6.21836 22.1578 6.08936 22.3711 6.04422C22.4422 6.03132 22.4681 6.12161 22.4939 6.17321C23.0757 7.19229 23.47 8.28232 23.7156 9.4304C23.9224 10.385 24.0323 11.346 23.9935 12.3135C23.9418 13.8228 23.6316 15.2804 23.0369 16.6736C22.565 17.7765 21.951 18.7827 21.1883 19.6986C20.3221 20.737 19.3008 21.5949 18.1374 22.2915C16.8446 23.059 15.4549 23.5621 13.9811 23.8201C13.3024 23.9426 12.6173 24.02 12.2036 23.9942Z" fill="#A9B5C9"/>
<path d="M-1.1927e-06 12.3845C0.0129264 10.1334 0.407217 8.35973 1.24104 6.69566C2.39806 4.38015 4.12389 2.60644 6.41206 1.38741C7.65957 0.723073 8.98465 0.297381 10.3808 0.110335C12.6431 -0.192809 14.8214 0.116785 16.9028 1.05202C17.2195 1.19391 17.5233 1.35516 17.8336 1.51641C17.9564 1.58091 17.9822 1.65186 17.9111 1.76795C17.9047 1.78085 17.8982 1.8002 17.8917 1.8131C17.5556 2.32909 17.7107 2.32264 17.1549 2.0324C15.9655 1.41966 14.7051 1.03267 13.3736 0.871421C11.1629 0.594076 9.05575 0.955269 7.07137 1.9292C4.95771 2.96118 3.33531 4.5285 2.18476 6.58601C1.56423 7.69539 1.15701 8.87572 0.94371 10.1205C0.762724 11.1912 0.736869 12.2748 0.872609 13.3584C1.0342 14.6419 1.40264 15.8545 1.96499 17.0155C1.98438 17.0606 2.00377 17.1058 2.02962 17.1445C2.3722 17.7443 2.3011 17.5702 1.784 17.9056C1.66119 17.983 1.59009 17.9507 1.51899 17.8282C0.924319 16.7575 0.504173 15.6223 0.25855 14.4291C0.0904917 13.6228 -0.00646497 12.8166 -1.1927e-06 12.3845Z" fill="#A9B5C9"/>
<path d="M20.1347 2.32227C20.9944 2.32872 21.6795 3.0253 21.6731 3.88314C21.6666 4.73452 20.962 5.42466 20.1024 5.41176C19.2621 5.40531 18.5769 4.70872 18.5769 3.85734C18.5834 3.0124 19.275 2.32227 20.1347 2.32227Z" fill="#01B9EA"/>
<path d="M2.32697 20.1228C2.32697 19.2649 3.01859 18.5684 3.87827 18.5684C4.73795 18.5684 5.42958 19.2585 5.42311 20.1228C5.42311 20.9677 4.73149 21.6579 3.88474 21.6643C3.02505 21.6708 2.32697 20.9806 2.32697 20.1228Z" fill="#01B9EA"/>
<path d="M10.6846 16.8664C10.6911 16.1892 10.6911 15.5119 10.704 14.8347C10.704 14.7057 10.6135 14.6799 10.5295 14.6283C9.60518 14.0414 9.10747 13.2029 9.15918 12.1064C9.21089 11.0551 9.72799 10.2682 10.6652 9.7651C10.8333 9.6748 10.8915 9.7006 10.885 9.90054C10.8785 10.6423 10.8915 11.384 10.8785 12.1258C10.8721 12.3321 10.9432 12.3837 11.1371 12.3773C11.6671 12.3644 12.2036 12.3644 12.7336 12.3773C12.9082 12.3837 12.9728 12.3321 12.9663 12.1516C12.9534 11.4098 12.9599 10.6681 12.9599 9.92634C12.9599 9.6748 12.9793 9.6619 13.199 9.78445C14.0587 10.2553 14.5629 10.9712 14.6599 11.9516C14.7697 13.1319 14.285 14.022 13.2766 14.6412C13.1667 14.7057 13.115 14.7767 13.115 14.9056C13.1215 15.5571 13.1215 16.2085 13.1215 16.86C12.3135 17.0922 11.4991 17.0599 10.6846 16.8664Z" fill="#358BDB"/>
</g>
<defs>
<clipPath id="clip0_1792_1579">
<rect width="24" height="24" fill="white"/>
</clipPath>
</defs>
</svg>
