<svg width="24" height="24" viewBox="0 0 24 24" fill="none" xmlns="http://www.w3.org/2000/svg">
<g clip-path="url(#clip0_1930_3922)">
<path d="M2.7638 8.79031C2.83228 8.85879 2.92219 8.89321 3.01209 8.89321C3.102 8.89321 3.1919 8.85897 3.26057 8.79031C3.39771 8.65316 3.39771 8.43069 3.26057 8.29354L2.40766 7.44063L3.26057 6.58791C3.39771 6.45058 3.39771 6.22829 3.26057 6.09114C3.12342 5.95399 2.90095 5.95399 2.7638 6.09114L1.6626 7.19234C1.59668 7.25826 1.55969 7.34762 1.55969 7.44063C1.55969 7.53383 1.59668 7.62319 1.6626 7.68911L2.7638 8.79031Z" fill="#01B9EA"/>
<path d="M6.24957 7.44082L5.39666 8.29372C5.25951 8.43087 5.25951 8.65334 5.39684 8.79049C5.46533 8.85897 5.55523 8.8934 5.64514 8.8934C5.73504 8.8934 5.82495 8.85897 5.89343 8.79049L6.99481 7.68911C7.13196 7.55196 7.13196 7.32949 6.99481 7.19252L5.89343 6.09114C5.75628 5.95399 5.53399 5.95399 5.39684 6.09114C5.25951 6.22847 5.25951 6.45076 5.39684 6.58791L6.24957 7.44082Z" fill="#01B9EA"/>
<path d="M3.80491 8.86912C3.84702 8.8856 3.8906 8.89348 3.93326 8.89348C4.07352 8.89348 4.20591 8.80888 4.26029 8.67064L5.12547 6.46805C5.19651 6.28751 5.10752 6.08371 4.92698 6.01267C4.74662 5.94181 4.54264 6.03061 4.47178 6.21116L3.60642 8.41374C3.53556 8.59428 3.62436 8.79826 3.80491 8.86912Z" fill="#01B9EA"/>
<path d="M2.10974 10.9545H4.47602C4.66993 10.9545 4.82722 10.7972 4.82722 10.6032C4.82722 10.4092 4.66993 10.252 4.47602 10.252H2.10974C1.91565 10.252 1.75854 10.4092 1.75854 10.6032C1.75854 10.7972 1.91565 10.9545 2.10974 10.9545Z" fill="#01B9EA"/>
<path d="M9.92604 10.252H5.76587C5.57196 10.252 5.41467 10.4092 5.41467 10.6032C5.41467 10.7972 5.57196 10.9545 5.76587 10.9545H9.92604C10.1201 10.9545 10.2774 10.7972 10.2774 10.6032C10.2774 10.4092 10.1201 10.252 9.92604 10.252Z" fill="#01B9EA"/>
<path d="M2.10974 12.437H3.11774C3.31165 12.437 3.46894 12.2797 3.46894 12.0856C3.46894 11.8917 3.31165 11.7344 3.11774 11.7344H2.10974C1.91565 11.7344 1.75854 11.8917 1.75854 12.0856C1.75854 12.2797 1.91565 12.437 2.10974 12.437Z" fill="#01B9EA"/>
<path d="M8.64111 11.7344C8.44702 11.7344 8.28992 11.8917 8.28992 12.0856C8.28992 12.2797 8.44702 12.437 8.64111 12.437H9.25489C9.44898 12.437 9.60627 12.2797 9.60627 12.0856C9.60627 11.8917 9.44898 11.7344 9.25489 11.7344H8.64111Z" fill="#01B9EA"/>
<path d="M7.71632 12.0856C7.71632 11.8917 7.55903 11.7344 7.36512 11.7344H4.3501C4.15601 11.7344 3.9989 11.8917 3.9989 12.0856C3.9989 12.2797 4.15601 12.437 4.3501 12.437H7.36512C7.55903 12.437 7.71632 12.2797 7.71632 12.0856Z" fill="#01B9EA"/>
<path d="M10.0173 12.0856C10.0173 12.2797 10.1746 12.437 10.3685 12.437H11.5183C11.7123 12.437 11.8696 12.2797 11.8696 12.0856C11.8696 11.8917 11.7123 11.7344 11.5183 11.7344H10.3685C10.1746 11.7344 10.0173 11.8917 10.0173 12.0856Z" fill="#01B9EA"/>
<path d="M8.10443 7.72406H9.31714C9.51124 7.72406 9.66853 7.56677 9.66853 7.37268C9.66853 7.17877 9.51124 7.02148 9.31714 7.02148H8.10443C7.91034 7.02148 7.75305 7.17877 7.75305 7.37268C7.75305 7.56677 7.91034 7.72406 8.10443 7.72406Z" fill="#01B9EA"/>
<path d="M10.6756 7.72406H18.0751C18.2692 7.72406 18.4263 7.56677 18.4263 7.37268C18.4263 7.17877 18.2692 7.02148 18.0751 7.02148H10.6756C10.4815 7.02148 10.3242 7.17877 10.3242 7.37268C10.3242 7.56677 10.4815 7.72406 10.6756 7.72406Z" fill="#01B9EA"/>
<path d="M16.9511 8.56641H13.9536C13.7597 8.56641 13.6024 8.72369 13.6024 8.91779C13.6024 9.1117 13.7597 9.26899 13.9536 9.26899H16.9511C17.145 9.26899 17.3023 9.1117 17.3023 8.91779C17.3023 8.72369 17.145 8.56641 16.9511 8.56641Z" fill="#01B9EA"/>
<path d="M12.8295 8.56641H11.7992C11.6051 8.56641 11.448 8.72369 11.448 8.91779C11.448 9.1117 11.6051 9.26899 11.7992 9.26899H12.8295C13.0236 9.26899 13.1807 9.1117 13.1807 8.91779C13.1807 8.72369 13.0236 8.56641 12.8295 8.56641Z" fill="#01B9EA"/>
<path d="M8.10443 9.26899H10.6285C10.8225 9.26899 10.9797 9.1117 10.9797 8.91779C10.9797 8.72369 10.8225 8.56641 10.6285 8.56641H8.10443C7.91034 8.56641 7.75305 8.72369 7.75305 8.91779C7.75305 9.1117 7.91034 9.26899 8.10443 9.26899Z" fill="#01B9EA"/>
<path d="M7.3697 13.2031H5.0036C4.80951 13.2031 4.65222 13.3604 4.65222 13.5543C4.65222 13.7482 4.80951 13.9055 5.0036 13.9055H7.3697C7.56361 13.9055 7.7209 13.7482 7.7209 13.5543C7.7209 13.3604 7.56361 13.2031 7.3697 13.2031Z" fill="#01B9EA"/>
<path d="M3.92762 13.2031H2.10974C1.91565 13.2031 1.75854 13.3604 1.75854 13.5543C1.75854 13.7482 1.91565 13.9055 2.10974 13.9055H3.92762C4.12171 13.9055 4.27882 13.7482 4.27882 13.5543C4.27882 13.3604 4.12171 13.2031 3.92762 13.2031Z" fill="#01B9EA"/>
<path d="M11.6589 13.2031H8.56787C8.37378 13.2031 8.21667 13.3604 8.21667 13.5543C8.21667 13.7482 8.37378 13.9055 8.56787 13.9055H11.6589C11.8528 13.9055 12.0101 13.7482 12.0101 13.5543C12.0101 13.3604 11.8528 13.2031 11.6589 13.2031Z" fill="#01B9EA"/>
<path d="M15.8391 11.3984H14.1488C13.9549 11.3984 13.7976 11.5557 13.7976 11.7496C13.7976 11.9437 13.9549 12.101 14.1488 12.101H15.8391C16.0331 12.101 16.1903 11.9437 16.1903 11.7496C16.1903 11.5557 16.0331 11.3984 15.8391 11.3984Z" fill="#01B9EA"/>
<path d="M18.772 12.101H21.158C21.3521 12.101 21.5094 11.9437 21.5094 11.7496C21.5094 11.5557 21.3521 11.3984 21.158 11.3984H18.772C18.5779 11.3984 18.4208 11.5557 18.4208 11.7496C18.4208 11.9437 18.5781 12.101 18.772 12.101Z" fill="#01B9EA"/>
<path d="M17.5788 11.3984H17.032C16.838 11.3984 16.6807 11.5557 16.6807 11.7496C16.6807 11.9437 16.838 12.101 17.032 12.101H17.5788C17.7729 12.101 17.93 11.9437 17.93 11.7496C17.93 11.5557 17.7729 11.3984 17.5788 11.3984Z" fill="#01B9EA"/>
<path d="M14.1488 15.929H15.8391C16.0331 15.929 16.1903 15.7719 16.1903 15.5778C16.1903 15.3839 16.0331 15.2266 15.8391 15.2266H14.1488C13.9549 15.2266 13.7976 15.3839 13.7976 15.5778C13.7976 15.7719 13.9549 15.929 14.1488 15.929Z" fill="#01B9EA"/>
<path d="M18.772 15.929H21.158C21.3521 15.929 21.5094 15.7719 21.5094 15.5778C21.5094 15.3839 21.3521 15.2266 21.158 15.2266H18.772C18.5779 15.2266 18.4208 15.3839 18.4208 15.5778C18.4208 15.7719 18.5781 15.929 18.772 15.929Z" fill="#01B9EA"/>
<path d="M17.032 15.929H17.5787C17.7728 15.929 17.9301 15.7719 17.9301 15.5778C17.9301 15.3839 17.7728 15.2266 17.5787 15.2266H17.032C16.8379 15.2266 16.6808 15.3839 16.6808 15.5778C16.6808 15.7719 16.8379 15.929 17.032 15.929Z" fill="#01B9EA"/>
<path d="M15.8391 19.0547H14.1488C13.9549 19.0547 13.7976 19.212 13.7976 19.4059C13.7976 19.5998 13.9549 19.7571 14.1488 19.7571H15.8391C16.0331 19.7571 16.1903 19.5998 16.1903 19.4059C16.1903 19.212 16.0331 19.0547 15.8391 19.0547Z" fill="#01B9EA"/>
<path d="M21.158 19.0547H18.772C18.5779 19.0547 18.4208 19.212 18.4208 19.4059C18.4208 19.5998 18.5779 19.7571 18.772 19.7571H21.158C21.3521 19.7571 21.5094 19.5998 21.5094 19.4059C21.5094 19.212 21.3521 19.0547 21.158 19.0547Z" fill="#01B9EA"/>
<path d="M17.5788 19.0547H17.032C16.838 19.0547 16.6807 19.212 16.6807 19.4059C16.6807 19.5998 16.838 19.7571 17.032 19.7571H17.5788C17.7729 19.7571 17.93 19.5998 17.93 19.4059C17.93 19.212 17.7729 19.0547 17.5788 19.0547Z" fill="#01B9EA"/>
<path d="M22.4543 0.046875H1.54597C0.693606 0.046875 0 0.740298 0 1.59284V18.5882C0 19.4406 0.693606 20.134 1.54597 20.134H2.86781C3.06172 20.134 3.21901 19.9769 3.21901 19.7828C3.21901 19.5889 3.06172 19.4316 2.86781 19.4316H1.54597C1.08088 19.4316 0.702578 19.0533 0.702578 18.5882V17.2557H13.4993V17.8611H13.2208C12.8398 17.8611 12.53 18.1709 12.53 18.552V19.4316H5.00338C4.80947 19.4316 4.65218 19.5889 4.65218 19.7828C4.65218 19.9769 4.80947 20.134 5.00338 20.134H8.38059V21.3938H7.32004C6.61251 21.3938 6.03701 21.9694 6.03701 22.6768V23.4356C6.03701 23.7584 6.29958 24.021 6.6224 24.021H17.351C17.6738 24.021 17.9363 23.7584 17.9363 23.4356V22.6768C17.9363 21.9694 17.3608 21.3938 16.6533 21.3938H15.5928V20.9497H22.0863C22.4671 20.9497 22.7769 20.6399 22.7769 20.2589V20.0935C23.4616 19.9346 23.9734 19.3203 23.9734 18.5882L23.9999 1.59266C24.0001 0.740298 23.3067 0.046875 22.4543 0.046875ZM13.2325 16.4195V14.7358H22.0745V16.4195H13.2325ZM14.2017 14.0333V13.2942H21.1052V14.0333H14.2017ZM21.1052 17.1219V17.8611H14.2017V17.1219H21.1052ZM9.08298 20.134H12.53V20.2591C12.53 20.6399 12.8398 20.9497 13.2208 20.9497H14.8904V21.3938H9.08298V20.134ZM16.6535 22.0963C16.9736 22.0963 17.234 22.3567 17.234 22.6768V23.3186H6.73941V22.6768C6.73941 22.3567 6.99997 22.0963 7.32004 22.0963H16.6535ZM22.0745 20.2471H13.2325V18.5637H22.0745V20.2471ZM23.271 18.5882C23.271 18.9284 23.0681 19.2216 22.7771 19.3547V18.5518C22.7771 18.1709 22.4671 17.8611 22.0863 17.8611H21.8078V17.2557H23.271V18.5882ZM23.271 16.5533H22.7656C22.7727 16.5136 22.7771 14.7241 22.7771 14.7241C22.7771 14.3431 22.4671 14.0333 22.0863 14.0333H21.8078V13.2942H22.0863C22.4671 13.2942 22.7771 12.9842 22.7771 12.6034V10.8963C22.7771 10.5154 22.4671 10.2054 22.0863 10.2054H20.1023C19.9082 10.2054 19.7511 10.3627 19.7511 10.5568C19.7511 10.7507 19.9082 10.908 20.1023 10.908H22.0745V12.5917H13.2325V10.908H17.9168C18.1108 10.908 18.268 10.7507 18.268 10.5568C18.268 10.3627 18.1108 10.2054 17.9168 10.2054H13.2208C12.8398 10.2054 12.53 10.5154 12.53 10.8963V12.6034C12.53 12.9842 12.8398 13.2942 13.2208 13.2942H13.4993V14.0333H13.2208C12.8398 14.0333 12.53 14.3433 12.53 14.7241C12.53 14.7241 12.5344 16.5136 12.5415 16.5533H0.702578V4.82485H23.271V16.5533ZM23.271 4.12227H0.728396V1.59266C0.728396 1.12775 1.10669 0.749453 1.57178 0.749453H22.4276C22.8927 0.749453 23.271 1.12775 23.271 1.59284V4.12227Z" fill="#01B9EA"/>
<path d="M2.5904 1.39453C2.02204 1.39453 1.55969 1.85687 1.55969 2.42524C1.55969 2.9936 2.02204 3.45612 2.5904 3.45612C3.15876 3.45612 3.62128 2.9936 3.62128 2.42524C3.62128 1.85687 3.15876 1.39453 2.5904 1.39453ZM2.5904 2.75355C2.40949 2.75355 2.26209 2.60633 2.26209 2.42524C2.26209 2.24433 2.40949 2.09693 2.5904 2.09693C2.77149 2.09693 2.91871 2.24433 2.91871 2.42524C2.91871 2.60633 2.77149 2.75355 2.5904 2.75355Z" fill="#01B9EA"/>
<path d="M5.21497 1.39453C4.64661 1.39453 4.18408 1.85687 4.18408 2.42524C4.18408 2.9936 4.64661 3.45612 5.21497 3.45612C5.78333 3.45612 6.24568 2.9936 6.24568 2.42524C6.24568 1.85687 5.78315 1.39453 5.21497 1.39453ZM5.21497 2.75355C5.03388 2.75355 4.88666 2.60633 4.88666 2.42524C4.88666 2.24433 5.03388 2.09693 5.21497 2.09693C5.39588 2.09693 5.54328 2.24433 5.54328 2.42524C5.54328 2.60633 5.39588 2.75355 5.21497 2.75355Z" fill="#01B9EA"/>
<path d="M7.83905 1.39453C7.27069 1.39453 6.80835 1.85687 6.80835 2.42524C6.80835 2.9936 7.27069 3.45612 7.83905 3.45612C8.40742 3.45612 8.86994 2.9936 8.86994 2.42524C8.86994 1.85687 8.40742 1.39453 7.83905 1.39453ZM7.83905 2.75355C7.65815 2.75355 7.51074 2.60633 7.51074 2.42524C7.51074 2.24433 7.65815 2.09693 7.83905 2.09693C8.02015 2.09693 8.16736 2.24433 8.16736 2.42524C8.16736 2.60633 8.02015 2.75355 7.83905 2.75355Z" fill="#01B9EA"/>
</g>
<defs>
<clipPath id="clip0_1930_3922">
<rect width="24" height="24" fill="white"/>
</clipPath>
</defs>
</svg>
