<svg width="16" height="16" viewBox="0 0 16 16" fill="none" xmlns="http://www.w3.org/2000/svg">
<path d="M12.645 9.91125C12.3174 9.57018 11.9223 9.38783 11.5036 9.38783C11.0883 9.38783 10.6898 9.5668 10.3487 9.90787L9.2816 10.9716C9.1938 10.9243 9.106 10.8804 9.02158 10.8365C8.90001 10.7757 8.7852 10.7183 8.68727 10.6575C7.6877 10.0227 6.77931 9.19534 5.90807 8.12486C5.48596 7.59131 5.2023 7.14218 4.9963 6.6863C5.27321 6.43303 5.52986 6.16963 5.77975 5.91636C5.8743 5.82181 5.96885 5.72388 6.06341 5.62933C6.77256 4.92018 6.77256 4.00166 6.06341 3.29251L5.14151 2.37061C5.03683 2.26593 4.92877 2.15786 4.82746 2.0498C4.62484 1.84044 4.4121 1.62431 4.1926 1.4217C3.86504 1.09752 3.47332 0.925293 3.06133 0.925293C2.64935 0.925293 2.25088 1.09752 1.91318 1.4217C1.90981 1.42508 1.90981 1.42508 1.90643 1.42845L0.758282 2.58673C0.326037 3.01898 0.0795227 3.54577 0.0254922 4.157C-0.0555537 5.14305 0.234861 6.06157 0.457737 6.66266C1.0048 8.13837 1.82201 9.50602 3.04107 10.9716C4.52016 12.7377 6.29979 14.1324 8.33269 15.1151C9.10938 15.4831 10.1461 15.9188 11.3044 15.9931C11.3753 15.9964 11.4496 15.9998 11.5171 15.9998C12.2972 15.9998 12.9523 15.7195 13.4656 15.1623C13.469 15.1556 13.4757 15.1522 13.4791 15.1455C13.6547 14.9327 13.8573 14.7402 14.0701 14.5342C14.2153 14.3958 14.3639 14.2506 14.5091 14.0986C14.8434 13.7508 15.019 13.3456 15.019 12.9302C15.019 12.5115 14.84 12.1096 14.4989 11.7719L12.645 9.91125ZM13.8539 13.4671C13.8506 13.4671 13.8506 13.4705 13.8539 13.4671C13.7222 13.609 13.5872 13.7373 13.442 13.8791C13.2225 14.0885 12.9996 14.308 12.7902 14.5545C12.4491 14.9192 12.0473 15.0914 11.5205 15.0914C11.4698 15.0914 11.4158 15.0914 11.3652 15.0881C10.3622 15.0239 9.43019 14.6322 8.73117 14.2979C6.81984 13.3726 5.14151 12.059 3.74685 10.3941C2.59532 9.00624 1.82539 7.72301 1.31547 6.34523C1.00142 5.50438 0.886604 4.84926 0.937258 4.23129C0.971027 3.83619 1.12299 3.50863 1.40327 3.22835L2.5548 2.07682C2.72027 1.92148 2.89587 1.83706 3.06809 1.83706C3.28083 1.83706 3.45306 1.96538 3.56112 2.07344C3.56449 2.07682 3.56787 2.0802 3.57125 2.08357C3.77724 2.27606 3.9731 2.47529 4.17909 2.68804C4.28378 2.7961 4.39184 2.90416 4.4999 3.0156L5.42179 3.9375C5.77975 4.29545 5.77975 4.62639 5.42179 4.98434C5.32386 5.08227 5.22931 5.1802 5.13138 5.27475C4.84772 5.56517 4.57757 5.83532 4.28378 6.09872C4.27702 6.10547 4.27027 6.10885 4.26689 6.1156C3.97648 6.40602 4.03051 6.68968 4.09129 6.88216C4.09467 6.89229 4.09805 6.90242 4.10142 6.91255C4.34118 7.49338 4.67887 8.04044 5.19216 8.69218L5.19554 8.69556C6.12757 9.84371 7.11025 10.7386 8.19424 11.4241C8.33269 11.5119 8.47452 11.5828 8.6096 11.6504C8.73117 11.7111 8.84598 11.7685 8.94391 11.8293C8.95742 11.8361 8.97093 11.8462 8.98444 11.853C9.09925 11.9104 9.20731 11.9374 9.31875 11.9374C9.59903 11.9374 9.77463 11.7618 9.83204 11.7044L10.9869 10.5495C11.1018 10.4347 11.2841 10.2962 11.4969 10.2962C11.7062 10.2962 11.8784 10.4279 11.9831 10.5427C11.9865 10.5461 11.9865 10.5461 11.9899 10.5495L13.8506 12.4102C14.1984 12.7546 14.1984 13.1092 13.8539 13.4671Z" fill="white"/>
</svg>
