<svg width="16" height="20" viewBox="0 0 16 20" fill="none" xmlns="http://www.w3.org/2000/svg">
<path d="M15.4996 6.62668C15.2237 6.62668 14.9997 6.83874 14.9997 7.10003V12.4602L10.9999 13.9749V8.9934C10.9999 8.73212 10.7759 8.52006 10.5 8.52006C10.224 8.52006 9.99999 8.73212 9.99999 8.9934V13.9739L6.00024 12.4592V4.95957L8.31709 5.83715C8.57008 5.93371 8.86406 5.81632 8.96705 5.57302C9.07004 5.33067 8.94505 5.05518 8.68807 4.95767L5.69525 3.82354C5.69525 3.82354 5.69526 3.82354 5.69426 3.82354L5.68626 3.8207C5.56726 3.77526 5.43427 3.77526 5.31528 3.8207L5.30628 3.82354C5.30628 3.82354 5.30628 3.82354 5.30528 3.82354L0.314591 5.71408C0.125603 5.78603 0.000610352 5.95927 0.000610352 6.15334V14.6735C0.000610352 14.8307 0.0836052 14.9774 0.220597 15.0655C0.304591 15.1194 0.401585 15.1469 0.500579 15.1469C0.563575 15.1469 0.626571 15.1355 0.686568 15.1128L5.50027 13.2904L10.305 15.11C10.305 15.11 10.305 15.11 10.306 15.11L10.315 15.1137C10.434 15.1592 10.567 15.1592 10.6859 15.1137L10.6949 15.11C10.6949 15.11 10.6949 15.11 10.6959 15.11L15.6866 13.2204C15.8746 13.1475 15.9996 12.9742 15.9996 12.7802V7.10003C15.9996 6.83874 15.7756 6.62668 15.4996 6.62668ZM5.0003 12.4592L1.00055 13.9739V6.47332L5.0003 4.95862V12.4592Z" fill="white"/>
<path d="M12.4997 1.89307C11.6728 1.89307 10.9998 2.53019 10.9998 3.3131C10.9998 4.09601 11.6728 4.73313 12.4997 4.73313C13.3267 4.73313 13.9996 4.09601 13.9996 3.3131C13.9996 2.53019 13.3267 1.89307 12.4997 1.89307ZM12.4997 3.78644C12.2237 3.78644 11.9998 3.57438 11.9998 3.3131C11.9998 3.05181 12.2237 2.83975 12.4997 2.83975C12.7757 2.83975 12.9997 3.05181 12.9997 3.3131C12.9997 3.57438 12.7757 3.78644 12.4997 3.78644Z" fill="white"/>
<path d="M12.4997 0C10.5698 0 8.99994 1.4863 8.99994 3.3134C8.99994 5.01365 11.8078 8.02506 12.1277 8.36303C12.2227 8.46243 12.3577 8.52018 12.4997 8.52018C12.6417 8.52018 12.7767 8.46243 12.8717 8.36303C13.1917 8.02506 15.9995 5.01365 15.9995 3.3134C15.9995 1.4863 14.4296 0 12.4997 0ZM12.4997 7.32451C11.4078 6.09856 9.99988 4.21654 9.99988 3.3134C9.99988 2.00887 11.1218 0.946687 12.4997 0.946687C13.8776 0.946687 14.9996 2.00887 14.9996 3.3134C14.9996 4.2156 13.5917 6.09856 12.4997 7.32451Z" fill="white"/>
</svg>
