<svg width="512" height="397" viewBox="0 0 512 397" fill="none" xmlns="http://www.w3.org/2000/svg">
<g clip-path="url(#clip0_2967_2198)">
<path d="M34.2092 352.441H507.41C522.828 352.441 495.235 360.503 486.186 369.545C477.137 378.588 477.673 382.357 455.181 389.175C406.796 403.897 386.096 375.081 309.282 386.427C276.59 391.255 234.822 400.494 201.894 395.587C174.171 391.452 167.437 372.529 146.487 370.998C114.318 368.642 98.2729 370.998 68.9283 369.519C43.7815 368.315 -6.0154 352.441 34.2092 352.441Z" fill="url(#paint0_linear_2967_2198)"/>
<path d="M395.511 352.441C394.072 300.319 405.842 237.072 446.812 201.163C453.35 195.405 461.445 187.972 470.795 188.653C475.136 188.967 477.333 193.887 477.948 197.63C479.112 204.173 477.948 211.017 476.378 217.508C467.486 253.378 438.207 316.192 430.688 352.441" fill="url(#paint1_linear_2967_2198)"/>
<path d="M464.688 202.511C456.865 212.624 450.017 223.455 444.236 234.86C438.84 245.502 434.25 256.535 430.505 267.864C427.052 278.301 424.253 288.944 422.123 299.729C420.312 308.912 419.003 318.186 418.199 327.512C417.494 334.774 417.284 342.075 417.572 349.366C417.572 350.099 417.663 350.818 417.703 351.551C417.703 352.009 418.435 352.009 418.409 351.551C418.206 344.597 418.402 337.636 418.997 330.705C419.677 321.624 420.842 312.585 422.489 303.629C424.414 293.055 426.973 282.606 430.152 272.34C433.64 261.043 437.949 250.016 443.046 239.349C448.506 227.905 454.951 216.959 462.308 206.633C463.223 205.325 464.165 204.016 465.119 202.799C465.289 202.563 464.884 202.249 464.701 202.485L464.688 202.511Z" fill="#92D0FF"/>
<path d="M430.688 352.442C436.18 318.718 441.947 291.171 461.262 262.983C469.212 251.389 484.525 237.059 496.7 238.237C509.777 239.546 500.492 259.28 492.777 274.028C482.293 293.747 475.051 315.028 471.331 337.052C472.416 330.443 476.993 311.612 490.541 303.25C494.464 300.79 504.298 299.324 504.298 307.503C504.298 321.819 490.397 339.015 486.918 352.442" fill="url(#paint2_linear_2967_2198)"/>
<path d="M492.515 248.431C489.31 252.637 486.437 257.087 483.924 261.74C480.328 268.113 477.085 274.696 474.025 281.37C470.537 288.855 467.342 296.454 464.439 304.166C461.484 311.926 458.803 319.791 456.593 327.787C454.52 334.756 453.033 341.887 452.147 349.105C452.055 349.903 451.99 350.688 451.938 351.473C451.938 351.813 452.409 351.8 452.448 351.473C453.343 344.42 454.741 337.44 456.632 330.587C458.751 322.736 461.314 315.028 464.112 307.412C466.911 299.795 470.128 291.93 473.528 284.366C476.579 277.579 479.857 270.905 483.362 264.344C485.909 259.41 488.793 254.658 491.992 250.12C492.306 249.688 492.62 249.269 492.947 248.811C493.274 248.353 492.751 248.078 492.515 248.379V248.431Z" fill="#92D0FF"/>
<path d="M496.53 308.511C492.479 312.715 489.179 317.584 486.775 322.906C483.993 328.844 481.748 335.019 480.066 341.357C479.072 345.008 478.222 348.686 477.542 352.402C477.464 352.808 478.065 352.978 478.157 352.572C480.968 340.153 484.303 327.42 491.103 316.519C492.763 313.786 494.714 311.242 496.922 308.929C496.963 308.876 496.983 308.809 496.978 308.742C496.973 308.674 496.944 308.611 496.895 308.565C496.847 308.518 496.783 308.49 496.715 308.488C496.648 308.485 496.582 308.507 496.53 308.55V308.511Z" fill="#92D0FF"/>
<path d="M121.746 352.442C113.808 286.683 119.575 258.024 127.055 239.808C130.547 231.328 135.555 222.913 142.643 216.933C171.02 192.959 170.104 239.546 168.797 253.679C165.763 285.846 157.707 320.236 157.027 352.442" fill="url(#paint3_linear_2967_2198)"/>
<path d="M96.1806 352.441C95.2783 331.752 86.0591 311.572 74.3029 294.861C62.5468 278.15 46.2268 264.697 35.5822 247.057C29.8807 237.674 20.8576 222.755 34.1961 215.008C48.9861 206.411 70.7199 215.414 82.5806 225.242C95.5137 235.92 104.027 251.061 111.114 266.006C123.655 292.401 126.166 323.219 126.362 352.376" fill="url(#paint4_linear_2967_2198)"/>
<path d="M99.0052 352.441C99.0052 331.385 88.3345 309.165 71.413 292.715C60.3499 281.958 47.1161 271.895 32.0253 267.458C24.1792 265.155 2.30153 261.517 0.104609 274.538C-0.732312 279.55 3.72691 288.711 14.3846 297.204C29.2138 308.981 70.1837 327.224 75.1137 352.441" fill="url(#paint5_linear_2967_2198)"/>
<path d="M10.1346 275.403C16.1594 277.088 22.0232 279.304 27.6576 282.024C33.9674 285.035 40.0052 288.586 45.7038 292.637C51.8014 296.976 57.4445 301.922 62.5468 307.399C67.8508 313.082 72.4279 319.403 76.173 326.217C80.0607 333.349 82.9432 340.985 84.7383 348.908C84.9737 349.929 85.1829 350.963 85.3791 351.997C85.4576 352.363 85.9806 352.206 85.9283 351.853C84.6016 343.723 82.0255 335.848 78.2914 328.507C74.7314 321.54 70.307 315.05 65.123 309.191C60.1178 303.555 54.5485 298.446 48.5022 293.946C42.7498 289.633 36.6228 285.845 30.1946 282.626C24.4824 279.759 18.5317 277.395 12.41 275.56L10.3307 274.971C10.2729 274.966 10.2152 274.981 10.1675 275.014C10.1198 275.047 10.0851 275.096 10.0696 275.152C10.0541 275.208 10.0586 275.267 10.0824 275.32C10.1062 275.373 10.1478 275.416 10.2 275.442L10.1346 275.403Z" fill="#92D0FF"/>
<path d="M41.2576 223.41C47.428 226.795 53.1409 230.955 58.2576 235.79C64.4527 241.586 70.0595 247.981 74.996 254.883C80.6863 262.819 85.6536 271.25 89.8383 280.074C94.5596 290.059 98.376 300.447 101.241 311.115C104.343 322.939 106.443 335.003 107.518 347.181C107.675 348.764 107.806 350.348 107.924 351.931C107.924 352.533 108.878 352.546 108.852 351.931C108.267 339.462 106.441 327.082 103.399 314.975C100.715 304.093 97.0422 293.48 92.4275 283.267C88.3126 274.109 83.3662 265.348 77.6506 257.094C72.7152 249.952 67.0866 243.316 60.8468 237.282C55.6594 232.235 49.8759 227.84 43.6245 224.195C42.9183 223.79 42.2122 223.41 41.506 223.031C41.2314 222.887 40.983 223.305 41.2576 223.462V223.41Z" fill="#92D0FF"/>
<path d="M153.235 216.383C149.964 224.222 147.276 232.292 145.193 240.527C142.934 249.364 141.122 258.309 139.766 267.328C138.367 276.488 137.334 285.649 136.588 294.94C135.843 304.231 135.385 313.405 135.15 322.657C134.94 331.346 134.81 340.075 135.15 348.83C135.15 349.877 135.228 350.937 135.28 351.983C135.297 352.077 135.347 352.161 135.42 352.222C135.492 352.283 135.584 352.317 135.679 352.317C135.774 352.317 135.866 352.283 135.939 352.222C136.012 352.161 136.061 352.077 136.078 351.983C136.078 343.412 135.974 334.84 136.157 326.269C136.322 317.108 136.728 307.948 137.373 298.788C138.04 289.496 138.968 280.218 140.276 270.992C141.584 262.002 143.166 253.064 145.258 244.231C147.216 235.826 149.71 227.556 152.725 219.471C153.078 218.529 153.444 217.587 153.81 216.645C153.941 216.331 153.392 216.095 153.261 216.409L153.235 216.383Z" fill="#92D0FF"/>
<path d="M78.9191 352.442C76.4084 341.057 74.1722 329.279 67.4115 319.464C62.9784 313.065 53.9553 304.14 45.9261 304.284C39.95 304.389 38.603 310.134 39.2961 315.303C41.1138 328.873 48.633 333.008 51.5492 347.678C50.0976 342.117 41.0877 322.88 33.2415 330.234C24.5977 338.321 37.4915 352.481 37.4915 352.481" fill="url(#paint6_linear_2967_2198)"/>
<path d="M36.4846 333.989C38.7671 336.652 40.8893 339.449 42.8399 342.365C44.8763 345.552 46.5683 348.948 47.8876 352.493C47.9067 352.568 47.9546 352.632 48.0208 352.671C48.087 352.711 48.1661 352.722 48.2407 352.703C48.3153 352.684 48.3792 352.636 48.4184 352.569C48.4577 352.503 48.469 352.424 48.4499 352.349C47.4354 348.623 45.7467 345.115 43.4676 341.998C41.4515 339.051 39.2271 336.252 36.8115 333.623C36.6023 333.4 36.2884 333.728 36.4846 333.963V333.989Z" fill="#92D0FF"/>
<path d="M48.9076 312.777C53.4354 317.737 57.1595 323.376 59.9445 329.488C62.6488 335.021 65.0413 340.7 67.1106 346.501C67.8429 348.49 68.536 350.492 69.2814 352.481C69.3991 352.821 69.9352 352.69 69.8306 352.337C68.4865 347.871 66.9152 343.477 65.123 339.172C62.6295 332.835 59.5657 326.738 55.9691 320.956C54.0498 317.861 51.7909 314.991 49.2345 312.398C49.1894 312.352 49.1283 312.327 49.0645 312.327C49.0007 312.327 48.9396 312.352 48.8945 312.398C48.8494 312.443 48.8241 312.504 48.8241 312.568C48.8241 312.632 48.8494 312.693 48.8945 312.738L48.9076 312.777Z" fill="#92D0FF"/>
<path d="M309.53 245.226H312.146" stroke="#B3D3F4" stroke-miterlimit="10"/>
<path d="M317.376 245.226H457.404C468.258 245.033 478.603 240.582 486.211 232.832C493.82 225.082 498.083 214.652 498.083 203.788C498.083 192.923 493.82 182.494 486.211 174.744C478.603 166.993 468.258 162.543 457.404 162.35H141.688C135.862 162.35 130.274 160.034 126.154 155.911C122.034 151.788 119.719 146.196 119.719 140.365C119.722 134.536 122.039 128.948 126.158 124.827C130.278 120.707 135.864 118.393 141.688 118.393H406.966C412.038 118.261 416.858 116.153 420.398 112.516C423.939 108.88 425.92 104.004 425.92 98.9269C425.92 93.8499 423.939 88.9736 420.398 85.3374C416.858 81.7012 412.038 79.5926 406.966 79.461H164.246C161.409 79.461 158.688 78.3332 156.682 76.3257C154.676 74.3182 153.549 71.5954 153.549 68.7564C153.549 65.9173 154.676 63.1946 156.682 61.1871C158.688 59.1796 161.409 58.0518 164.246 58.0518H229.63" stroke="#B3D3F4" stroke-miterlimit="10" stroke-dasharray="3.99 3.99"/>
<path d="M232.193 58.0518H234.809" stroke="#B3D3F4" stroke-miterlimit="10"/>
<path d="M251.534 23.438C246.8 22.6338 241.934 23.3649 237.644 25.5246C233.355 27.6843 229.868 31.1595 227.692 35.4429C225.516 39.7263 224.765 44.5936 225.549 49.3342C226.333 54.0749 228.611 58.4406 232.05 61.7941L229.003 67.9708L235.842 64.7908C238.666 66.5575 241.846 67.6757 245.154 68.065C248.462 68.4542 251.815 68.1048 254.971 67.0418C258.128 65.9789 261.01 64.2289 263.409 61.9178C265.809 59.6067 267.667 56.792 268.849 53.6762C270.032 50.5604 270.509 47.2211 270.247 43.8985C269.985 40.5759 268.991 37.3528 267.335 34.461C265.679 31.5693 263.403 29.0808 260.671 27.1748C257.939 25.2688 254.818 23.9926 251.534 23.438Z" fill="#F3FAFF"/>
<path d="M237.738 56.2458L235.41 53.4453C234.979 52.9296 234.77 52.2639 234.829 51.5941C234.888 50.9244 235.21 50.3053 235.724 49.8728L238.457 47.635C238.974 47.2052 239.641 46.9982 240.31 47.0595C240.979 47.1209 241.597 47.4455 242.027 47.9622C242.027 47.9622 243.27 49.8204 244.721 49.4933C246.382 49.1138 249.952 46.4834 251.9 44.455C253.208 43.0155 250.972 40.5291 250.972 40.5291C250.561 40.004 250.367 39.3419 250.427 38.678C250.488 38.0141 250.8 37.3984 251.299 36.9566L253.98 34.7188C254.504 34.3081 255.166 34.1132 255.829 34.174C256.493 34.2348 257.108 34.5467 257.55 35.046L259.877 37.8334C265.069 44.0886 242.302 61.729 237.738 56.2458Z" fill="#B3D3F4"/>
<path d="M349.689 57.6196C353.024 54.4135 354.41 51.0765 359 50.0819C359.954 49.9589 360.882 49.6804 361.746 49.2575C363.996 47.9227 363.525 44.6904 363.996 42.1647C364.989 37.2181 371.449 34.0904 376.183 36.2628C378.171 37.1788 379.976 38.88 382.172 38.7099C386.553 38.4089 386.03 32.9912 389.038 29.9028C392.046 26.8144 397.642 26.605 401.317 28.4502C403.836 29.6927 406.047 31.4808 407.79 33.6847C409.569 36.001 409.49 39.5736 410.811 42.1254C412.132 44.6773 415.074 45.6587 416.382 48.0928C416.973 49.0664 417.331 50.1635 417.429 51.2985C417.526 52.4335 417.36 53.5757 416.944 54.636C415.061 59.1377 409.569 62.3831 404.573 62.3831H337.253C337.253 62.3831 345.963 61.1922 349.689 57.6196Z" fill="#F3FAFF"/>
<path d="M188.347 25.6758C185.522 22.967 184.358 20.1796 180.501 19.3028C179.689 19.2053 178.901 18.9661 178.173 18.5961C176.277 17.4184 176.669 14.7357 176.237 12.6157C175.401 8.42805 169.947 5.78461 165.933 7.62978C164.259 8.40188 162.742 9.8152 160.885 9.69742C157.171 9.4357 157.616 4.85548 155.079 2.2513C152.542 -0.352879 147.808 -0.536087 144.696 1.02119C142.567 2.07995 140.699 3.59983 139.23 5.47054C137.765 7.35497 137.765 10.3779 136.654 12.5895C135.542 14.8011 133.044 15.5732 131.946 17.6277C131.442 18.4523 131.137 19.3831 131.055 20.3463C130.973 21.3095 131.117 22.2785 131.475 23.1763C133.058 26.9714 137.7 29.7195 141.937 29.7195H198.874C198.874 29.7195 191.485 28.6203 188.347 25.6758Z" fill="#F3FAFF"/>
<path d="M450.957 87.1291L411.386 65.9423L421.809 34.9932L469.958 59.9357L450.957 87.1291Z" fill="#CFE0F5"/>
<path d="M469.958 59.9363L421.809 34.9938L456.135 27.6523L469.958 59.9363Z" fill="#CFE0F5"/>
<path d="M466.296 54.9388L427.741 34.9648L410.883 67.5512L449.438 87.5252L466.296 54.9388Z" fill="#FC7561"/>
<path d="M421.809 34.9932L405.593 66.3218L437.2 64.2411L421.809 34.9932Z" fill="#E6F1FC"/>
<path d="M469.958 59.9355L453.755 91.2773L437.2 64.241L469.958 59.9355Z" fill="#E6F1FC"/>
<g style="mix-blend-mode:multiply">
<path d="M453.755 91.278L405.593 66.3224L442.209 54.7148L453.755 91.278Z" fill="#E6F1FC"/>
</g>
<path d="M453.755 91.2771L405.593 66.3215L439.92 58.9932L453.755 91.2771Z" fill="#E6F1FC"/>
<path d="M133.384 100.228L101.137 108.316L91.4598 86.1476L130.285 75.8486L133.384 100.228Z" fill="#CFE0F5"/>
<path d="M130.285 75.8488L91.4598 86.1477L106.642 65.0264L130.285 75.8488Z" fill="#CFE0F5"/>
<path d="M125.797 74.9242L94.7136 83.166L101.67 109.44L132.754 101.198L125.797 74.9242Z" fill="#FC7561"/>
<path d="M91.4598 86.1475L98.1552 111.404L114.449 94.5227L91.4598 86.1475Z" fill="#E6F1FC"/>
<path d="M130.285 75.8486L136.981 101.118L114.449 94.5228L130.285 75.8486Z" fill="#E6F1FC"/>
<g style="mix-blend-mode:multiply">
<path d="M136.981 101.118L98.1553 111.404L112.461 86.8018L136.981 101.118Z" fill="#E6F1FC"/>
</g>
<path d="M136.981 101.119L98.1553 111.405L113.338 90.2832L136.981 101.119Z" fill="#E6F1FC"/>
<path d="M289.274 69.6064L149.103 192.448V361.353H429.459V192.448L289.274 69.6064Z" fill="url(#paint7_linear_2967_2198)"/>
<path d="M415.283 112.817H163.265V343.922H415.283V112.817Z" fill="#FC7561"/>
<path d="M400.859 142.838H177.702V162.572H400.859V142.838Z" fill="white"/>
<path d="M400.859 171.824H177.702V191.558H400.859V171.824Z" fill="white"/>
<path d="M400.859 200.797H177.702V318.142H400.859V200.797Z" fill="white"/>
<path d="M189.259 153.078H188.105L186.242 149.838H186.215C186.253 150.41 186.271 150.818 186.271 151.062V153.078H185.46V148.795H186.605L188.465 152.003H188.486C188.457 151.446 188.442 151.053 188.442 150.822V148.795H189.259V153.078ZM192.963 153.078L192.652 152.059H191.09L190.78 153.078H189.801L191.313 148.777H192.423L193.941 153.078H192.963ZM192.435 151.297C192.148 150.373 191.986 149.851 191.949 149.729C191.914 149.608 191.888 149.513 191.873 149.442C191.808 149.692 191.624 150.311 191.319 151.297H192.435ZM196.297 153.078L195.265 149.718H195.239C195.276 150.401 195.295 150.857 195.295 151.086V153.078H194.483V148.795H195.719L196.733 152.07H196.751L197.826 148.795H199.062V153.078H198.215V151.051C198.215 150.955 198.216 150.845 198.218 150.72C198.222 150.595 198.236 150.263 198.259 149.724H198.233L197.129 153.078H196.297ZM202.61 153.078H200.143V148.795H202.61V149.539H201.051V150.479H202.502V151.224H201.051V152.328H202.61V153.078Z" fill="#454545"/>
<path d="M187.926 182.731H185.46V178.448H187.926V179.192H186.368V180.133H187.818V180.877H186.368V181.981H187.926V182.731ZM190.636 182.731L189.605 179.371H189.579C189.616 180.055 189.634 180.511 189.634 180.739V182.731H188.823V178.448H190.059L191.073 181.724H191.09L192.166 178.448H193.402V182.731H192.555V180.704C192.555 180.608 192.556 180.498 192.558 180.373C192.562 180.248 192.576 179.916 192.599 179.377H192.573L191.468 182.731H190.636ZM197.105 182.731L196.795 181.712H195.233L194.922 182.731H193.944L195.456 178.431H196.566L198.084 182.731H197.105ZM196.578 180.95C196.291 180.026 196.129 179.504 196.091 179.383C196.056 179.262 196.031 179.166 196.015 179.096C195.951 179.346 195.766 179.964 195.462 180.95H196.578ZM198.626 182.731V178.448H199.534V182.731H198.626ZM200.612 182.731V178.448H201.52V181.981H203.257V182.731H200.612Z" fill="#454545"/>
<path d="M187.273 211.691L186.242 208.331H186.215C186.253 209.015 186.271 209.471 186.271 209.699V211.691H185.46V207.408H186.696L187.71 210.684H187.727L188.802 207.408H190.039V211.691H189.192V209.664C189.192 209.568 189.193 209.458 189.195 209.333C189.199 209.208 189.213 208.876 189.236 208.337H189.21L188.105 211.691H187.273ZM193.587 211.691H191.12V207.408H193.587V208.152H192.028V209.093H193.478V209.837H192.028V210.941H193.587V211.691ZM197.011 210.502C197.011 210.889 196.872 211.193 196.592 211.416C196.315 211.639 195.928 211.75 195.432 211.75C194.975 211.75 194.571 211.664 194.219 211.492V210.648C194.508 210.777 194.753 210.868 194.952 210.921C195.153 210.974 195.337 211 195.503 211C195.702 211 195.854 210.962 195.96 210.886C196.067 210.81 196.121 210.696 196.121 210.546C196.121 210.462 196.097 210.388 196.05 210.323C196.004 210.257 195.934 210.193 195.842 210.133C195.753 210.072 195.568 209.976 195.289 209.843C195.027 209.72 194.831 209.602 194.7 209.488C194.569 209.375 194.464 209.243 194.386 209.093C194.308 208.942 194.269 208.767 194.269 208.565C194.269 208.187 194.397 207.889 194.653 207.672C194.911 207.455 195.266 207.347 195.719 207.347C195.942 207.347 196.154 207.373 196.355 207.426C196.558 207.479 196.77 207.553 196.991 207.648L196.698 208.354C196.469 208.261 196.28 208.195 196.13 208.158C195.981 208.121 195.835 208.103 195.69 208.103C195.518 208.103 195.386 208.143 195.295 208.223C195.203 208.303 195.157 208.407 195.157 208.536C195.157 208.616 195.175 208.687 195.213 208.747C195.25 208.806 195.308 208.863 195.388 208.92C195.47 208.975 195.663 209.074 195.965 209.219C196.366 209.41 196.64 209.603 196.789 209.796C196.937 209.987 197.011 210.223 197.011 210.502ZM200.41 211.691L200.099 210.672H198.538L198.227 211.691H197.249L198.76 207.391H199.871L201.388 211.691H200.41ZM199.882 209.91C199.595 208.986 199.433 208.464 199.396 208.343C199.361 208.222 199.336 208.126 199.32 208.056C199.255 208.306 199.071 208.924 198.766 209.91H199.882ZM203.556 209.286H205.255V211.507C204.98 211.597 204.72 211.659 204.476 211.694C204.234 211.731 203.986 211.75 203.732 211.75C203.086 211.75 202.591 211.561 202.25 211.182C201.91 210.801 201.74 210.255 201.74 209.544C201.74 208.853 201.937 208.313 202.332 207.927C202.728 207.54 203.277 207.347 203.978 207.347C204.418 207.347 204.841 207.435 205.25 207.61L204.948 208.337C204.635 208.181 204.31 208.103 203.972 208.103C203.58 208.103 203.265 208.234 203.029 208.498C202.793 208.762 202.674 209.116 202.674 209.562C202.674 210.026 202.769 210.382 202.959 210.628C203.15 210.872 203.427 210.994 203.791 210.994C203.98 210.994 204.172 210.975 204.368 210.936V210.042H203.556V209.286ZM208.745 211.691H206.278V207.408H208.745V208.152H207.186V209.093H208.636V209.837H207.186V210.941H208.745V211.691Z" fill="#454545"/>
<path d="M255.359 125.373C254.847 125.373 254.45 125.566 254.169 125.953C253.887 126.336 253.747 126.873 253.747 127.561C253.747 128.994 254.284 129.71 255.359 129.71C255.811 129.71 256.357 129.597 256.999 129.372V130.514C256.471 130.734 255.882 130.844 255.232 130.844C254.297 130.844 253.583 130.561 253.088 129.996C252.592 129.427 252.345 128.613 252.345 127.552C252.345 126.884 252.466 126.3 252.71 125.799C252.953 125.295 253.301 124.91 253.755 124.643C254.213 124.374 254.747 124.239 255.359 124.239C255.984 124.239 256.61 124.39 257.24 124.691L256.801 125.799C256.561 125.685 256.319 125.585 256.076 125.5C255.833 125.415 255.594 125.373 255.359 125.373ZM264.201 127.535C264.201 128.598 263.938 129.416 263.41 129.987C262.883 130.558 262.127 130.844 261.143 130.844C260.158 130.844 259.402 130.558 258.875 129.987C258.348 129.416 258.084 128.595 258.084 127.526C258.084 126.457 258.348 125.641 258.875 125.078C259.405 124.513 260.164 124.23 261.151 124.23C262.139 124.23 262.893 124.514 263.415 125.083C263.939 125.651 264.201 126.468 264.201 127.535ZM259.512 127.535C259.512 128.252 259.649 128.793 259.921 129.156C260.193 129.52 260.601 129.701 261.143 129.701C262.23 129.701 262.773 128.979 262.773 127.535C262.773 126.087 262.233 125.364 261.151 125.364C260.609 125.364 260.201 125.547 259.925 125.913C259.65 126.276 259.512 126.817 259.512 127.535ZM271.233 130.756H269.501L266.706 125.896H266.667C266.722 126.754 266.75 127.366 266.75 127.732V130.756H265.533V124.331H267.251L270.042 129.143H270.072C270.028 128.308 270.006 127.718 270.006 127.372V124.331H271.233V130.756ZM275.333 130.756H273.97V125.465H272.226V124.331H277.077V125.465H275.333V130.756ZM281.999 130.756L281.533 129.227H279.191L278.725 130.756H277.257L279.525 124.305H281.191L283.467 130.756H281.999ZM281.208 128.084C280.777 126.698 280.534 125.915 280.479 125.733C280.426 125.551 280.388 125.408 280.364 125.302C280.268 125.677 279.991 126.604 279.534 128.084H281.208ZM287.009 125.373C286.496 125.373 286.099 125.566 285.818 125.953C285.537 126.336 285.396 126.873 285.396 127.561C285.396 128.994 285.934 129.71 287.009 129.71C287.46 129.71 288.006 129.597 288.648 129.372V130.514C288.121 130.734 287.532 130.844 286.881 130.844C285.947 130.844 285.232 130.561 284.737 129.996C284.242 129.427 283.994 128.613 283.994 127.552C283.994 126.884 284.116 126.3 284.359 125.799C284.602 125.295 284.951 124.91 285.405 124.643C285.862 124.374 286.397 124.239 287.009 124.239C287.633 124.239 288.26 124.39 288.89 124.691L288.45 125.799C288.21 125.685 287.968 125.585 287.725 125.5C287.482 125.415 287.243 125.373 287.009 125.373ZM292.498 130.756H291.135V125.465H289.391V124.331H294.242V125.465H292.498V130.756ZM302.798 124.331V128.488C302.798 128.963 302.692 129.379 302.478 129.736C302.267 130.094 301.961 130.368 301.559 130.558C301.158 130.749 300.683 130.844 300.135 130.844C299.309 130.844 298.668 130.633 298.211 130.211C297.754 129.786 297.525 129.206 297.525 128.471V124.331H298.883V128.264C298.883 128.759 298.983 129.123 299.182 129.354C299.381 129.585 299.711 129.701 300.171 129.701C300.616 129.701 300.938 129.585 301.137 129.354C301.339 129.12 301.441 128.753 301.441 128.255V124.331H302.798ZM308.164 128.972C308.164 129.552 307.955 130.009 307.536 130.343C307.12 130.677 306.54 130.844 305.796 130.844C305.11 130.844 304.504 130.715 303.976 130.457V129.191C304.41 129.385 304.776 129.521 305.075 129.6C305.377 129.679 305.652 129.719 305.901 129.719C306.2 129.719 306.428 129.662 306.587 129.547C306.748 129.433 306.828 129.263 306.828 129.038C306.828 128.912 306.793 128.8 306.723 128.704C306.652 128.604 306.548 128.509 306.411 128.418C306.276 128.327 305.999 128.182 305.58 127.983C305.188 127.798 304.893 127.621 304.697 127.451C304.501 127.281 304.344 127.083 304.227 126.858C304.109 126.632 304.051 126.369 304.051 126.067C304.051 125.499 304.243 125.052 304.627 124.727C305.013 124.401 305.547 124.239 306.226 124.239C306.56 124.239 306.878 124.278 307.18 124.357C307.484 124.437 307.802 124.548 308.133 124.691L307.694 125.75C307.351 125.61 307.067 125.512 306.841 125.456C306.619 125.4 306.399 125.373 306.182 125.373C305.924 125.373 305.727 125.433 305.589 125.553C305.451 125.673 305.382 125.83 305.382 126.023C305.382 126.143 305.41 126.249 305.466 126.339C305.522 126.427 305.609 126.514 305.73 126.599C305.853 126.681 306.141 126.83 306.595 127.047C307.196 127.334 307.608 127.623 307.83 127.913C308.053 128.2 308.164 128.553 308.164 128.972Z" fill="white"/>
<g style="mix-blend-mode:multiply" opacity="0.55">
<path d="M289.274 299.678L149.103 192.448V343.923H429.459V192.448L289.274 299.678Z" fill="#C9D3F4"/>
</g>
<path d="M289.274 317.135L149.103 192.448V361.354H429.459V192.448L289.274 317.135Z" fill="url(#paint8_linear_2967_2198)"/>
<g style="mix-blend-mode:multiply" opacity="0.35">
<path d="M289.274 229.103L149.103 361.353H429.459L289.274 229.103Z" fill="#C9D3F4"/>
</g>
<path d="M289.274 241.993L149.103 361.354H429.459L289.274 241.993Z" fill="url(#paint9_linear_2967_2198)"/>
<path d="M380.996 369.545C378.158 354.758 381.126 339.551 387.037 326.91C390.895 318.626 399.8 307.097 409.726 307.28C417.114 307.424 420.187 314.844 420.645 321.531C421.756 339.067 413.531 344.419 413.57 363.408C413.989 356.223 420.919 332.917 431.76 340.86C442.379 348.712 432.035 369.571 432.035 369.571" fill="url(#paint10_linear_2967_2198)"/>
<path d="M428.674 345.349C426.497 348.811 424.603 352.443 423.012 356.211C421.103 360.413 419.998 364.936 419.756 369.546C419.756 369.86 420.266 369.951 420.318 369.624C420.915 365.147 422.035 360.755 423.653 356.538C425.197 352.761 427.011 349.101 429.079 345.585C429.104 345.531 429.108 345.471 429.09 345.415C429.073 345.359 429.035 345.311 428.984 345.282C428.933 345.252 428.873 345.243 428.816 345.255C428.759 345.268 428.708 345.301 428.674 345.349Z" fill="#92D0FF"/>
<path d="M408.902 317.92C404.377 324.215 401.866 331.857 399.905 339.277C398.024 346.597 396.6 354.027 395.642 361.524C395.289 364.141 394.988 366.837 394.792 369.493C394.792 369.807 395.302 369.899 395.341 369.572C396.126 363.997 396.766 358.409 397.734 352.861C399.003 344.87 400.999 337.011 403.697 329.384C405.086 325.407 406.971 321.621 409.307 318.116C409.477 317.868 409.072 317.632 408.902 317.868V317.92Z" fill="#92D0FF"/>
<path d="M349.349 46.2342L342.811 48.9823C342.645 49.0548 342.5 49.168 342.39 49.3115C342.28 49.455 342.208 49.6241 342.18 49.803C342.153 49.982 342.171 50.1649 342.233 50.3349C342.296 50.5048 342.4 50.6563 342.536 50.7751L347.244 54.8319C347.38 54.9486 347.544 55.0287 347.72 55.0648C347.896 55.1008 348.078 55.0916 348.249 55.038C348.42 54.9843 348.575 54.8881 348.699 54.7582C348.823 54.6283 348.912 54.469 348.957 54.2953L350.827 47.4904C350.88 47.2941 350.876 47.0868 350.815 46.8927C350.755 46.6985 350.641 46.5256 350.486 46.394C350.331 46.2623 350.142 46.1774 349.941 46.1491C349.74 46.1208 349.535 46.1503 349.349 46.2342V46.2342Z" stroke="#CFE0F5" stroke-miterlimit="10"/>
<path d="M66.9276 132.094L68.8499 138.952C68.8982 139.127 68.9907 139.287 69.1186 139.416C69.2464 139.545 69.4053 139.639 69.58 139.689C69.7546 139.739 69.9392 139.743 70.1159 139.701C70.2926 139.659 70.4556 139.572 70.5891 139.449L75.1922 135.274C75.3245 135.152 75.424 134.999 75.4816 134.829C75.5392 134.658 75.553 134.476 75.5217 134.298C75.4904 134.121 75.4151 133.955 75.3027 133.814C75.1903 133.674 75.0443 133.564 74.8783 133.495L68.3399 130.877C68.1614 130.809 67.9679 130.791 67.7797 130.823C67.5916 130.856 67.4159 130.94 67.2711 131.064C67.1264 131.189 67.0181 131.351 66.9576 131.532C66.8971 131.713 66.8867 131.908 66.9276 132.094V132.094Z" stroke="#CFE0F5" stroke-miterlimit="10"/>
<path d="M484.839 214.446L489.887 209.421C490.017 209.293 490.112 209.134 490.163 208.958C490.214 208.783 490.218 208.597 490.176 208.419C490.134 208.242 490.047 208.078 489.923 207.944C489.799 207.81 489.642 207.71 489.469 207.654L483.584 205.678C483.413 205.622 483.232 205.61 483.055 205.643C482.879 205.676 482.713 205.752 482.574 205.865C482.435 205.979 482.326 206.125 482.258 206.291C482.19 206.458 482.165 206.638 482.185 206.817L483.035 213.818C483.057 214.017 483.135 214.205 483.26 214.361C483.384 214.517 483.551 214.635 483.739 214.701C483.928 214.766 484.131 214.777 484.326 214.732C484.521 214.687 484.699 214.588 484.839 214.446V214.446Z" stroke="#CFE0F5" stroke-miterlimit="10"/>
<path d="M461.196 136.569L463.053 143.44C463.099 143.615 463.189 143.775 463.315 143.905C463.44 144.035 463.597 144.131 463.77 144.184C463.943 144.236 464.127 144.244 464.303 144.205C464.48 144.166 464.644 144.083 464.779 143.963L469.422 139.828C469.558 139.71 469.662 139.558 469.723 139.389C469.785 139.219 469.802 139.036 469.773 138.858C469.744 138.68 469.671 138.512 469.559 138.37C469.447 138.228 469.301 138.118 469.134 138.048L462.595 135.313C462.414 135.245 462.217 135.228 462.027 135.263C461.836 135.299 461.659 135.387 461.515 135.516C461.37 135.646 461.264 135.812 461.208 135.998C461.152 136.184 461.148 136.382 461.196 136.569V136.569Z" stroke="#CFE0F5" stroke-miterlimit="10"/>
<path d="M439.473 122.459L436.241 124.931L438.711 128.164L441.942 125.693L439.473 122.459Z" fill="#CFE0F5"/>
<path d="M410.133 94.5035L406.071 94.6846L406.251 98.7504L410.314 98.5693L410.133 94.5035Z" fill="#CFE0F5"/>
<path d="M148.702 147.261L144.912 148.738L146.389 152.53L150.178 151.053L148.702 147.261Z" fill="#CFE0F5"/>
<path d="M188.308 49.6829L184.526 48.2178L183.062 52.0027L186.844 53.4679L188.308 49.6829Z" fill="#CFE0F5"/>
<path d="M29.0998 251.337L25.0369 251.519L25.2178 255.584L29.2807 255.403L29.0998 251.337Z" fill="#CFE0F5"/>
</g>
<defs>
<linearGradient id="paint0_linear_2967_2198" x1="265.527" y1="397.013" x2="265.527" y2="352.441" gradientUnits="userSpaceOnUse">
<stop offset="0.01" stop-color="#FCF5F1"/>
<stop offset="0.48" stop-color="#FCEFED"/>
<stop offset="1" stop-color="#FCE1E3"/>
</linearGradient>
<linearGradient id="paint1_linear_2967_2198" x1="436.912" y1="352.441" x2="436.912" y2="188.614" gradientUnits="userSpaceOnUse">
<stop stop-color="#466DE5"/>
<stop offset="1" stop-color="#78BFFF"/>
</linearGradient>
<linearGradient id="paint2_linear_2967_2198" x1="467.499" y1="352.441" x2="467.499" y2="238.172" gradientUnits="userSpaceOnUse">
<stop stop-color="#466DE5"/>
<stop offset="1" stop-color="#78BFFF"/>
</linearGradient>
<linearGradient id="paint3_linear_2967_2198" x1="184.45" y1="324.987" x2="109.4" y2="249.991" gradientUnits="userSpaceOnUse">
<stop stop-color="#466DE5"/>
<stop offset="1" stop-color="#78BFFF"/>
</linearGradient>
<linearGradient id="paint4_linear_2967_2198" x1="76.8399" y1="352.441" x2="76.8399" y2="211.554" gradientUnits="userSpaceOnUse">
<stop stop-color="#466DE5"/>
<stop offset="1" stop-color="#78BFFF"/>
</linearGradient>
<linearGradient id="paint5_linear_2967_2198" x1="47.0856" y1="350.553" x2="52.6362" y2="267.484" gradientUnits="userSpaceOnUse">
<stop stop-color="#466DE5"/>
<stop offset="1" stop-color="#78BFFF"/>
</linearGradient>
<linearGradient id="paint6_linear_2967_2198" x1="44.37" y1="356.407" x2="68.3266" y2="314.964" gradientUnits="userSpaceOnUse">
<stop stop-color="#466DE5"/>
<stop offset="1" stop-color="#78BFFF"/>
</linearGradient>
<linearGradient id="paint7_linear_2967_2198" x1="360.87" y1="400.978" x2="199.405" y2="121.529" gradientUnits="userSpaceOnUse">
<stop stop-color="#B3D3F4"/>
<stop offset="1" stop-color="#D3DCED"/>
</linearGradient>
<linearGradient id="paint8_linear_2967_2198" x1="360.87" y1="400.979" x2="217.536" y2="152.899" gradientUnits="userSpaceOnUse">
<stop stop-color="#CDE8FF"/>
<stop offset="1" stop-color="#EEE7E9"/>
</linearGradient>
<linearGradient id="paint9_linear_2967_2198" x1="359.366" y1="431.483" x2="219.094" y2="291.312" gradientUnits="userSpaceOnUse">
<stop stop-color="#CDE8FF"/>
<stop offset="1" stop-color="#EEE7E9"/>
</linearGradient>
<linearGradient id="paint10_linear_2967_2198" x1="424.54" y1="373.824" x2="387.865" y2="318.068" gradientUnits="userSpaceOnUse">
<stop stop-color="#466DE5"/>
<stop offset="1" stop-color="#78BFFF"/>
</linearGradient>
<clipPath id="clip0_2967_2198">
<rect width="512" height="397" fill="white"/>
</clipPath>
</defs>
</svg>
