<svg xmlns="http://www.w3.org/2000/svg" width="93" height="43.095" viewBox="0 0 93 43.095">
  <g id="Kriptomat-Website" transform="translate(-200 -299.2)">
    <g id="Homepage" transform="translate(200 299.2)">
      <g id="Footer" transform="translate(0 0)">
        <g id="Group-22" transform="translate(0 0)">
          <g id="Group_1" data-name="Group 1" transform="translate(0 0)">
            <g id="Group-28" transform="translate(0 0)">
              <g id="BV_Certification_ISO_27001">
                <path id="Fill-1" d="M199,409.749h93V377.9H199Z" transform="translate(-199 -372.27)" fill="#c11e43" fill-rule="evenodd"/>
                <path id="Fill-2" d="M248.6,462.192h.773V458.4H248.6Z" transform="translate(-245.052 -447.011)" fill="#fffffe" fill-rule="evenodd"/>
                <path id="Fill-3" d="M269.174,458.738v-.114a.75.75,0,0,0-.079-.429.3.3,0,0,0-.279-.122.374.374,0,0,0-.3.114.531.531,0,0,0-.1.343.41.41,0,0,0,.122.3,1.376,1.376,0,0,0,.408.265,2.567,2.567,0,0,1,.808.537.906.906,0,0,1,.229.637,1.137,1.137,0,0,1-.293.851,1.265,1.265,0,0,1-.894.286,1.33,1.33,0,0,1-.923-.258,1.1,1.1,0,0,1-.272-.83v-.15h.765v.114a.671.671,0,0,0,.1.415.379.379,0,0,0,.322.136.4.4,0,0,0,.315-.122.563.563,0,0,0,.107-.372.46.46,0,0,0-.129-.322,1.431,1.431,0,0,0-.444-.286,2.235,2.235,0,0,1-.773-.515.885.885,0,0,1-.222-.622,1.078,1.078,0,0,1,.293-.823,1.263,1.263,0,0,1,.894-.272,1.192,1.192,0,0,1,.866.258,1.093,1.093,0,0,1,.236.78v.2h-.758" transform="translate(-262.693 -446.175)" fill="#fffffe" fill-rule="evenodd"/>
                <path id="Fill-4" d="M311.2,460.783a1.177,1.177,0,0,0,.086-.537v-1.56a.593.593,0,0,0-.107-.386.37.37,0,0,0-.3-.129.351.351,0,0,0-.3.129.594.594,0,0,0-.1.386v1.56a1.176,1.176,0,0,0,.086.537.333.333,0,0,0,.315.15A.346.346,0,0,0,311.2,460.783Zm-1.238.429a1.465,1.465,0,0,1-.265-.994v-1.56a1.031,1.031,0,0,1,.293-.794,1.619,1.619,0,0,1,1.774,0,1.006,1.006,0,0,1,.293.794v1.56a1.453,1.453,0,0,1-.265.994,1.211,1.211,0,0,1-.916.293,1.241,1.241,0,0,1-.916-.293Z" transform="translate(-301.781 -446.268)" fill="#fffffe" fill-rule="evenodd"/>
                <path id="Fill-5" d="M371.11,459.287a2.017,2.017,0,0,1-.329,1.073,9.43,9.43,0,0,1-1.059,1.309h1.4v.522H369.1v-.637a9.738,9.738,0,0,0,.987-1.366,1.971,1.971,0,0,0,.3-.923.472.472,0,0,0-.064-.279.251.251,0,0,0-.215-.086.231.231,0,0,0-.229.122.542.542,0,0,0-.043.358v.114h-.7v-.114a.857.857,0,0,1,.193-.737,1.088,1.088,0,0,1,.794-.243,1.071,1.071,0,0,1,.751.215.814.814,0,0,1,.236.672" transform="translate(-356.931 -447.011)" fill="#fffffe" fill-rule="evenodd"/>
                <path id="Fill-6" d="M405.7,462.192l1.03-3.212.014-.05H405.4V458.4h2v.579l-.937,3.212H405.7" transform="translate(-390.634 -447.011)" fill="#fffffe" fill-rule="evenodd"/>
                <path id="Fill-7" d="M443.6,461.041a2.1,2.1,0,0,0,.057-.63v-1.517a1.116,1.116,0,0,0-.064-.465.268.268,0,0,0-.258-.122.263.263,0,0,0-.25.122,1.14,1.14,0,0,0-.064.465v1.517a2.147,2.147,0,0,0,.057.622c.036.093.122.136.265.136S443.566,461.127,443.6,461.041Zm-1.059.393a1.123,1.123,0,0,1-.243-.816v-1.746a1.154,1.154,0,0,1,.243-.823,1.04,1.04,0,0,1,.787-.25,1.059,1.059,0,0,1,.787.25,1.135,1.135,0,0,1,.243.816v1.746a1.124,1.124,0,0,1-.243.816,1.07,1.07,0,0,1-.787.25,1,1,0,0,1-.787-.243Z" transform="translate(-424.895 -446.454)" fill="#fffffe" fill-rule="evenodd"/>
                <path id="Fill-8" d="M480.5,461.041a2.1,2.1,0,0,0,.057-.63v-1.517a1.116,1.116,0,0,0-.064-.465.268.268,0,0,0-.258-.122.263.263,0,0,0-.25.122,1.139,1.139,0,0,0-.064.465v1.517a2.146,2.146,0,0,0,.057.622c.036.093.122.136.265.136S480.466,461.127,480.5,461.041Zm-1.059.393a1.123,1.123,0,0,1-.243-.816v-1.746a1.154,1.154,0,0,1,.243-.823,1.048,1.048,0,0,1,.794-.25,1.059,1.059,0,0,1,.787.25,1.135,1.135,0,0,1,.243.816v1.746a1.124,1.124,0,0,1-.243.816,1.07,1.07,0,0,1-.787.25,1.01,1.01,0,0,1-.794-.243Z" transform="translate(-459.155 -446.454)" fill="#fffffe" fill-rule="evenodd"/>
                <path id="Fill-9" d="M520.937,459.323l-.1.107a1.587,1.587,0,0,1-.436.293v-.615a1.783,1.783,0,0,0,.343-.258A1.648,1.648,0,0,0,521,458.5h.644v3.777h-.715v-2.955" transform="translate(-497.408 -447.104)" fill="#fffffe" fill-rule="evenodd"/>
                <path id="Fill-10" d="M250.716,603.213H251a.643.643,0,0,0,.494-.143.912.912,0,0,0,.122-.579v.093a.778.778,0,0,0-.129-.529.794.794,0,0,0-.537-.122h-.243v1.281Zm0-1.953h.186a.779.779,0,0,0,.544-.136.769.769,0,0,0,.136-.537v.086a.64.64,0,0,0-.136-.479.7.7,0,0,0-.494-.129h-.236v1.195Zm-.916-1.86h1.359a1.639,1.639,0,0,1,1.052.243,1.2,1.2,0,0,1,.279.923v-.086a1.131,1.131,0,0,1-.3.923,1.2,1.2,0,0,1-.572.2,1.314,1.314,0,0,1,.615.207,1.078,1.078,0,0,1,.315.9v-.093a1.324,1.324,0,0,1-.3,1.016,1.865,1.865,0,0,1-1.166.265H249.8v-4.5Z" transform="translate(-246.166 -577.924)" fill="#fffffe" fill-rule="evenodd"/>
                <path id="Fill-11" d="M301.261,602.534a1.321,1.321,0,0,1-.343.994,1.8,1.8,0,0,1-2.075,0,1.321,1.321,0,0,1-.343-.994V599.3h.909v3.291a.752.752,0,0,0,.107.465.6.6,0,0,0,.744,0,.759.759,0,0,0,.1-.465V599.3h.909v3.234" transform="translate(-291.382 -577.831)" fill="#fffffe" fill-rule="evenodd"/>
                <path id="Fill-12" d="M349.316,601.367h.258a.642.642,0,0,0,.472-.129.827.827,0,0,0,.122-.529.727.727,0,0,0-.129-.5.663.663,0,0,0-.472-.136h-.258v1.295ZM348.4,599.4h1.352a1.576,1.576,0,0,1,1.03.265,1.128,1.128,0,0,1,.308.894,1.183,1.183,0,0,1-.315.959,1.112,1.112,0,0,1-.479.193h.05a.669.669,0,0,1,.565.243,1.046,1.046,0,0,1,.172.708c-.007.172-.007.358-.007.544s.014.343.021.443a1.181,1.181,0,0,0,.036.229h-.916a.792.792,0,0,1-.029-.222c-.007-.1-.007-.25-.007-.451v-.544a.614.614,0,0,0-.129-.472.623.623,0,0,0-.465-.136h-.265v1.831H348.4V599.4Z" transform="translate(-337.712 -577.924)" fill="#fffffe" fill-rule="evenodd"/>
                <path id="Fill-13" d="M396.1,603.885V599.4h2.246v.665h-1.331v1.188H398.3v.672h-1.281v1.295h1.352v.665H396.1" transform="translate(-382 -577.924)" fill="#fffffe" fill-rule="evenodd"/>
                <path id="Fill-14" d="M436.7,602.247h.737l-.365-2.01h0Zm-.179-2.847h1.08l1.016,4.493h-.887l-.179-.973h-.98l-.186.973H435.5l1.023-4.493Z" transform="translate(-418.581 -577.924)" fill="#fffffe" fill-rule="evenodd"/>
                <path id="Fill-15" d="M491.061,602.534a1.321,1.321,0,0,1-.343.994,1.8,1.8,0,0,1-2.075,0,1.321,1.321,0,0,1-.343-.994V599.3h.909v3.291a.813.813,0,0,0,.1.465.6.6,0,0,0,.744,0,.752.752,0,0,0,.107-.465V599.3h.909v3.234" transform="translate(-467.604 -577.831)" fill="#fffffe" fill-rule="evenodd"/>
                <path id="Fill-16" d="M555.4,599.4h.916l.622,3.484h0l.6-3.484h.88l-.973,4.485h-1.073L555.4,599.4" transform="translate(-529.904 -577.924)" fill="#fffffe" fill-rule="evenodd"/>
                <path id="Fill-17" d="M606,603.885V599.4h2.246v.665h-1.323v1.188H608.2v.672h-1.281v1.295h1.345v.665H606" transform="translate(-576.884 -577.924)" fill="#fffffe" fill-rule="evenodd"/>
                <path id="Fill-18" d="M648.223,601.367h.258a.643.643,0,0,0,.472-.129.827.827,0,0,0,.122-.529.727.727,0,0,0-.129-.5.663.663,0,0,0-.472-.136h-.258v1.295ZM647.3,599.4h1.352a1.576,1.576,0,0,1,1.03.265,1.128,1.128,0,0,1,.308.894,1.183,1.183,0,0,1-.315.959,1.113,1.113,0,0,1-.479.193h.05a.669.669,0,0,1,.565.243,1.046,1.046,0,0,1,.172.708c-.007.172-.007.358-.007.544s.007.343.021.443a1.183,1.183,0,0,0,.036.229h-.916a.793.793,0,0,1-.029-.222c-.007-.1-.007-.25-.007-.451v-.544a.614.614,0,0,0-.129-.472.623.623,0,0,0-.465-.136h-.265v1.831H647.3V599.4Z" transform="translate(-615.229 -577.924)" fill="#fffffe" fill-rule="evenodd"/>
                <path id="Fill-19" d="M694.4,603.885h.923V599.4H694.4Z" transform="translate(-658.96 -577.924)" fill="#fffffe" fill-rule="evenodd"/>
                <path id="Fill-20" d="M716.173,600.065H715.2V599.4h2.854v.665h-.966v3.82h-.916v-3.82" transform="translate(-678.272 -577.924)" fill="#fffffe" fill-rule="evenodd"/>
                <path id="Fill-21" d="M762.595,602.247h.737l-.365-2.01h0Zm-.172-2.847h1.08l1.016,4.493h-.887l-.179-.973h-.98l-.186.973H761.4l1.023-4.493Z" transform="translate(-721.167 -577.924)" fill="#fffffe" fill-rule="evenodd"/>
                <path id="Fill-22" d="M814.846,600.045v-.136a.963.963,0,0,0-.086-.5.36.36,0,0,0-.336-.143.429.429,0,0,0-.351.136.616.616,0,0,0-.114.408.5.5,0,0,0,.143.358,1.67,1.67,0,0,0,.486.315,3.015,3.015,0,0,1,.959.637,1.086,1.086,0,0,1,.272.758,1.32,1.32,0,0,1-.351,1.009,1.492,1.492,0,0,1-1.059.336,1.557,1.557,0,0,1-1.087-.3,1.293,1.293,0,0,1-.322-.98v-.172h.909v.136a.733.733,0,0,0,.122.486.467.467,0,0,0,.386.165.475.475,0,0,0,.379-.15.657.657,0,0,0,.122-.444.53.53,0,0,0-.15-.379,1.68,1.68,0,0,0-.522-.336,2.828,2.828,0,0,1-.916-.608,1.094,1.094,0,0,1-.265-.737,1.273,1.273,0,0,1,.351-.98,1.524,1.524,0,0,1,1.059-.322,1.41,1.41,0,0,1,1.023.3,1.3,1.3,0,0,1,.279.923v.236h-.93" transform="translate(-769.075 -577.181)" fill="#fffffe" fill-rule="evenodd"/>
                <path id="Fill-23" d="M250.861,692.518v.122a1.434,1.434,0,0,1-.265,1.009,1.22,1.22,0,0,1-.93.3,1.236,1.236,0,0,1-.98-.329,1.738,1.738,0,0,1-.286-1.123v-1.238a1.718,1.718,0,0,1,.286-1.13,1.251,1.251,0,0,1,.98-.329,1.024,1.024,0,0,1,1.166,1.152v.2h-.816v-.122a.952.952,0,0,0-.079-.472.276.276,0,0,0-.265-.157.355.355,0,0,0-.336.179,1.2,1.2,0,0,0-.1.579V692.4a1.914,1.914,0,0,0,.093.73.35.35,0,0,0,.343.207.3.3,0,0,0,.286-.179,1.058,1.058,0,0,0,.086-.529V692.5h.816" transform="translate(-244.866 -661.857)" fill="#fffffe" fill-rule="evenodd"/>
                <path id="Fill-24" d="M290.338,708.159V708a1.021,1.021,0,0,0-.064-.444.247.247,0,0,0-.236-.122.239.239,0,0,0-.236.143,1.475,1.475,0,0,0-.064.536v.043Zm-.365,1.76a.957.957,0,0,1-.744-.258,1.259,1.259,0,0,1-.229-.837v-.551a1.641,1.641,0,0,1,.229-.987.975.975,0,0,1,.8-.286,1.057,1.057,0,0,1,.816.25,1.486,1.486,0,0,1,.215.937v.408H289.73v.086a2.334,2.334,0,0,0,.057.644.23.23,0,0,0,.243.157.262.262,0,0,0,.243-.114.718.718,0,0,0,.057-.372v-.086h.737V709a.838.838,0,0,1-.265.694,1.276,1.276,0,0,1-.83.229Z" transform="translate(-282.562 -677.827)" fill="#fffffe" fill-rule="evenodd"/>
                <path id="Fill-25" d="M325.4,707.057h.7v.365h0c.029-.05.057-.1.086-.143a.878.878,0,0,1,.665-.279v.63a1.074,1.074,0,0,0-.157-.014.522.522,0,0,0-.444.157.843.843,0,0,0-.114.544v1.545H325.4v-2.8" transform="translate(-316.358 -677.827)" fill="#fffffe" fill-rule="evenodd"/>
                <path id="Fill-26" d="M351,700.784a3.32,3.32,0,0,1-.494.036.669.669,0,0,1-.529-.207.95.95,0,0,1-.179-.622v-1.538H349.4v-.494h.393v-.451l.737-.308v.758h.458v.494h-.458v1.538a.532.532,0,0,0,.043.265.215.215,0,0,0,.186.064,1.085,1.085,0,0,0,.229-.021v.486" transform="translate(-338.641 -668.728)" fill="#fffffe" fill-rule="evenodd"/>
                <path id="Fill-27" d="M378.007,695.192h.737v-2.8h-.737ZM378,691.865h.744V691.2H378Z" transform="translate(-365.195 -663.157)" fill="#fffffe" fill-rule="evenodd"/>
                <path id="Fill-28" d="M396.023,692.046v2.311h-.737v-2.3H394.9v-.494h.386v-.451a.871.871,0,0,1,.186-.608.778.778,0,0,1,.579-.2,3.3,3.3,0,0,1,.386.021v.479h-.107a.33.33,0,0,0-.243.072.3.3,0,0,0-.072.236v.451h.415v.494h-.408" transform="translate(-380.886 -662.321)" fill="#fffffe" fill-rule="evenodd"/>
                <path id="Fill-29" d="M423.207,695.192h.737v-2.8h-.737Zm-.007-3.327h.744V691.2H423.2Z" transform="translate(-407.161 -663.157)" fill="#fffffe" fill-rule="evenodd"/>
                <path id="Fill-30" d="M443.239,708.81v.164a.906.906,0,0,1-.236.708,1.017,1.017,0,0,1-.73.236.982.982,0,0,1-.744-.25,1.194,1.194,0,0,1-.229-.816v-.787a1.194,1.194,0,0,1,.229-.816.971.971,0,0,1,.744-.25,1.009,1.009,0,0,1,.744.236.974.974,0,0,1,.222.715v.114H442.5v-.086a.9.9,0,0,0-.043-.372.205.205,0,0,0-.372-.007,1.054,1.054,0,0,0-.05.408v.787a1.9,1.9,0,0,0,.043.508.182.182,0,0,0,.186.122.2.2,0,0,0,.193-.107.738.738,0,0,0,.043-.343v-.164h.737" transform="translate(-423.966 -677.827)" fill="#fffffe" fill-rule="evenodd"/>
                <path id="Fill-31" d="M475.716,708.624h-.1a.483.483,0,0,0-.372.114.542.542,0,0,0-.107.386v.172a.282.282,0,0,0,.072.207.233.233,0,0,0,.186.072.271.271,0,0,0,.243-.143.921.921,0,0,0,.079-.422Zm-.637,1.388a.632.632,0,0,1-.5-.2.767.767,0,0,1-.179-.544V709.1a.867.867,0,0,1,.243-.7,1.351,1.351,0,0,1,.851-.2h.229v-.343a.409.409,0,0,0-.057-.236.213.213,0,0,0-.179-.079.251.251,0,0,0-.215.086.384.384,0,0,0-.057.258v.086h-.737v-.086a.669.669,0,0,1,.236-.594,1.208,1.208,0,0,1,.758-.186,1.162,1.162,0,0,1,.751.207.812.812,0,0,1,.243.651v2h-.715v-.229l-.029.036a.863.863,0,0,1-.644.243Z" transform="translate(-454.698 -677.92)" fill="#fffffe" fill-rule="evenodd"/>
                <path id="Fill-32" d="M510.6,700.784a3.32,3.32,0,0,1-.494.036.669.669,0,0,1-.529-.207.95.95,0,0,1-.179-.622v-1.538H509v-.494h.393v-.451l.737-.308v.758h.458v.494h-.458v1.538a.531.531,0,0,0,.043.265.215.215,0,0,0,.186.064,1.134,1.134,0,0,0,.229-.021v.486" transform="translate(-486.823 -668.728)" fill="#fffffe" fill-rule="evenodd"/>
                <path id="Fill-33" d="M537.607,695.192h.737v-2.8h-.737Zm0-3.327h.737V691.2H537.6v.665Z" transform="translate(-513.377 -663.157)" fill="#fffffe" fill-rule="evenodd"/>
                <path id="Fill-34" d="M557.566,709.339a1.733,1.733,0,0,0,.057-.551V708a1.049,1.049,0,0,0-.064-.436.268.268,0,0,0-.458,0,1.049,1.049,0,0,0-.064.436v.787a1.765,1.765,0,0,0,.057.551.232.232,0,0,0,.236.136A.223.223,0,0,0,557.566,709.339Zm-1.023.329a1.156,1.156,0,0,1-.243-.816v-.787a1.123,1.123,0,0,1,.243-.816,1.059,1.059,0,0,1,.787-.25,1.07,1.07,0,0,1,.787.25,1.124,1.124,0,0,1,.243.816v.787a1.124,1.124,0,0,1-.243.816,1.07,1.07,0,0,1-.787.25,1.059,1.059,0,0,1-.787-.25Z" transform="translate(-530.739 -677.827)" fill="#fffffe" fill-rule="evenodd"/>
                <g id="Group-38" transform="translate(28.206)">
                  <path id="Path_1" data-name="Path 1" d="M543.1,707.086a.6.6,0,0,0-.472-.186.8.8,0,0,0-.687.322v-.265H541.2v2.811h.737v-1.717a1.1,1.1,0,0,1,.064-.5.259.259,0,0,1,.258-.143.248.248,0,0,1,.2.079.389.389,0,0,1,.064.25v2.032h.737v-2.125A.864.864,0,0,0,543.1,707.086Z" transform="translate(-541.2 -677.734)" fill="#fffffe" fill-rule="evenodd"/>
                  <path id="Fill-37" d="M870.427,342.295h.05a23.765,23.765,0,0,0,6.918-1.023,12.082,12.082,0,0,0,5.988-4.55c2.246-3.284,4.285-9.636,4.371-15.967v-.014c-.086-6.324-2.125-12.677-4.371-15.967a12,12,0,0,0-5.938-4.55,24.583,24.583,0,0,0-14.036,0,11.956,11.956,0,0,0-5.938,4.55c-2.246,3.284-4.285,9.636-4.371,15.967v.014c.086,6.324,2.125,12.677,4.371,15.967a11.983,11.983,0,0,0,5.938,4.543,24.109,24.109,0,0,0,6.968,1.03h.05" transform="translate(-830.787 -299.2)" fill="#7c7464" fill-rule="evenodd"/>
                </g>
                <path id="Fill-39" d="M954.917,328.368A36.236,36.236,0,0,1,952.141,342a10.82,10.82,0,0,1-7.39,6.6,23.6,23.6,0,0,1-5.859.73,23.368,23.368,0,0,1-5.866-.73,10.836,10.836,0,0,1-7.39-6.6,34.843,34.843,0,0,1,0-27.256,10.847,10.847,0,0,1,7.39-6.61,23.916,23.916,0,0,1,11.725,0,10.83,10.83,0,0,1,7.39,6.61,36.236,36.236,0,0,1,2.776,13.628" transform="translate(-871.073 -306.813)" fill="#fffffe" fill-rule="evenodd"/>
                <path id="Fill-40" d="M1005.188,378.7a18.765,18.765,0,0,1,4.857.644,5.619,5.619,0,0,1,3.648,3.126,31.385,31.385,0,0,1,0,24.194,5.657,5.657,0,0,1-3.648,3.126,18.766,18.766,0,0,1-4.857.644h-.057a18.725,18.725,0,0,1-4.857-.644,5.618,5.618,0,0,1-3.648-3.126,31.384,31.384,0,0,1,0-24.194,5.638,5.638,0,0,1,3.648-3.126,18.765,18.765,0,0,1,4.857-.644h.057" transform="translate(-937.313 -373.013)" fill="#7c7464" fill-rule="evenodd"/>
                <path id="Fill-41" d="M1176.986,456.994c-.229-.393-.043-.043-.286-.494" transform="translate(-1106.757 -445.247)" fill="#fffffe" fill-rule="evenodd"/>
                <path id="Fill-42" d="M1040.194,588.6v1.6H1034.7v-1.6h5.494" transform="translate(-974.915 -567.897)" fill="#fffffe" fill-rule="evenodd"/>
                <path id="Fill-43" d="M1091.872,774.1a1.342,1.342,0,0,1-.172-.6h3.141a1.474,1.474,0,0,1-.651,1.145,1.593,1.593,0,0,1-2.318-.544" transform="translate(-1027.838 -739.569)" fill="#fffffe" fill-rule="evenodd"/>
                <path id="Fill-44" d="M1119.588,745.809H1117.9v-.78h1.688l.529-.63c.258.3.279.322.544.63h1.688v.78h-1.688v1.939h-1.08v-1.939" transform="translate(-1052.163 -712.551)" fill="#fffffe" fill-rule="evenodd"/>
                <path id="Fill-45" d="M1144.3,697.89c.343-.114.837-.315.93-.651a2.4,2.4,0,0,1,.6-1.352.516.516,0,0,0,.114-.486,1.594,1.594,0,0,1,1.288.973,1.657,1.657,0,0,1-2.933,1.517" transform="translate(-1076.675 -667.056)" fill="#fffffe" fill-rule="evenodd"/>
                <path id="Fill-46" d="M1038.584,630.433a1.238,1.238,0,0,0-1.045-.05.879.879,0,0,0-.579.708c-.014.951.014,1.245,0,2.289-.014.165-.1.243-.315.243-.172-.007-.3-.093-.3-.243v-2.332a1.041,1.041,0,0,0-.229-.68l-1.209.393-.107.043c.308.229.451.236.472.608v2.99l.021.157.043.1.036.093.043.079a1.219,1.219,0,0,0,.773.508,2.372,2.372,0,0,0,.393.05,1.485,1.485,0,0,0,.93-.243c.5-.386.386-1.073.4-2.06.007-.279.021-.436.193-.594a.651.651,0,0,1,.529-.1,1.151,1.151,0,0,1,.458.215c0-.866.029-1.917-.508-2.175" transform="translate(-975.008 -606.604)" fill="#fffffe" fill-rule="evenodd"/>
                <path id="Fill-47" d="M1210.233,627.964c-.88-.866-2.411-2.075-2.532-2.59a3.6,3.6,0,0,1-.1-1.159c.257-.2.465-.372.773-.615-.021.608-.107,1.23.186,1.6.723.715,1.374,1.366,2.025,2a.926.926,0,0,1,.279.98,3.469,3.469,0,0,1-.286.5.968.968,0,0,0-.343-.715" transform="translate(-1135.446 -600.393)" fill="#fffffe" fill-rule="evenodd"/>
                <path id="Fill-48" d="M1174.407,623.007c.672-.007.887.007,1.588-.007v4.721h-1.6l.007-4.714" transform="translate(-1104.621 -599.836)" fill="#fffffe" fill-rule="evenodd"/>
                <path id="Fill-49" d="M1224.4,623.351c.172-.186.229-.258.429-.451l.4.487v1.345c.565-.279.429-1.08.429-1.774.336.272.508.429.83.73.179.8-.3,1.259-.665,1.824l-1.424-1.359v-.8" transform="translate(-1151.044 -599.743)" fill="#fffffe" fill-rule="evenodd"/>
                <path id="Fill-50" d="M1189.578,516.129l.215-.9.7-.1V512.9c-.272.043-.379.072-.6.093V511.3c-.365.079-.751.207-1.137.3v2.8c-.007.136-.222.179-.265.179h-.057c-.136,0-.279-.093-.279-.193v-2.7l-1.116.143v1.137a14.011,14.011,0,0,1-1.538,2.261c.6.043.644.043,1.245.093l.365.8h2.468" transform="translate(-1114.927 -496.127)" fill="#fffffe" fill-rule="evenodd"/>
                <path id="Fill-51" d="M1064.464,545.546c-.014-.737-.05-1.223-.064-1.946a.778.778,0,0,1,.63.215c-.029.93-.029.916-.05,1.889h-.508l-.007-.157" transform="translate(-1002.491 -526.102)" fill="#fffffe" fill-rule="evenodd"/>
                <path id="Fill-52" d="M1055.365,488.217c-.122-.73-.129-.78-.2-1.309h-.465V486.4h2.046v.508h-.472l-.207,1.71a1.979,1.979,0,0,0-.7-.4" transform="translate(-993.484 -473.008)" fill="#fffffe" fill-rule="evenodd"/>
                <path id="Fill-53" d="M1054.27,423.914a3.446,3.446,0,0,1-.6-2.826v-.007a1.3,1.3,0,0,0,.723.808c-.043-.193-.215-.372-.272-.579a1.486,1.486,0,0,1,.115-1.323,1.3,1.3,0,0,1,.744-.486,1.6,1.6,0,0,0-.007,1.066,3.146,3.146,0,0,0,.351-.3.785.785,0,0,1,.129-.107,3.268,3.268,0,0,1,.4,2.06l-.115.293c-.043-.479-.122-.708-.443-.887-.043.279.136.479.179.844a1.5,1.5,0,0,1-.322,1.445h-.88" transform="translate(-992.475 -410.894)" fill="#fffffe" fill-rule="evenodd"/>
                <path id="Fill-54" d="M1166.4,456.994l-.708.773c-.186-.179-.207-.2-.393-.4.365-.379.4-.422.823-.866" transform="translate(-1096.172 -445.247)" fill="#fffffe" fill-rule="evenodd"/>
                <path id="Fill-55" d="M1193.6,414.224c.143-.672.222-1.438.959-1.724a.989.989,0,0,1,.887.165.927.927,0,0,1,.329.973c-.222.78-1.087.923-1.788,1.109l-.386-.522" transform="translate(-1122.448 -404.359)" fill="#fffffe" fill-rule="evenodd"/>
                <path id="Fill-56" d="M1190.494,588.6v1.61L1185,590.2v-1.6h5.494" transform="translate(-1114.463 -567.897)" fill="#fffffe" fill-rule="evenodd"/>
                <path id="Fill-57" d="M1054.945,457.09c-.222-1.016,1-1.381,1.295-2.225.229-1.409.293-2.89,1.273-3.992a7.969,7.969,0,0,1,2.239-5.408,8.952,8.952,0,0,0-.4-1.309.7.7,0,0,1-.5-.2,1.11,1.11,0,0,1-.215-.529,7.9,7.9,0,0,1-1.846,1.774c-.129.072-.293-.079-.522-.3-.859-.68-1-2.211-2.3-2.139-.594-.2-.565-.9-.665-1.424a.966.966,0,0,1,.844-.05c.815.436,1.359,1.352,2.125,1.967a3.357,3.357,0,0,0,.579.458,4.556,4.556,0,0,0,1.252-1.481,1.215,1.215,0,0,1,1.066-.551l.308-.365-.165-.909a7.1,7.1,0,0,1-.794-1.288c.107-.522.179-1.13.708-1.424.343-.215.63.279.908-.036a.619.619,0,0,1,.529.129,2.629,2.629,0,0,1,.486,1.18,8.248,8.248,0,0,1-.529,1.209c-.043.093-.165.114-.25.179a1.182,1.182,0,0,0,.215.515,1.153,1.153,0,0,0,.5.029,1.44,1.44,0,0,1,1.066-.794l.908-.594c-.143-.694.3-1.295.05-1.989a1.749,1.749,0,0,1-.78-1.288,2.171,2.171,0,0,1,.429-.837l.029.036a4.522,4.522,0,0,1,1.109,1.889,16.715,16.715,0,0,1,.115,2.819,8.915,8.915,0,0,1-1.645,1.145l-.415.794c-.05.823-.293,1.56-.415,2.354a5.312,5.312,0,0,1,.465,3.126,3.161,3.161,0,0,1-1.109,1.109l-.93.744c.937,1.03.708,2.2.751,3.7-.007.358.637.665.293,1.073-.286.458-.737.837-.665,1.445a1.538,1.538,0,0,1-1.295.579.118.118,0,0,1-.129-.122,6.216,6.216,0,0,1,.365-.68c.329-.508.179-1.216.594-1.688a18.2,18.2,0,0,1-.994-3.327l-.014-.072a1.868,1.868,0,0,0,.021,1.509c-.916,1.159-1.917,2.275-1.917,3.8a17.5,17.5,0,0,0-1.245,2.075c-.1.122-.279.014-.393-.05a.991.991,0,0,1-.386-.565" transform="translate(-992.185 -425.656)" fill="#fffffe" fill-rule="evenodd"/>
                <path id="Fill-58" d="M1208.3,659.323c.88.866,2.411,2.075,2.532,2.59a3.411,3.411,0,0,1,.093,1.159c-.258.2-.465.372-.773.615.021-.608.107-1.23-.186-1.6-.723-.715-1.374-1.366-2.025-2a.927.927,0,0,1-.279-.98,4,4,0,0,1,.286-.508,1,1,0,0,0,.35.723" transform="translate(-1135.449 -632.889)" fill="#fffffe" fill-rule="evenodd"/>
                <path id="Fill-59" d="M1209.687,696.246c-.172.186-.229.258-.429.451l-.4-.479V694.88c-.565.279-.429,1.08-.429,1.774-.336-.272-.508-.429-.83-.73-.179-.8.3-1.259.665-1.824l1.424,1.359v.787" transform="translate(-1135.409 -665.849)" fill="#fffffe" fill-rule="evenodd"/>
                <path id="Fill-60" d="M1165.469,774.1a1.342,1.342,0,0,0,.172-.6H1162.5a1.474,1.474,0,0,0,.651,1.145,1.651,1.651,0,0,0,1.645.114,1.61,1.61,0,0,0,.672-.658" transform="translate(-1093.573 -739.569)" fill="#fffffe" fill-rule="evenodd"/>
                <path id="Fill-61" d="M1154.081,834.4c-.014-.873.837-1.309,1.374-1.889a.59.59,0,0,0,.093-.644.394.394,0,0,0-.272-.243.512.512,0,0,0-.465.086.716.716,0,0,0-.208.572l-.594.036a1.149,1.149,0,0,1,.229-.9,1.365,1.365,0,0,1,1.1-.358,1.077,1.077,0,0,1,.837.594,1.089,1.089,0,0,1-.157,1.152c-.351.379-.816.579-1.1,1l1.509-.086c.014.186.021.365.029.537l-2.375.143" transform="translate(-1085.676 -793.006)" fill="#7c7464" fill-rule="evenodd"/>
                <path id="Fill-62" d="M1058.024,822.965l-.007.029-.98,3.012-.63-.207.672-2.06.014-.036c-.25-.086-.551-.172-.794-.258l.129-.386a.984.984,0,0,0,.923-.093.964.964,0,0,0,.172-.164l.5.164" transform="translate(-994.97 -785.343)" fill="#7c7464" fill-rule="evenodd"/>
                <path id="Fill-63" d="M1210.239,822.717a.714.714,0,0,1-.379.2.725.725,0,0,1-.429-.007.469.469,0,0,1-.3-.315.482.482,0,0,1,.179-.544.946.946,0,0,1,.308-.136.9.9,0,0,1,.329-.021.494.494,0,0,1,.415.4A.527.527,0,0,1,1210.239,822.717Zm-1.316-1.452a.415.415,0,0,1,.057-.479.7.7,0,0,1,.672-.165.417.417,0,0,1,.272.4.4.4,0,0,1-.129.279.8.8,0,0,1-.293.143.74.74,0,0,1-.329.014A.4.4,0,0,1,1208.922,821.264Zm2.067.858a.813.813,0,0,0-.572-.63l-.193-.043a.691.691,0,0,0,.308-.687.793.793,0,0,0-.551-.615,1.779,1.779,0,0,0-1.531.372.783.783,0,0,0-.2.8.7.7,0,0,0,.594.465l-.15.129a.8.8,0,0,0-.215.823.938.938,0,0,0,.665.687,1.809,1.809,0,0,0,.83-.007,1.72,1.72,0,0,0,.737-.379.906.906,0,0,0,.279-.916Z" transform="translate(-1136.01 -782.834)" fill="#7c7464" fill-rule="evenodd"/>
                <path id="Fill-64" d="M1099.128,833.185a.724.724,0,0,1-.422.079.765.765,0,0,1-.408-.129.5.5,0,0,1,.136-.866.929.929,0,0,1,.329-.036.965.965,0,0,1,.322.079.485.485,0,0,1,.272.508A.445.445,0,0,1,1099.128,833.185Zm-.823-1.781a.416.416,0,0,1,.2-.444.633.633,0,0,1,.351-.072.593.593,0,0,1,.336.114.417.417,0,0,1,.143.465.368.368,0,0,1-.207.229.7.7,0,0,1-.329.05.8.8,0,0,1-.322-.086A.417.417,0,0,1,1098.305,831.4Zm1.724,1.438a.813.813,0,0,0-.358-.773l-.172-.093a.693.693,0,0,0,.5-.565.79.79,0,0,0-.343-.751,1.483,1.483,0,0,0-.773-.229,1.544,1.544,0,0,0-.794.136.786.786,0,0,0-.429.708.711.711,0,0,0,.429.622l-.179.072a.8.8,0,0,0-.451.723.953.953,0,0,0,.429.858,1.806,1.806,0,0,0,1.61.093.965.965,0,0,0,.529-.8Z" transform="translate(-1033.184 -792.422)" fill="#7c7464" fill-rule="evenodd"/>
                <path id="Fill-65" d="M1290.091,429.208l-2.926,1.266-.265-.608,2.926-1.266.265.608" transform="translate(-1209.073 -419.343)" fill="#7c7464" fill-rule="evenodd"/>
                <path id="Fill-66" d="M1167.451,323.684l-.751-3.284.694.072c.143.816.286,1.738.443,2.418.3-.637.622-1.509.923-2.282l.687.072-1.388,3.069-.608-.064" transform="translate(-1097.472 -318.883)" fill="#7c7464" fill-rule="evenodd"/>
                <path id="Fill-67" d="M975.7,382.48l-.708,1.273-.6-.336.816-1.459-.465-.258-1.137,2.046,2.783,1.552,1.145-2.046-.465-.258-.816,1.467-.78-.436.715-1.281-.486-.265" transform="translate(-918.186 -375.798)" fill="#7c7464" fill-rule="evenodd"/>
                <path id="Fill-68" d="M939.138,577.575h-.894c.014-.708-.093-1.123.329-1.209a.452.452,0,0,1,.436.086C939.188,576.63,939.131,576.916,939.138,577.575Zm-1.374,0h-.78c.021-.73-.1-1.123.351-1.173.265-.021.336.043.4.2A4.924,4.924,0,0,1,937.765,577.575Zm1.8-1.445a.874.874,0,0,0-1.6.129.647.647,0,0,0-.536-.479.756.756,0,0,0-.78.315,7.1,7.1,0,0,0-.143,2.139h3.169V578a5.511,5.511,0,0,0-.107-1.874Z" transform="translate(-883.739 -555.891)" fill="#7c7464" fill-rule="evenodd"/>
                <path id="Fill-69" d="M1301.725,460.229l.508-.129.644,2.5-.508.129-.236-.923-2.568.658-.165-.644,2.561-.658-.236-.93" transform="translate(-1220.679 -448.589)" fill="#7c7464" fill-rule="evenodd"/>
                <path id="Fill-70" d="M1083.674,328.419a1.454,1.454,0,0,1-1.016-.157.791.791,0,0,1-.393-.572l-.365-2.282.651-.107.365,2.282a.452.452,0,0,0,.372.336.88.88,0,0,0,.308.007" transform="translate(-1018.739 -323.433)" fill="#7c7464" fill-rule="evenodd"/>
                <path id="Fill-71" d="M1105.779,324.612a1.472,1.472,0,0,0,.916-.465.776.776,0,0,0,.193-.665l-.365-2.282-.651.1.365,2.282a.463.463,0,0,1-.25.436.8.8,0,0,1-.286.1" transform="translate(-1040.836 -319.626)" fill="#7c7464" fill-rule="evenodd"/>
                <path id="Fill-72" d="M1307.667,517.474l-.107-.787,1.374.207h0Zm1.846-1.009-3.312-.665.093.644.723.136.157,1.145-.658.322.093.644,3-1.545-.1-.68Z" transform="translate(-1226.993 -500.305)" fill="#7c7464" fill-rule="evenodd"/>
                <path id="Fill-73" d="M1314.394,576.453l.057-.007.072-.021.05-.014a.665.665,0,0,0,.25-.622.565.565,0,0,0-.293-.551c-.114-.029-.257-.043-.329.072-.358.529-.107,1.66-1.037,1.86a.938.938,0,0,1-.966-.429,1.9,1.9,0,0,1,.014-1.817,1,1,0,0,1,.794-.422l.036.608a.614.614,0,0,0-.486.322.99.99,0,0,0,.129,1.016.371.371,0,0,0,.394.029c.365-.265.293-.923.479-1.366a.855.855,0,0,1,1.424-.3,1.633,1.633,0,0,1,.25,1.66.954.954,0,0,1-.844.594l-.036-.615.043.007" transform="translate(-1232.354 -554.805)" fill="#7c7464" fill-rule="evenodd"/>
                <path id="Fill-74" d="M942.512,533.479a1.437,1.437,0,0,1-.465.916.776.776,0,0,1-.665.193l-2.282-.358.1-.651,2.282.358a.455.455,0,0,0,.436-.25.8.8,0,0,0,.1-.286" transform="translate(-886.154 -516.646)" fill="#7c7464" fill-rule="evenodd"/>
                <path id="Fill-75" d="M946.512,511.56a1.494,1.494,0,0,0-.157-1.016.762.762,0,0,0-.572-.386L943.5,509.8l-.1.651,2.282.358a.463.463,0,0,1,.336.372.882.882,0,0,1,.007.308" transform="translate(-890.147 -494.734)" fill="#7c7464" fill-rule="evenodd"/>
                <path id="Fill-76" d="M1029.08,345.86l-.351-1.345v-.007h0l.007.007,1.03.937Zm-.393-2.06-.587.358.7,3.305.558-.336-.165-.715.987-.6.558.472.558-.336-2.611-2.146Z" transform="translate(-968.788 -340.609)" fill="#7c7464" fill-rule="evenodd"/>
                <path id="Fill-77" d="M1217.426,333.046l-1.345-.565.265-.63,1.545.644.2-.486-2.161-.909-1.23,2.947,2.161.9.208-.486-1.552-.651.351-.823,1.345.565.215-.508" transform="translate(-1142.038 -328.818)" fill="#7c7464" fill-rule="evenodd"/>
                <path id="Fill-78" d="M953.181,447.525l-.8-.236c.172-.544.25-1.095.637-1.059a.507.507,0,0,1,.351.179C953.517,446.588,953.324,447,953.181,447.525Zm.637-1.145a.713.713,0,0,0-.193-.579.931.931,0,0,0-.73-.243c-.708.107-.8.923-1.195,2.218l3.055.909.193-.637-1.209-.358-.05-.014a4.6,4.6,0,0,1,.258-.744c.222-.508,1.03-.007,1.352-.057l.186-.63c-.551.021-1.281-.465-1.667.136Z" transform="translate(-897.853 -435.085)" fill="#7c7464" fill-rule="evenodd"/>
                <path id="Fill-79" d="M1260.512,370.282a.509.509,0,0,1-.351.179c-.236.014-.458-.386-.794-.808l.665-.508C1260.369,369.609,1260.762,370,1260.512,370.282Zm-.479-1.982-2.532,1.932.4.529,1-.765.043-.029a3.875,3.875,0,0,1,.451.651c.279.472-.6.837-.744,1.123l.4.522c.293-.458,1.123-.765.866-1.431a.681.681,0,0,0,.579.179.934.934,0,0,0,.63-.444c.322-.63-.279-1.188-1.095-2.268Z" transform="translate(-1181.776 -363.357)" fill="#7c7464" fill-rule="evenodd"/>
              </g>
            </g>
          </g>
        </g>
      </g>
    </g>
  </g>
</svg>
