<svg width="60" height="60" viewBox="0 0 60 60" fill="none" xmlns="http://www.w3.org/2000/svg">
<circle cx="30" cy="30" r="30" fill="#01B9EA"/>
<g clip-path="url(#clip0_2202_2198)">
<path d="M34.6638 10.1489C34.6638 9.7878 34.6724 9.41794 34.6638 9.05688C34.6466 8.44925 34.2069 8.00013 33.6466 8.00013C33.0862 7.99132 32.6207 8.44044 32.6121 9.04807C32.5949 9.77019 32.5949 10.5011 32.6121 11.2232C32.6207 11.8309 33.069 12.28 33.6293 12.28C34.2069 12.2888 34.6552 11.8309 34.6638 11.1968C34.6724 10.8534 34.6638 10.5011 34.6638 10.1489ZM29.9742 13.0285C29.888 12.8172 29.8449 12.5618 29.7069 12.4033C29.1811 11.822 28.6293 11.2496 28.0518 10.7125C27.6724 10.3602 27.069 10.4307 26.7069 10.8005C26.3362 11.1792 26.2759 11.778 26.6207 12.1743C27.1466 12.7643 27.6983 13.3279 28.2759 13.8651C28.5776 14.1469 28.9655 14.1645 29.3449 13.9796C29.7155 13.7858 29.9052 13.4688 29.9742 13.0285ZM37.3362 12.8876C37.3535 13.46 37.5431 13.7946 37.9397 13.9796C38.3535 14.1733 38.7586 14.1117 39.0862 13.7858C39.5862 13.3015 40.069 12.7995 40.5431 12.2976C40.9655 11.8485 40.9655 11.232 40.569 10.8181C40.1638 10.3866 39.5431 10.3778 39.0949 10.8093C38.5949 11.2937 38.1035 11.7868 37.638 12.3064C37.4742 12.4913 37.3966 12.7643 37.3362 12.8876Z" fill="white"/>
<path d="M14.7672 44.0007C14.1724 43.7189 14 43.2434 14 42.5829C14.0172 36.4626 14.0086 30.351 14.0086 24.2307C14.0086 23.2708 14.3707 22.9009 15.3276 22.9009C17.2069 22.9009 19.0948 22.9097 20.9741 22.9009C22.3534 22.8921 23.3879 23.4469 24.0345 24.7062C24.0517 24.7326 24.0776 24.759 24.1121 24.8031C24.75 24.4508 25.3793 24.1074 26.0172 23.7639C26.7414 23.3676 27.4655 22.9626 28.2069 22.5839C29.6552 21.8354 30.4828 20.6289 30.819 19.0438C31.0776 17.8285 31.319 16.6132 31.569 15.4068C31.7155 14.7023 32.1034 14.3853 32.8017 14.4117C35.7759 14.5085 38.1121 17.3618 37.7414 20.3999C37.569 21.8266 37.0345 23.1299 36.5 24.4332C36.431 24.5917 36.3707 24.759 36.3017 24.9175C36.2931 24.9352 36.3017 24.9616 36.3017 25.0232C36.4224 25.0232 36.5431 25.0232 36.6638 25.0232C38.3621 25.0232 40.0603 25.0144 41.7586 25.0232C43.0431 25.032 44.0517 25.5692 44.6465 26.7581C45.2069 27.8765 45.1207 28.9772 44.4138 30.0076C44.2672 30.2277 44.2414 30.351 44.4052 30.58C45.1983 31.6455 45.1897 33.169 44.4052 34.2522C44.2759 34.4283 44.2241 34.5516 44.3793 34.7629C45.6207 36.4802 44.9224 38.8402 42.9655 39.5976C42.8879 39.624 42.819 39.6592 42.819 39.6592C42.8448 40.2316 42.931 40.7688 42.8793 41.2972C42.7414 42.6622 41.681 43.7453 40.3448 43.9743C40.2931 43.9831 40.2414 44.0095 40.1897 44.0271C36.8621 44.0271 33.5345 44.0271 30.2069 44.0271C29.8793 43.9919 29.5517 43.9567 29.2241 43.9215C27.4138 43.7541 25.6466 43.4019 23.9138 42.8647C23.8276 42.8383 23.681 42.8383 23.6379 42.8911C23.1121 43.5164 22.431 43.8422 21.6724 44.0183C19.3534 44.0007 17.0603 44.0007 14.7672 44.0007ZM24.3362 40.7512C24.3966 40.7776 24.431 40.8129 24.4741 40.8217C26.4914 41.4381 28.5517 41.852 30.6638 41.8784C33.6897 41.9224 36.7241 41.896 39.75 41.896C40.3793 41.896 40.8362 41.4733 40.8621 40.8921C40.8879 40.3021 40.4655 39.853 39.8448 39.7913C39.2069 39.7297 38.7931 39.2982 38.8017 38.7082C38.819 38.1093 39.2759 37.6866 39.9224 37.6778C40.5517 37.669 41.181 37.6778 41.819 37.6778C42.4655 37.669 42.9224 37.2375 42.931 36.6387C42.9397 36.0222 42.4741 35.5819 41.8103 35.5731C41.181 35.5643 40.5517 35.5731 39.9138 35.5731C39.2672 35.5643 38.8103 35.1328 38.8017 34.534C38.7931 33.9175 39.2586 33.4772 39.9224 33.4684C40.5431 33.4596 41.1638 33.4684 41.7845 33.4684C42.4569 33.4596 42.9224 33.0369 42.931 32.4205C42.9397 31.7952 42.4655 31.3637 41.7759 31.3549C41.181 31.3549 40.5862 31.3549 39.9828 31.3549C39.2759 31.3549 38.8103 30.9322 38.8017 30.307C38.7931 29.6729 39.2672 29.2414 39.9914 29.2414C40.6207 29.2414 41.25 29.2502 41.8879 29.2326C42.7069 29.2062 43.1897 28.3608 42.7845 27.6563C42.5517 27.2512 42.181 27.1279 41.7328 27.1279C38.75 27.1367 35.7672 27.1279 32.7845 27.1279C32.0517 27.1279 31.5776 26.7228 31.569 26.08C31.5603 25.4371 32.0431 25.0144 32.7931 25.0144C33.1034 25.0144 33.4138 24.9968 33.7241 25.0232C33.9397 25.032 34.0431 24.9704 34.1293 24.759C34.3966 24.0633 34.7241 23.3853 34.9569 22.6808C35.2241 21.8882 35.5 21.0868 35.6466 20.2678C35.931 18.6915 34.9224 17.0976 33.4397 16.6661C33.4138 16.7541 33.3879 16.8422 33.3621 16.9303C33.1724 17.8197 32.9914 18.7179 32.7931 19.6074C32.319 21.7121 31.2069 23.3412 29.3103 24.3716C27.7414 25.2258 26.1897 26.0976 24.6207 26.9518C24.3966 27.0751 24.3276 27.216 24.3276 27.4714C24.3362 31.7864 24.3362 36.0927 24.3362 40.4078C24.3362 40.5134 24.3362 40.6367 24.3362 40.7512ZM16.0862 41.896C17.7759 41.896 19.4224 41.896 21.0776 41.896C21.8793 41.896 22.2759 41.4821 22.2759 40.6543C22.2759 35.8549 22.2759 31.0467 22.2759 26.2473C22.2759 25.4283 21.8793 25.0232 21.069 25.0144C19.5086 25.0144 17.9483 25.0144 16.3879 25.0144C16.2931 25.0144 16.1897 25.0232 16.0862 25.032C16.0862 30.6592 16.0862 36.26 16.0862 41.896Z" fill="white"/>
<path d="M34.6639 10.1489C34.6639 10.5011 34.6725 10.8534 34.6639 11.2056C34.6466 11.8309 34.1983 12.2888 33.6294 12.2888C33.069 12.28 32.6207 11.8309 32.6121 11.232C32.6035 10.5099 32.5949 9.77899 32.6121 9.05688C32.6207 8.44044 33.0776 7.99132 33.638 8.00013C34.1983 8.00893 34.638 8.45805 34.6552 9.05688C34.6725 9.42674 34.6639 9.7878 34.6639 10.1489Z" fill="white"/>
<path d="M29.9742 13.0285C29.9052 13.4776 29.7155 13.7946 29.3448 13.9795C28.9742 14.1645 28.5776 14.1469 28.2759 13.8651C27.7069 13.3279 27.1466 12.7643 26.6207 12.1743C26.2673 11.778 26.3362 11.1792 26.7069 10.8005C27.069 10.4306 27.6724 10.3602 28.0517 10.7124C28.6293 11.2496 29.1724 11.822 29.7069 12.4032C29.8448 12.5617 29.8879 12.8171 29.9742 13.0285Z" fill="white"/>
<path d="M37.3362 12.8872C37.3965 12.7639 37.4741 12.4909 37.6379 12.306C38.1034 11.7864 38.5948 11.2933 39.0948 10.8089C39.5431 10.3686 40.1638 10.3862 40.5689 10.8177C40.9655 11.2404 40.9655 11.8569 40.5431 12.2972C40.0689 12.7991 39.5776 13.3011 39.0862 13.7854C38.7586 14.1025 38.362 14.1729 37.9396 13.9792C37.5431 13.7943 37.3534 13.4684 37.3362 12.8872Z" fill="white"/>
<path d="M20.2069 38.717C20.1983 38.1446 19.7242 37.669 19.1638 37.6779C18.6035 37.6867 18.138 38.171 18.1466 38.7434C18.1552 39.3158 18.6294 39.7914 19.1897 39.7826C19.7501 39.7737 20.2069 39.2894 20.2069 38.717Z" fill="white"/>
<path d="M20.2069 38.717C20.2156 39.2894 19.7501 39.7737 19.1897 39.7826C18.6294 39.7914 18.1552 39.3158 18.1466 38.7434C18.138 38.171 18.6035 37.6867 19.1638 37.6779C19.7242 37.669 20.1983 38.1446 20.2069 38.717Z" fill="white"/>
</g>
<defs>
<clipPath id="clip0_2202_2198">
<rect width="31" height="36" fill="white" transform="translate(14 8)"/>
</clipPath>
</defs>
</svg>
