<svg width="60" height="60" viewBox="0 0 60 60" fill="none" xmlns="http://www.w3.org/2000/svg">
<circle cx="30" cy="30" r="30" fill="#01B9EA"/>
<g clip-path="url(#clip0_2014_1734)">
<path d="M26.5619 36.1635C30.4432 32.2817 34.3321 28.3924 38.2058 24.5182C38.2058 24.6541 38.2058 24.8354 38.2058 25.0091C38.2134 25.6963 38.6976 26.1948 39.3483 26.1948C39.9838 26.1872 40.468 25.6888 40.468 25.0166C40.4756 23.914 40.4756 22.8114 40.468 21.7013C40.468 21.0065 39.9838 20.5307 39.2877 20.5307C38.1907 20.5231 37.1012 20.5307 36.0041 20.5307C35.3156 20.5307 34.8087 21.014 34.8087 21.656C34.8087 22.3054 35.3081 22.7888 35.9966 22.7963C36.1782 22.7963 36.3597 22.7963 36.4884 22.7963C32.6071 26.6781 28.7182 30.5674 24.8445 34.4492C24.8445 34.283 24.852 34.0716 24.8445 33.8677C24.8218 33.2409 24.3224 32.7651 23.7096 32.7651C23.1043 32.7726 22.5974 33.2409 22.5898 33.8526C22.5747 35.0156 22.5747 36.1711 22.5898 37.3341C22.5974 37.9307 23.0816 38.414 23.6793 38.4216C24.8369 38.4367 26.0021 38.4367 27.1596 38.4216C27.7725 38.414 28.2415 37.9005 28.2491 37.3039C28.2491 36.6846 27.7725 36.1862 27.1445 36.1635C26.9327 36.156 26.7208 36.1635 26.5619 36.1635Z" fill="white"/>
<path d="M18.9506 44.9997C18.3983 44.8487 17.846 44.6901 17.3845 44.3276C16.4993 43.6403 16.0151 42.7492 16.0075 41.6315C15.9999 37.9083 15.9999 34.1927 16.0075 30.4771C16.0151 28.6192 17.5207 27.1164 19.3819 27.1088C21.6819 27.1013 23.9895 27.1088 26.2895 27.1088C26.978 27.1088 27.4925 27.5846 27.4925 28.2265C27.5001 28.8836 26.9856 29.3669 26.282 29.3669C24.0349 29.3669 21.7878 29.3669 19.5408 29.3669C18.7161 29.3669 18.2697 29.82 18.2697 30.6432C18.2697 34.2455 18.2697 37.8554 18.2697 41.4578C18.2697 42.281 18.7237 42.7341 19.5483 42.7341C23.1497 42.7341 26.7586 42.7341 30.36 42.7341C31.1771 42.7341 31.631 42.281 31.631 41.4502C31.631 39.1922 31.631 36.9416 31.631 34.6836C31.631 34.2078 31.8353 33.8453 32.2666 33.6263C32.6827 33.4148 33.0913 33.4677 33.462 33.7547C33.7419 33.9661 33.8932 34.2606 33.8932 34.608C33.8932 37.0021 33.9235 39.4036 33.8857 41.7976C33.863 43.3231 32.6751 44.6221 31.1393 44.9393C31.0787 44.9544 31.0182 44.9771 30.9577 44.9997C26.9553 44.9997 22.953 44.9997 18.9506 44.9997Z" fill="white"/>
<path d="M23.929 16C23.9744 16.0227 24.0123 16.0378 24.0577 16.0604C24.61 16.2719 24.9202 16.793 24.8218 17.3292C24.7159 17.888 24.2619 18.2656 23.6794 18.2656C22.6807 18.2732 21.682 18.2656 20.6833 18.2656C19.2306 18.2656 18.2698 19.2247 18.2698 20.6747C18.2698 21.6565 18.2698 22.6383 18.2698 23.6201C18.2698 24.3299 17.7931 24.8359 17.1349 24.8359C16.4767 24.8359 16.0076 24.3299 16.0076 23.6125C16.0076 22.6005 16.0076 21.5961 16.0076 20.5841C16.0076 18.2656 17.604 16.4078 19.8964 16.0453C19.9418 16.0378 19.9797 16.0151 20.025 16C21.3264 16 22.6277 16 23.929 16Z" fill="white"/>
<path d="M45 23.9297C44.9773 23.9901 44.947 24.0505 44.9243 24.1109C44.7125 24.6245 44.1904 24.919 43.6759 24.8208C43.1312 24.7151 42.7453 24.2695 42.7378 23.7031C42.7302 22.6911 42.7378 21.6867 42.7378 20.6747C42.7378 19.2247 41.7769 18.2656 40.3243 18.2656C39.3634 18.2656 38.4025 18.2656 37.4417 18.2656C36.7607 18.2656 36.2916 17.9182 36.1857 17.3216C36.0798 16.7552 36.3976 16.2719 37.0331 16.0302C37.0482 16.0227 37.0634 16.0076 37.0785 16C38.3798 16 39.6812 16 40.9825 16C41.0354 16.0151 41.0884 16.0453 41.1414 16.0529C42.9496 16.3247 44.4098 17.6464 44.8713 19.4286C44.9243 19.625 44.9621 19.8289 45.0075 20.0253C45 21.3242 45 22.6307 45 23.9297Z" fill="white"/>
<path d="M37.0709 44.9997C37.0104 44.977 36.9499 44.9468 36.8893 44.9241C36.3824 44.7127 36.0798 44.1916 36.1781 43.6705C36.2765 43.1267 36.7305 42.734 37.2979 42.734C38.3042 42.7265 39.318 42.734 40.3242 42.734C41.7769 42.734 42.7302 41.7749 42.7378 40.3249C42.7378 39.3734 42.7378 38.4218 42.7378 37.4702C42.7378 36.7603 43.0782 36.2921 43.6759 36.1864C44.2358 36.0806 44.72 36.3903 44.9697 37.0322C44.9773 37.0473 44.9848 37.0624 45 37.0775C45 38.3765 45 39.683 45 40.9895C44.9848 41.0424 44.9546 41.0952 44.947 41.1481C44.6746 42.953 43.3506 44.4181 41.5726 44.8788C41.3759 44.9317 41.1716 44.9694 40.9749 45.0148C39.6736 44.9997 38.3722 44.9997 37.0709 44.9997Z" fill="white"/>
<path d="M32.993 16C33.0686 16.0302 33.1443 16.068 33.2275 16.0982C33.7042 16.3096 33.9765 16.8232 33.8857 17.3216C33.7874 17.8503 33.3561 18.2505 32.8265 18.2581C31.2755 18.2732 29.7321 18.2732 28.1811 18.2581C27.6515 18.2505 27.2202 17.8503 27.1218 17.3216C27.031 16.8232 27.3034 16.3096 27.7801 16.0982C27.8557 16.0604 27.9314 16.0302 28.0146 16C29.6715 16 31.336 16 32.993 16Z" fill="white"/>
<path d="M45 32.9926C44.9698 33.0606 44.9395 33.1285 44.9093 33.1965C44.6974 33.6874 44.1754 33.9744 43.6685 33.8837C43.1313 33.7856 42.7378 33.34 42.7303 32.7962C42.7227 31.2707 42.7227 29.7376 42.7303 28.2121C42.7303 27.6608 43.1313 27.2228 43.6685 27.1246C44.1754 27.0264 44.6898 27.3134 44.9093 27.8119C44.9395 27.8798 44.9698 27.9478 45 28.0158C45 29.6697 45 31.3311 45 32.9926Z" fill="white"/>
<path d="M26.5619 36.1635C26.7284 36.1635 26.9327 36.156 27.1369 36.1635C27.7573 36.1862 28.2415 36.6846 28.2415 37.3039C28.2415 37.908 27.7649 38.414 27.1521 38.4216C25.9945 38.4367 24.8293 38.4367 23.6718 38.4216C23.0741 38.414 22.5898 37.9307 22.5823 37.3341C22.5671 36.1711 22.5671 35.0156 22.5823 33.8526C22.5898 33.2409 23.0968 32.7651 23.702 32.7651C24.3149 32.7575 24.8142 33.2409 24.8369 33.8677C24.8445 34.0716 24.8369 34.2755 24.8369 34.4492C28.7182 30.5674 32.5995 26.6781 36.4884 22.7963C36.3597 22.7963 36.1781 22.7963 35.9966 22.7963C35.3081 22.7888 34.8087 22.3054 34.8087 21.656C34.8087 21.0065 35.3156 20.5307 36.0041 20.5307C37.1012 20.5307 38.1907 20.5231 39.2877 20.5307C39.9838 20.5307 40.4604 21.0065 40.468 21.7013C40.4756 22.8039 40.4756 23.9065 40.468 25.0166C40.468 25.6888 39.9838 26.1872 39.3483 26.1948C38.6976 26.2023 38.2134 25.6963 38.2058 25.0091C38.2058 24.8354 38.2058 24.6541 38.2058 24.5182C34.3245 28.3924 30.4432 32.2817 26.5619 36.1635Z" fill="white"/>
</g>
<defs>
<clipPath id="clip0_2014_1734">
<rect width="29" height="29" fill="white" transform="translate(16 16)"/>
</clipPath>
</defs>
</svg>
