<svg width="16" height="16" viewBox="0 0 16 16" fill="none" xmlns="http://www.w3.org/2000/svg">
<g clip-path="url(#clip0_1059_976)">
<path fill-rule="evenodd" clip-rule="evenodd" d="M14 1H2C1.73478 1 1.48043 1.10536 1.29289 1.29289C1.10536 1.48043 1 1.73478 1 2V14C1 14.2652 1.10536 14.5196 1.29289 14.7071C1.48043 14.8946 1.73478 15 2 15H14C14.2652 15 14.5196 14.8946 14.7071 14.7071C14.8946 14.5196 15 14.2652 15 14V2C15 1.73478 14.8946 1.48043 14.7071 1.29289C14.5196 1.10536 14.2652 1 14 1ZM2 0C1.46957 0 0.960859 0.210714 0.585786 0.585786C0.210714 0.960859 0 1.46957 0 2L0 14C0 14.5304 0.210714 15.0391 0.585786 15.4142C0.960859 15.7893 1.46957 16 2 16H14C14.5304 16 15.0391 15.7893 15.4142 15.4142C15.7893 15.0391 16 14.5304 16 14V2C16 1.46957 15.7893 0.960859 15.4142 0.585786C15.0391 0.210714 14.5304 0 14 0L2 0Z" fill="#454545"/>
<path fill-rule="evenodd" clip-rule="evenodd" d="M4 7.99965C4 8.13226 4.05268 8.25944 4.14645 8.35321C4.24021 8.44698 4.36739 8.49965 4.5 8.49965H10.293L8.146 10.6457C8.09951 10.6921 8.06264 10.7473 8.03748 10.8081C8.01232 10.8688 7.99937 10.9339 7.99937 10.9997C7.99937 11.0654 8.01232 11.1305 8.03748 11.1912C8.06264 11.252 8.09951 11.3072 8.146 11.3537C8.19249 11.4001 8.24768 11.437 8.30842 11.4622C8.36916 11.4873 8.43426 11.5003 8.5 11.5003C8.56574 11.5003 8.63084 11.4873 8.69158 11.4622C8.75232 11.437 8.80751 11.4001 8.854 11.3537L11.854 8.35365C11.9006 8.30721 11.9375 8.25203 11.9627 8.19129C11.9879 8.13054 12.0009 8.06542 12.0009 7.99965C12.0009 7.93389 11.9879 7.86877 11.9627 7.80802C11.9375 7.74728 11.9006 7.6921 11.854 7.64565L8.854 4.64566C8.80751 4.59917 8.75232 4.56229 8.69158 4.53713C8.63084 4.51197 8.56574 4.49902 8.5 4.49902C8.43426 4.49902 8.36916 4.51197 8.30842 4.53713C8.24768 4.56229 8.19249 4.59917 8.146 4.64566C8.09951 4.69214 8.06264 4.74733 8.03748 4.80807C8.01232 4.86881 7.99937 4.93391 7.99937 4.99966C7.99937 5.0654 8.01232 5.1305 8.03748 5.19124C8.06264 5.25198 8.09951 5.30717 8.146 5.35366L10.293 7.49965H4.5C4.36739 7.49965 4.24021 7.55233 4.14645 7.6461C4.05268 7.73987 4 7.86705 4 7.99965Z" fill="#454545"/>
</g>
<defs>
<clipPath id="clip0_1059_976">
<rect width="16" height="16" fill="white"/>
</clipPath>
</defs>
</svg>
