<svg width="16" height="16" viewBox="0 0 16 16" fill="none" xmlns="http://www.w3.org/2000/svg">
<g clip-path="url(#clip0_1059_979)">
<path fill-rule="evenodd" clip-rule="evenodd" d="M2 15L14 15C14.2652 15 14.5196 14.8946 14.7071 14.7071C14.8946 14.5196 15 14.2652 15 14L15 2C15 1.73478 14.8946 1.48043 14.7071 1.29289C14.5196 1.10536 14.2652 1 14 1L2 1C1.73478 1 1.48043 1.10536 1.29289 1.29289C1.10536 1.48043 1 1.73478 1 2L1 14C1 14.2652 1.10536 14.5196 1.29289 14.7071C1.48043 14.8946 1.73478 15 2 15ZM14 16C14.5304 16 15.0391 15.7893 15.4142 15.4142C15.7893 15.0391 16 14.5304 16 14V2C16 1.46957 15.7893 0.960859 15.4142 0.585787C15.0391 0.210714 14.5304 0 14 0H2C1.46957 0 0.960859 0.210714 0.585787 0.585787C0.210714 0.960859 0 1.46957 0 2L0 14C0 14.5304 0.210714 15.0391 0.585787 15.4142C0.960859 15.7893 1.46957 16 2 16L14 16Z" fill="#454545"/>
<path fill-rule="evenodd" clip-rule="evenodd" d="M12 8.00035C12 7.86774 11.9473 7.74056 11.8536 7.64679C11.7598 7.55302 11.6326 7.50035 11.5 7.50035L5.707 7.50035L7.854 5.35435C7.90049 5.30786 7.93736 5.25267 7.96252 5.19193C7.98768 5.13119 8.00063 5.06609 8.00063 5.00035C8.00063 4.9346 7.98768 4.8695 7.96252 4.80876C7.93736 4.74802 7.90049 4.69283 7.854 4.64635C7.80751 4.59986 7.75232 4.56298 7.69158 4.53782C7.63084 4.51266 7.56574 4.49971 7.5 4.49971C7.43426 4.49971 7.36916 4.51266 7.30842 4.53782C7.24768 4.56298 7.19249 4.59986 7.146 4.64635L4.146 7.64635C4.09944 7.69279 4.06249 7.74797 4.03729 7.80871C4.01208 7.86946 3.99911 7.93458 3.99911 8.00035C3.99911 8.06611 4.01208 8.13123 4.03729 8.19198C4.06249 8.25272 4.09944 8.3079 4.146 8.35435L7.146 11.3543C7.19249 11.4008 7.24768 11.4377 7.30842 11.4629C7.36916 11.488 7.43426 11.501 7.5 11.501C7.56574 11.501 7.63084 11.488 7.69158 11.4629C7.75232 11.4377 7.80751 11.4008 7.854 11.3543C7.90049 11.3079 7.93736 11.2527 7.96252 11.1919C7.98768 11.1312 8.00063 11.0661 8.00063 11.0003C8.00063 10.9346 7.98768 10.8695 7.96252 10.8088C7.93736 10.748 7.90049 10.6928 7.854 10.6463L5.707 8.50035H11.5C11.6326 8.50035 11.7598 8.44767 11.8536 8.3539C11.9473 8.26013 12 8.13295 12 8.00035Z" fill="#454545"/>
</g>
<defs>
<clipPath id="clip0_1059_979">
<rect width="16" height="16" fill="white" transform="translate(16 16) rotate(-180)"/>
</clipPath>
</defs>
</svg>
