<svg width="40" height="40" viewBox="0 0 40 40" fill="none" xmlns="http://www.w3.org/2000/svg">
<circle cx="20" cy="20" r="19.5" stroke="white"/>
<path d="M27.0117 16.168C26.8477 15.5117 26.3281 14.9922 25.6992 14.8281C24.5234 14.5 19.875 14.5 19.875 14.5C19.875 14.5 15.1992 14.5 14.0234 14.8281C13.3945 14.9922 12.875 15.5117 12.7109 16.168C12.3828 17.3164 12.3828 19.7773 12.3828 19.7773C12.3828 19.7773 12.3828 22.2109 12.7109 23.3867C12.875 24.043 13.3945 24.5352 14.0234 24.6992C15.1992 25 19.875 25 19.875 25C19.875 25 24.5234 25 25.6992 24.6992C26.3281 24.5352 26.8477 24.043 27.0117 23.3867C27.3398 22.2109 27.3398 19.7773 27.3398 19.7773C27.3398 19.7773 27.3398 17.3164 27.0117 16.168ZM18.3438 21.9922V17.5625L22.2266 19.7773L18.3438 21.9922Z" fill="white"/>
</svg>
