<svg width="24" height="24" viewBox="0 0 24 24" fill="none" xmlns="http://www.w3.org/2000/svg">
<g clip-path="url(#clip0_913_1406)">
<path d="M1.30772 12.3673L1.08268 12L1.30772 11.6325C1.34544 11.5712 2.25071 10.11 4.00944 8.64569C6.34861 6.69836 9.10435 5.66895 11.9789 5.66895C14.8528 5.66895 17.6153 6.69781 19.9678 8.64423C21.7366 10.1078 22.6521 11.5679 22.6902 11.6294L22.92 12L22.6902 12.3706C22.6521 12.4321 21.7366 13.8922 19.9678 15.3558C17.6153 17.3022 14.8528 18.3311 11.9789 18.3311C9.10435 18.3311 6.34861 17.3016 4.00944 15.3543C2.25071 13.89 1.34544 12.4288 1.30772 12.3673ZM4.94657 14.3044C7.05082 16.0432 9.41691 16.9246 11.9789 16.9246C14.5418 16.9246 16.9156 16.0426 19.0342 14.3027C20.1299 13.403 20.8727 12.4918 21.2365 12C20.8725 11.5078 20.1297 10.5969 19.0342 9.69708C16.9156 7.9574 14.542 7.0752 11.9789 7.0752C9.41691 7.0752 7.051 7.95685 4.94657 9.69543C3.85581 10.5967 3.11936 11.5091 2.76048 12C3.11973 12.4911 3.856 13.4035 4.94657 14.3044Z" fill="white"/>
<path d="M12 7.77539C14.3296 7.77539 16.225 9.67071 16.225 12.0004C16.225 14.33 14.3296 16.2253 12 16.2253C9.67034 16.2253 7.77502 14.33 7.77502 12.0004C7.77502 9.67071 9.67034 7.77539 12 7.77539ZM12 14.8191C13.5542 14.8191 14.8187 13.5546 14.8187 12.0004C14.8187 10.4462 13.5542 9.18164 12 9.18164C10.4458 9.18164 9.18127 10.4462 9.18127 12.0004C9.18127 13.5546 10.4458 14.8191 12 14.8191Z" fill="white"/>
<path d="M22.5938 1.40625H19.6582V0H24V4.28906H22.5938V1.40625Z" fill="white"/>
<path d="M4.3418 0V1.40625H1.40625V4.28906H0V0H4.3418Z" fill="white"/>
<path d="M22.5938 19.7109H24V24H19.6582V22.5938H22.5938V19.7109Z" fill="white"/>
<path d="M1.40625 22.5938H4.3418V24H0V19.7109H1.40625V22.5938Z" fill="white"/>
</g>
<defs>
<clipPath id="clip0_913_1406">
<rect width="24" height="24" fill="white" transform="matrix(-1 0 0 1 24 0)"/>
</clipPath>
</defs>
</svg>
