<svg width="13" height="101" viewBox="0 0 13 101" fill="none" xmlns="http://www.w3.org/2000/svg">
<path d="M8.13153 100.187L10.0989 94.7591L4.41448 95.7692L8.13153 100.187ZM8.13159 0.499512C7.6571 0.341826 7.65709 0.34185 7.65709 0.341877C7.65708 0.341888 7.65707 0.341916 7.65707 0.341938C7.65705 0.341983 7.65703 0.342035 7.65701 0.342094C7.65698 0.342212 7.65693 0.342359 7.65687 0.342534C7.65675 0.342884 7.6566 0.343349 7.65641 0.343928C7.65602 0.345085 7.65549 0.3467 7.65481 0.348771C7.65345 0.352914 7.65149 0.358884 7.64895 0.366678C7.64388 0.382267 7.63648 0.405154 7.62687 0.435325C7.60764 0.495667 7.57955 0.585141 7.54343 0.703619C7.4712 0.940576 7.36686 1.29355 7.23718 1.76151L8.20086 2.02857C8.32824 1.56892 8.43019 1.22412 8.49997 0.995221C8.53486 0.880769 8.56171 0.795289 8.57968 0.738909C8.58866 0.710719 8.59542 0.689804 8.59985 0.67618C8.60207 0.669368 8.60371 0.664379 8.60475 0.661215C8.60527 0.659632 8.60564 0.658506 8.60586 0.657837C8.60597 0.657502 8.60604 0.657281 8.60608 0.657175C8.6061 0.657122 8.6061 0.657097 8.6061 0.657101C8.6061 0.657103 8.6061 0.657112 8.60609 0.657128C8.60609 0.657136 8.60609 0.657153 8.60608 0.657157C8.60608 0.657177 8.60607 0.657198 8.13159 0.499512ZM6.50521 4.64026C6.30678 5.48437 6.09184 6.45149 5.868 7.54047L6.84752 7.7418C7.06945 6.66213 7.28237 5.70417 7.47867 4.86909L6.50521 4.64026ZM5.30185 10.4743C5.13752 11.3819 4.97189 12.3494 4.80761 13.3766L5.79506 13.5345C5.95825 12.5142 6.12273 11.5533 6.28585 10.6524L5.30185 10.4743ZM4.36774 16.3054C4.2355 17.245 4.10585 18.2252 3.98028 19.2458L4.9728 19.3679C5.09765 18.3531 5.22655 17.3786 5.35798 16.4447L4.36774 16.3054ZM3.64258 22.1905C3.54119 23.1424 3.44395 24.1246 3.35185 25.137L4.34774 25.2276C4.43937 24.2203 4.5361 23.2432 4.63695 22.2964L3.64258 22.1905ZM3.10554 28.0856C3.03237 29.0456 2.9641 30.0297 2.90146 31.038L3.89953 31.1C3.96189 30.0964 4.02983 29.1169 4.10265 28.1616L3.10554 28.0856ZM2.73778 33.9964C2.69069 34.9651 2.64893 35.9541 2.61304 36.9632L3.61241 36.9988C3.64814 35.994 3.68972 35.0093 3.7366 34.0449L2.73778 33.9964ZM2.52638 39.9282C2.50422 40.893 2.4875 41.8748 2.47665 42.8736L3.47659 42.8844C3.48739 41.8897 3.50405 40.9119 3.52612 39.9511L2.52638 39.9282ZM2.46206 45.8319C2.46299 46.8081 2.46954 47.7994 2.48211 48.8058L3.48203 48.7933C3.46951 47.7907 3.46298 46.8033 3.46206 45.8309L2.46206 45.8319ZM2.53547 51.7562C2.55841 52.727 2.58695 53.711 2.62139 54.7082L3.62079 54.6737C3.58648 53.6802 3.55805 52.6998 3.53519 51.7326L2.53547 51.7562ZM2.74007 57.6816C2.78393 58.6505 2.83333 59.6312 2.88856 60.6237L3.88701 60.5681C3.83198 59.5791 3.78275 58.6019 3.73905 57.6364L2.74007 57.6816ZM3.06804 63.5771C3.13238 64.5542 3.20235 65.542 3.27816 66.5407L4.27529 66.465C4.19973 65.4697 4.13 64.4851 4.06587 63.5114L3.06804 63.5771ZM3.51526 69.4745C3.59909 70.4527 3.68851 71.4409 3.78371 72.4389L4.77919 72.344C4.68429 71.3491 4.59517 70.3642 4.51161 69.3891L3.51526 69.4745ZM4.07682 75.3665C4.17894 76.3407 4.28655 77.3239 4.39983 78.3161L5.39338 78.2027C5.28045 77.2135 5.17317 76.2334 5.07137 75.2622L4.07682 75.3665ZM4.74803 81.2481C4.86773 82.2187 4.99283 83.1976 5.12349 84.1847L6.11484 84.0535C5.98457 83.0693 5.85985 82.0933 5.74051 81.1257L4.74803 81.2481ZM5.52452 87.1158C5.6612 88.0834 5.80319 89.0587 5.95064 90.0416L6.93958 89.8933C6.79255 88.9132 6.65097 87.9408 6.51469 86.976L5.52452 87.1158ZM6.40225 92.9675C6.55541 93.9328 6.71381 94.9053 6.87758 95.8849L7.86389 95.72C7.70058 94.7431 7.54262 93.7734 7.38989 92.8108L6.40225 92.9675ZM8.13153 100.187L12.0663 89.3311L0.697434 91.3514L8.13153 100.187ZM8.13159 0.499512C7.18262 0.18414 7.1826 0.184187 7.18259 0.184236C7.18258 0.184255 7.18256 0.184306 7.18255 0.184344C7.18253 0.184419 7.1825 0.184501 7.18247 0.184591C7.18241 0.18477 7.18234 0.184977 7.18226 0.185213C7.18211 0.185686 7.18191 0.186272 7.18168 0.186973C7.18122 0.188375 7.1806 0.190234 7.17984 0.19255C7.17832 0.197182 7.1762 0.203642 7.1735 0.211927C7.16811 0.228498 7.1604 0.252372 7.15047 0.283533C7.13061 0.345856 7.1019 0.437327 7.06516 0.557819C6.9917 0.798801 6.88617 1.15586 6.75534 1.62798L8.6827 2.1621C8.80893 1.7066 8.90969 1.3659 8.97824 1.14102C9.01252 1.02858 9.03875 0.9451 9.05608 0.890701C9.06474 0.863501 9.07119 0.843573 9.0753 0.830931C9.07736 0.82461 9.07883 0.820111 9.07971 0.817436C9.08016 0.816099 9.08045 0.815217 9.08059 0.814791C9.08066 0.814579 9.08069 0.81448 9.08068 0.814495C9.08068 0.814503 9.08067 0.814539 9.08065 0.814604C9.08064 0.814636 9.08062 0.814676 9.08061 0.814722C9.0806 0.814746 9.08059 0.814786 9.08058 0.814798C9.08057 0.81484 9.08056 0.814884 8.13159 0.499512ZM6.01847 4.52584C5.81898 5.37447 5.60303 6.34618 5.37824 7.4398L7.33728 7.84247C7.55825 6.76744 7.77016 5.81407 7.9654 4.98351L6.01847 4.52584ZM4.80984 10.3852C4.64491 11.2961 4.47871 12.2671 4.31389 13.2976L6.28879 13.6135C6.45143 12.5965 6.61534 11.6391 6.77785 10.7415L4.80984 10.3852ZM3.87262 16.2357C3.73998 17.1782 3.60994 18.1613 3.48402 19.1848L5.46905 19.429C5.59355 18.4171 5.72207 17.4455 5.85311 16.5144L3.87262 16.2357ZM3.14539 22.1375C3.04373 23.0919 2.94624 24.0767 2.85391 25.0917L4.84568 25.2729C4.93708 24.2682 5.03356 23.2936 5.13414 22.3494L3.14539 22.1375ZM2.60699 28.0476C2.53364 29.0099 2.46521 29.9964 2.40242 31.007L4.39857 31.131C4.46078 30.1298 4.52856 29.1526 4.6012 28.1996L2.60699 28.0476ZM2.23837 33.9721C2.19118 34.943 2.14932 35.9341 2.11336 36.9454L4.11209 37.0165C4.14775 36.0139 4.18924 35.0314 4.23601 34.0692L2.23837 33.9721ZM2.02651 39.9167C2.0043 40.8835 1.98755 41.8673 1.97668 42.8681L3.97656 42.8899C3.98734 41.8971 4.00396 40.9214 4.02598 39.9626L2.02651 39.9167ZM1.96206 45.8323C1.96299 46.8104 1.96956 47.8037 1.98215 48.812L3.98199 48.787C3.9695 47.7864 3.96298 46.8009 3.96206 45.8305L1.96206 45.8323ZM2.0356 51.7681C2.0586 52.7407 2.08719 53.7265 2.12169 54.7255L4.1205 54.6564C4.08625 53.6647 4.05787 52.6862 4.03505 51.7208L2.0356 51.7681ZM2.24059 57.7042C2.28452 58.6749 2.33401 59.6573 2.38933 60.6514L4.38624 60.5403C4.33131 59.5531 4.28216 58.5775 4.23854 57.6138L2.24059 57.7042ZM2.56912 63.61C2.63357 64.5887 2.70366 65.5782 2.7796 66.5785L4.77386 66.4271C4.69843 65.4335 4.62881 64.4506 4.56479 63.4786L2.56912 63.61ZM3.01709 69.5172C3.10105 70.497 3.19061 71.4868 3.28597 72.4864L5.27694 72.2965C5.18218 71.3033 5.0932 70.3199 5.00979 69.3464L3.01709 69.5172ZM3.57955 75.4186C3.68182 76.3943 3.7896 77.3791 3.90306 78.3728L5.89015 78.146C5.77739 77.1583 5.67029 76.1797 5.56865 75.2101L3.57955 75.4186ZM4.25179 81.3093C4.37167 82.2813 4.49696 83.2617 4.62781 84.2503L6.61052 83.9879C6.48044 83.0051 6.35591 82.0307 6.23676 81.0645L4.25179 81.3093ZM5.02944 87.1858C5.16631 88.1548 5.30851 89.1315 5.45618 90.1158L7.43405 89.8191C7.28723 88.8404 7.14585 87.8694 7.00978 86.906L5.02944 87.1858ZM5.90842 93.0458C6.0618 94.0125 6.22043 94.9864 6.38443 95.9673L8.35705 95.6375C8.19396 94.6621 8.03623 93.6937 7.88371 92.7324L5.90842 93.0458Z" fill="#0D3982"/>
</svg>
