<svg width="11" height="113" viewBox="0 0 11 113" fill="none" xmlns="http://www.w3.org/2000/svg">
<path d="M1.50003 -0.000170022L0.832098 5.73457L6.13249 3.44564L1.50003 -0.000170022ZM3.99999 112.001C4.49697 112.056 4.49697 112.056 4.49697 112.056C4.49697 112.056 4.49697 112.056 4.49697 112.056C4.49698 112.056 4.49698 112.055 4.49698 112.055C4.49699 112.055 4.497 112.055 4.49702 112.055C4.49705 112.055 4.49709 112.055 4.49714 112.054C4.49725 112.053 4.49742 112.052 4.49763 112.05C4.49806 112.046 4.49871 112.04 4.49955 112.032C4.50125 112.017 4.50378 111.993 4.50711 111.963C4.51377 111.902 4.52364 111.81 4.5365 111.69C4.56223 111.45 4.59994 111.094 4.64795 110.63L3.65326 110.527C3.60538 110.99 3.56779 111.345 3.54218 111.584C3.52938 111.703 3.51958 111.794 3.51298 111.855C3.50968 111.885 3.50718 111.908 3.50551 111.923C3.50468 111.931 3.50405 111.936 3.50363 111.94C3.50342 111.942 3.50327 111.943 3.50317 111.944C3.50311 111.945 3.50308 111.945 3.50305 111.945C3.50304 111.946 3.50303 111.946 3.50302 111.946C3.50302 111.946 3.50302 111.946 3.50302 111.946C3.50302 111.946 3.50302 111.946 3.50302 111.946C3.50302 111.946 3.50302 111.946 3.99999 112.001ZM4.94499 107.663C5.02987 106.79 5.1242 105.798 5.22564 104.7L4.22987 104.608C4.12859 105.705 4.03441 106.695 3.94968 107.566L4.94499 107.663ZM5.49351 101.727C5.57577 100.792 5.66082 99.8037 5.74775 98.7665L4.75124 98.683C4.66444 99.7188 4.5795 100.706 4.49735 101.64L5.49351 101.727ZM5.98946 95.8112C6.06561 94.8566 6.1425 93.8697 6.21954 92.8531L5.2224 92.7775C5.14546 93.7927 5.06868 94.7783 4.99262 95.7316L5.98946 95.8112ZM6.43841 89.8867C6.50809 88.916 6.57745 87.923 6.64607 86.9098L5.64835 86.8422C5.57983 87.8541 5.51056 88.8457 5.44098 89.8152L6.43841 89.8867ZM6.84082 83.9437C6.90249 82.974 6.96317 81.9886 7.02253 80.9892L6.02429 80.9299C5.96502 81.9279 5.90442 82.9119 5.84283 83.8803L6.84082 83.9437ZM7.19259 78.0179C7.24664 77.0361 7.29917 76.0428 7.34989 75.0395L6.35116 74.9891C6.30052 75.9908 6.24807 76.9826 6.1941 77.9629L7.19259 78.0179ZM7.49253 72.0833C7.53767 71.1002 7.58087 70.109 7.62186 69.1111L6.6227 69.07C6.58178 70.0663 6.53865 71.0559 6.49358 72.0374L7.49253 72.0833ZM7.73654 66.1366C7.77194 65.1532 7.80499 64.1646 7.83547 63.1718L6.83594 63.1411C6.80552 64.1321 6.77252 65.119 6.73719 66.1006L7.73654 66.1366ZM7.91851 60.1973C7.94329 59.2095 7.96532 58.2189 7.98435 57.2263L6.98453 57.2072C6.96554 58.1977 6.94356 59.1864 6.91883 60.1722L7.91851 60.1973ZM8.0321 54.2541C8.04488 53.2634 8.05445 52.2721 8.06059 51.281L7.06061 51.2748C7.05448 52.2636 7.04493 53.2527 7.03219 54.2412L8.0321 54.2541ZM8.06849 48.3076C8.06753 47.3143 8.06288 46.3224 8.0543 45.333L7.05433 45.3417C7.06289 46.3284 7.06754 47.3177 7.0685 48.3086L8.06849 48.3076ZM8.01636 42.3644C7.99942 41.3671 7.97819 40.3735 7.95243 39.3849L6.95277 39.4109C6.97845 40.3964 6.99962 41.387 7.01651 42.3814L8.01636 42.3644ZM7.86053 36.4134C7.82473 35.4173 7.78396 34.4276 7.73797 33.4453L6.73907 33.4921C6.78488 34.4706 6.8255 35.4567 6.86118 36.4493L7.86053 36.4134ZM7.58073 30.4654C7.5219 29.4671 7.4572 28.4781 7.38634 27.4998L6.38896 27.572C6.45947 28.5457 6.52388 29.5302 6.58246 30.5242L7.58073 30.4654ZM7.1498 24.5385C7.06161 23.5325 6.96626 22.5398 6.8634 21.5619L5.86889 21.6665C5.9711 22.6383 6.0659 23.6253 6.15362 24.6258L7.1498 24.5385ZM6.52296 18.6024C6.39773 17.6039 6.26373 16.6237 6.12056 15.6636L5.1315 15.8111C5.27345 16.763 5.40641 17.7355 5.53073 18.7269L6.52296 18.6024ZM5.63982 12.7143C5.46054 11.7061 5.26957 10.7245 5.06638 9.77203L4.08838 9.98067C4.28902 10.9211 4.47781 11.8915 4.65527 12.8894L5.63982 12.7143ZM4.38138 6.8563C4.12241 5.85473 3.84698 4.89302 3.55424 3.97492L2.6015 4.2787C2.88803 5.17735 3.15839 6.1211 3.41322 7.10663L4.38138 6.8563ZM1.50003 -0.000170022L0.164168 11.4693L10.765 6.89146L1.50003 -0.000170022ZM3.99999 112.001C4.99395 112.11 4.99395 112.11 4.99395 112.11C4.99395 112.11 4.99395 112.11 4.99395 112.11C4.99396 112.11 4.99396 112.11 4.99396 112.11C4.99397 112.11 4.99398 112.11 4.994 112.11C4.99403 112.11 4.99407 112.109 4.99413 112.109C4.99424 112.108 4.99441 112.106 4.99463 112.104C4.99507 112.1 4.99572 112.094 4.99658 112.087C4.99829 112.071 5.00083 112.048 5.00418 112.017C5.01087 111.955 5.02076 111.864 5.03366 111.744C5.05945 111.503 5.09723 111.146 5.1453 110.681L3.15592 110.475C3.1081 110.938 3.07057 111.292 3.04503 111.531C3.03225 111.65 3.02248 111.74 3.01591 111.801C3.01263 111.831 3.01014 111.853 3.00849 111.869C3.00766 111.876 3.00704 111.882 3.00663 111.885C3.00643 111.887 3.00628 111.889 3.00618 111.89C3.00613 111.89 3.00609 111.89 3.00607 111.891C3.00606 111.891 3.00605 111.891 3.00604 111.891C3.00604 111.891 3.00604 111.891 3.00604 111.891C3.00604 111.891 3.00604 111.891 3.00604 111.891C3.00604 111.891 3.00604 111.891 3.99999 112.001ZM5.44265 107.711C5.5276 106.837 5.622 105.845 5.72352 104.746L3.73199 104.562C3.63078 105.658 3.53669 106.647 3.45203 107.518L5.44265 107.711ZM5.99158 101.771C6.0739 100.835 6.15902 99.8462 6.246 98.8083L4.25299 98.6413C4.16624 99.6763 4.08136 100.663 3.99927 101.596L5.99158 101.771ZM6.48787 95.8509C6.56408 94.8957 6.64101 93.9081 6.71811 92.8909L4.72383 92.7397C4.64694 93.7543 4.57021 94.7392 4.49421 95.6919L6.48787 95.8509ZM6.93713 89.9225C7.00685 88.9512 7.07626 87.9575 7.14492 86.9435L5.14949 86.8084C5.08102 87.8196 5.0118 88.8106 4.94226 89.7794L6.93713 89.9225ZM7.33981 83.9755C7.40152 83.005 7.46225 82.019 7.52165 81.0188L5.52517 80.9002C5.46594 81.8975 5.40538 82.8808 5.34384 83.8485L7.33981 83.9755ZM7.69183 78.0454C7.74592 77.0628 7.79849 76.0689 7.84925 75.0648L5.8518 74.9638C5.8012 75.9648 5.74879 76.9558 5.69486 77.9354L7.69183 78.0454ZM7.992 72.1062C8.03718 71.1223 8.08042 70.1304 8.12144 69.1316L6.12312 69.0495C6.08224 70.045 6.03914 71.0337 5.99411 72.0145L7.992 72.1062ZM8.23621 66.1546C8.27164 65.1704 8.30473 64.1808 8.33523 63.1871L6.33617 63.1258C6.30578 64.1159 6.27282 65.1018 6.23751 66.0826L8.23621 66.1546ZM8.41835 60.2098C8.44316 59.2211 8.46521 58.2295 8.48426 57.2359L6.48463 57.1976C6.46565 58.1871 6.44369 59.1748 6.41898 60.1597L8.41835 60.2098ZM8.53206 54.2605C8.54485 53.2688 8.55443 52.2763 8.56058 51.2841L6.56062 51.2717C6.5545 52.2593 6.54496 53.2473 6.53223 54.2347L8.53206 54.2605ZM8.5685 48.3071C8.56753 47.3126 8.56287 46.3194 8.55428 45.3287L6.55435 45.346C6.5629 46.3314 6.56754 47.3194 6.5685 48.3091L8.5685 48.3071ZM8.51629 42.3559C8.49932 41.3571 8.47806 40.3621 8.45226 39.3719L6.45294 39.4239C6.47858 40.4079 6.49971 41.3969 6.51658 42.3899L8.51629 42.3559ZM8.36021 36.3954C8.32435 35.3976 8.2835 34.4061 8.23742 33.4219L6.23961 33.5154C6.28534 34.4921 6.32588 35.4764 6.3615 36.4672L8.36021 36.3954ZM8.07987 30.436C8.02091 29.4356 7.95606 28.4443 7.88504 27.4637L5.89026 27.6081C5.96061 28.5795 6.02487 29.5617 6.08333 30.5536L8.07987 30.436ZM7.64788 24.4949C7.55946 23.4861 7.46383 22.4905 7.36066 21.5096L5.37163 21.7188C5.47353 22.6876 5.56805 23.6716 5.65553 24.6695L7.64788 24.4949ZM7.01907 18.5402C6.89339 17.5381 6.75887 16.554 6.61509 15.5899L4.63697 15.8848C4.77831 16.8327 4.91074 17.8014 5.03462 18.7891L7.01907 18.5402ZM6.1321 12.6267C5.9519 11.6134 5.75985 10.6262 5.55537 9.66771L3.59939 10.085C3.79874 11.0194 3.98645 11.9842 4.16299 12.9769L6.1321 12.6267ZM4.86546 6.73113C4.60442 5.72155 4.32645 4.75087 4.03061 3.82302L2.12513 4.43059C2.40856 5.3195 2.67639 6.25428 2.92914 7.2318L4.86546 6.73113Z" fill="#0D3982"/>
</svg>
