<svg width="94" height="98" viewBox="0 0 94 98" fill="none" xmlns="http://www.w3.org/2000/svg">
<path d="M93.5 0.499968L88.4602 3.31665L93.4194 6.27291L93.5 0.499968ZM0.5 96.5C0.736802 96.9404 0.736817 96.9404 0.736834 96.9404C0.736842 96.9403 0.736861 96.9403 0.736877 96.9403C0.736909 96.9403 0.736949 96.9403 0.736995 96.9403C0.737087 96.9402 0.737208 96.9402 0.737357 96.9401C0.737655 96.9399 0.738065 96.9397 0.738588 96.9394C0.739634 96.9388 0.741131 96.938 0.743075 96.937C0.746965 96.9349 0.752648 96.9318 0.760112 96.9278C0.77504 96.9197 0.797091 96.9076 0.82616 96.8917C0.884298 96.8599 0.970508 96.8123 1.08395 96.7489C1.31083 96.6222 1.64664 96.4322 2.08466 96.1778L1.58244 95.313C1.14935 95.5646 0.818389 95.7518 0.596273 95.8759C0.485215 95.938 0.401369 95.9842 0.345577 96.0148C0.31768 96.0301 0.296797 96.0414 0.283032 96.0489C0.27615 96.0526 0.271047 96.0554 0.267737 96.0572C0.266082 96.0581 0.264875 96.0587 0.264118 96.0591C0.263739 96.0593 0.263473 96.0595 0.26332 96.0596C0.263243 96.0596 0.263195 96.0596 0.263174 96.0596C0.263164 96.0596 0.263161 96.0597 0.263165 96.0596C0.263167 96.0596 0.263175 96.0596 0.263176 96.0596C0.263186 96.0596 0.263198 96.0596 0.5 96.5ZM4.70625 94.6053C5.47469 94.1315 6.3458 93.5843 7.31166 92.9624L6.77026 92.1216C5.81002 92.7399 4.94445 93.2837 4.18146 93.754L4.70625 94.6053ZM9.89323 91.2684C10.6938 90.7335 11.5397 90.1597 12.4281 89.5465L11.86 88.7235C10.9759 89.3338 10.1342 89.9048 9.3377 90.4369L9.89323 91.2684ZM14.9455 87.782C15.7506 87.2093 16.5835 86.6087 17.4425 85.98L16.8518 85.173C15.9965 85.799 15.1673 86.397 14.3658 86.9672L14.9455 87.782ZM19.9202 84.1417C20.7168 83.5426 21.5324 82.9217 22.3657 82.2787L21.7548 81.487C20.9248 82.1274 20.1125 82.7458 19.3192 83.3424L19.9202 84.1417ZM24.7761 80.3954C25.5616 79.7741 26.3608 79.1345 27.1728 78.4764L26.5432 77.6995C25.7343 78.355 24.9381 78.9922 24.1557 79.6111L24.7761 80.3954ZM29.5588 76.5196C30.3346 75.8758 31.1208 75.2159 31.9167 74.54L31.2693 73.7778C30.4764 74.4513 29.6931 75.1087 28.9202 75.7501L29.5588 76.5196ZM34.2369 72.5468C35.0011 71.8829 35.7732 71.2046 36.5528 70.512L35.8886 69.7644C35.1118 70.4546 34.3425 71.1304 33.581 71.7919L34.2369 72.5468ZM38.842 68.4553C39.5878 67.7777 40.3397 67.0874 41.0971 66.3841L40.4167 65.6513C39.6619 66.3521 38.9127 67.04 38.1696 67.7151L38.842 68.4553ZM43.3516 64.268C44.0827 63.5742 44.8186 62.8686 45.5586 62.1512L44.8625 61.4332C44.1251 62.1481 43.3918 62.8512 42.6632 63.5426L43.3516 64.268ZM47.7571 59.9969C48.4783 59.2826 49.2031 58.5572 49.931 57.8208L49.2198 57.1178C48.4944 57.8517 47.7721 58.5746 47.0534 59.2864L47.7571 59.9969ZM52.0753 55.6282C52.7845 54.8954 53.4963 54.1522 54.2104 53.3985L53.4845 52.7107C52.7728 53.4619 52.0635 54.2025 51.3567 54.9328L52.0753 55.6282ZM56.3024 51.1671C56.998 50.4174 57.6953 49.6578 58.3942 48.8884L57.654 48.216C56.9575 48.9829 56.2625 49.7398 55.5693 50.4869L56.3024 51.1671ZM60.4356 46.6172C61.1162 45.8522 61.7979 45.0777 62.4805 44.2938L61.7264 43.6371C61.0461 44.4183 60.3667 45.1901 59.6884 45.9526L60.4356 46.6172ZM64.4728 41.9818C65.1375 41.2024 65.8028 40.414 66.4685 39.6166L65.7008 38.9757C65.0374 39.7704 64.3744 40.5561 63.7119 41.333L64.4728 41.9818ZM68.4125 37.2633C69.0607 36.4703 69.7089 35.6688 70.3571 34.8587L69.5762 34.234C68.9303 35.0413 68.2842 35.8401 67.6382 36.6304L68.4125 37.2633ZM72.2532 32.4637C72.8841 31.6582 73.5147 30.8446 74.1447 30.0227L73.3511 29.4143C72.7232 30.2334 72.0947 31.0443 71.4659 31.847L72.2532 32.4637ZM75.9936 27.5849C76.6068 26.7677 77.2192 25.9427 77.8307 25.1098L77.0246 24.518C76.4152 25.348 75.8049 26.1703 75.1938 26.9847L75.9936 27.5849ZM79.6327 22.6286C80.2277 21.8004 80.8216 20.9647 81.4142 20.1214L80.596 19.5465C80.0054 20.3869 79.4135 21.2197 78.8206 22.0451L79.6327 22.6286ZM83.1693 17.5963C83.7457 16.7578 84.3207 15.9121 84.8941 15.0591L84.0642 14.5012C83.4927 15.3513 82.9197 16.1942 82.3452 17.0298L83.1693 17.5963ZM86.6023 12.4895C87.1598 11.6414 87.7156 10.7863 88.2696 9.92422L87.4284 9.38359C86.8762 10.2428 86.3223 11.095 85.7667 11.9402L86.6023 12.4895ZM89.9261 7.31695C90.4659 6.45744 91.0039 5.59117 91.5398 4.71811L90.6875 4.19499C90.1534 5.06511 89.6173 5.92847 89.0793 6.78509L89.9261 7.31695ZM93.5 0.499968L83.4204 6.13332L93.3388 12.0458L93.5 0.499968ZM0.5 96.5C0.973604 97.3807 0.973633 97.3807 0.973664 97.3807C0.973676 97.3807 0.973708 97.3807 0.973734 97.3807C0.973784 97.3806 0.973841 97.3806 0.973905 97.3806C0.974034 97.3805 0.974191 97.3804 0.974376 97.3803C0.974746 97.3801 0.975228 97.3799 0.975824 97.3795C0.977014 97.3789 0.978655 97.378 0.980744 97.3769C0.984923 97.3746 0.990897 97.3714 0.998652 97.3672C1.01416 97.3588 1.0368 97.3464 1.06645 97.3302C1.12576 97.2977 1.21315 97.2495 1.32779 97.1854C1.55705 97.0574 1.89529 96.866 2.33576 96.6102L1.33133 94.8807C0.900706 95.1308 0.572167 95.3167 0.352434 95.4394C0.242568 95.5008 0.159905 95.5464 0.105285 95.5763C0.077975 95.5913 0.0576759 95.6023 0.0444927 95.6095C0.0379011 95.613 0.0330884 95.6156 0.0300679 95.6173C0.0285576 95.6181 0.0274954 95.6187 0.0268828 95.619C0.0265765 95.6192 0.0263827 95.6193 0.0263014 95.6193C0.0262608 95.6193 0.0262483 95.6193 0.026264 95.6193C0.0262719 95.6193 0.0262868 95.6193 0.0263088 95.6193C0.0263198 95.6193 0.0263415 95.6193 0.026347 95.6193C0.0263705 95.6193 0.0263958 95.6193 0.5 96.5ZM4.96865 95.0309C5.73981 94.5555 6.61368 94.0065 7.58236 93.3827L6.49956 91.7012C5.54213 92.3177 4.67934 92.8597 3.91907 93.3284L4.96865 95.0309ZM10.171 91.6841C10.9736 91.1479 11.8216 90.5726 12.7121 89.958L11.5759 88.312C10.694 88.9209 9.85432 89.4904 9.05994 90.0211L10.171 91.6841ZM15.2354 88.1894C16.0422 87.6154 16.8769 87.0135 17.7378 86.3835L16.5565 84.7695C15.703 85.3942 14.8756 85.9909 14.076 86.5598L15.2354 88.1894ZM20.2207 84.5413C21.0189 83.941 21.8362 83.3188 22.6712 82.6745L21.4494 81.0911C20.621 81.7303 19.8104 82.3475 19.0187 82.9428L20.2207 84.5413ZM25.0863 80.7876C25.8733 80.165 26.674 79.5242 27.4877 78.8648L26.2284 77.311C25.421 77.9653 24.6264 78.6013 23.8455 79.219L25.0863 80.7876ZM29.8781 76.9044C30.6554 76.2593 31.443 75.5983 32.2403 74.9211L30.9456 73.3967C30.1541 74.0689 29.3723 74.7251 28.6009 75.3653L29.8781 76.9044ZM34.5648 72.9243C35.3304 72.2591 36.104 71.5796 36.8849 70.8857L35.5565 69.3907C34.7811 70.0796 34.0131 70.7542 33.2531 71.4145L34.5648 72.9243ZM39.1782 68.8254C39.9253 68.1466 40.6785 67.455 41.4373 66.7506L40.0765 65.2849C39.3231 65.9844 38.5752 66.6711 37.8333 67.345L39.1782 68.8254ZM43.6957 64.6307C44.4282 63.9356 45.1653 63.2288 45.9066 62.5102L44.5145 61.0742C43.7783 61.7878 43.0464 62.4897 42.319 63.1799L43.6957 64.6307ZM48.1089 60.3522C48.8314 59.6366 49.5574 58.91 50.2866 58.1723L48.8642 56.7663C48.14 57.499 47.419 58.2206 46.7015 58.9312L48.1089 60.3522ZM52.4346 55.9759C53.145 55.2419 53.858 54.4974 54.5733 53.7424L53.1215 52.3668C52.4111 53.1167 51.7029 53.8561 50.9974 54.5851L52.4346 55.9759ZM56.669 51.5071C57.3657 50.7562 58.0642 49.9953 58.7643 49.2245L57.2839 47.8798C56.5885 48.6454 55.8947 49.401 55.2028 50.1469L56.669 51.5071ZM60.8092 46.9496C61.4909 46.1832 62.1738 45.4074 62.8576 44.6221L61.3493 43.3087C60.6702 44.0886 59.9919 44.8591 59.3148 45.6203L60.8092 46.9496ZM64.8533 42.3063C65.5191 41.5255 66.1855 40.7357 66.8523 39.937L65.317 38.6553C64.6547 39.4486 63.9928 40.233 63.3315 41.0085L64.8533 42.3063ZM68.7996 37.5797C69.4489 36.7854 70.0982 35.9826 70.7475 35.1711L69.1858 33.9216C68.541 34.7276 67.896 35.525 67.2511 36.314L68.7996 37.5797ZM72.6468 32.772C73.2788 31.9652 73.9104 31.1502 74.5415 30.3269L72.9543 29.1101C72.3274 29.9278 71.7 30.7373 71.0723 31.5387L72.6468 32.772ZM76.3936 27.885C77.0078 27.0664 77.6212 26.24 78.2338 25.4057L76.6216 24.2221C76.0132 25.0507 75.4039 25.8716 74.7938 26.6846L76.3936 27.885ZM80.0388 22.9203C80.6348 22.0907 81.2296 21.2536 81.8233 20.4089L80.1869 19.259C79.5973 20.0979 79.0064 20.9294 78.4145 21.7534L80.0388 22.9203ZM83.5814 17.8795C84.1587 17.0396 84.7347 16.1925 85.3091 15.3381L83.6493 14.2222C83.0787 15.0709 82.5067 15.9123 81.9332 16.7466L83.5814 17.8795ZM87.0202 12.7641C87.5786 11.9146 88.1353 11.0581 88.6903 10.1945L87.0078 9.11327C86.4565 9.971 85.9035 10.8218 85.3489 11.6656L87.0202 12.7641ZM90.3495 7.58288C90.8903 6.72192 91.4291 5.85419 91.9659 4.97967L90.2614 3.93343C89.7282 4.80208 89.193 5.66398 88.6559 6.51916L90.3495 7.58288Z" fill="#0D3982"/>
</svg>
