<svg width="89" height="93" viewBox="0 0 89 93" fill="none" xmlns="http://www.w3.org/2000/svg">
<path d="M0.000114259 0.212441L2.95846 5.17041L5.77302 0.129423L0.000114259 0.212441ZM88.0001 92.5C88.4393 92.2611 88.4393 92.2611 88.4393 92.2611C88.4393 92.261 88.4393 92.261 88.4393 92.261C88.4392 92.261 88.4392 92.261 88.4392 92.2609C88.4392 92.2608 88.4391 92.2607 88.439 92.2606C88.4389 92.2603 88.4387 92.26 88.4384 92.2595C88.4379 92.2585 88.4371 92.2571 88.4361 92.2552C88.4341 92.2515 88.4311 92.246 88.4271 92.2388C88.4192 92.2243 88.4074 92.2028 88.3918 92.1744C88.3606 92.1177 88.314 92.0335 88.2522 91.9226C88.1286 91.7009 87.9442 91.3727 87.7 90.9455L86.8318 91.4418C87.0742 91.8658 87.2568 92.1908 87.3787 92.4094C87.4396 92.5188 87.4854 92.6015 87.5158 92.6567C87.531 92.6843 87.5423 92.7051 87.5499 92.7188C87.5536 92.7257 87.5564 92.7308 87.5582 92.7342C87.5592 92.7358 87.5598 92.7371 87.5603 92.7379C87.5605 92.7383 87.5606 92.7386 87.5607 92.7387C87.5608 92.7388 87.5608 92.7389 87.5608 92.7389C87.5609 92.7389 87.5609 92.739 87.5609 92.739C87.5609 92.739 87.5609 92.739 87.5609 92.739C87.5609 92.7389 87.5608 92.7389 88.0001 92.5ZM86.1386 88.274C85.677 87.4992 85.1474 86.6219 84.5512 85.6514L83.6992 86.1749C84.2929 87.1413 84.8201 88.0148 85.2795 88.7858L86.1386 88.274ZM82.926 83.0417C82.4082 82.2211 81.8552 81.3546 81.2675 80.4459L80.4278 80.9889C81.0134 81.8944 81.5644 82.7578 82.0803 83.5754L82.926 83.0417ZM79.5826 77.8708C79.0363 77.0454 78.4659 76.1926 77.8717 75.3146L77.0435 75.875C77.6358 76.7502 78.2043 77.6002 78.7487 78.4227L79.5826 77.8708ZM76.1331 72.7733C75.5625 71.9482 74.9731 71.1045 74.3652 70.2439L73.5484 70.8209C74.1544 71.6787 74.7418 72.5196 75.3106 73.3421L76.1331 72.7733ZM72.5696 67.7286C71.9844 66.9174 71.384 66.0933 70.7686 65.2576L69.9634 65.8506C70.5768 66.6836 71.1753 67.505 71.7586 68.3137L72.5696 67.7286ZM68.9341 62.7921C68.3246 61.9813 67.7018 61.1611 67.0658 60.3325L66.2725 60.9413C66.9064 61.7672 67.5272 62.5848 68.1348 63.393L68.9341 62.7921ZM65.1829 57.9044C64.5594 57.1086 63.9243 56.3062 63.2778 55.4981L62.4969 56.1228C63.1413 56.9282 63.7743 57.728 64.3958 58.5211L65.1829 57.9044ZM61.3364 53.0967C60.6951 52.3118 60.0435 51.5224 59.3815 50.7292L58.6138 51.3699C59.2734 52.1604 59.9229 52.9471 60.562 53.7294L61.3364 53.0967ZM57.3996 48.3795C56.7365 47.6017 56.0638 46.8211 55.3815 46.0382L54.6276 46.6951C55.3075 47.4753 55.9778 48.2532 56.6386 49.0283L57.3996 48.3795ZM53.3569 43.7403C52.678 42.9782 51.9902 42.2146 51.2936 41.4501L50.5545 42.1236C51.2485 42.8853 51.9337 43.6461 52.6102 44.4055L53.3569 43.7403ZM49.2094 39.1886C48.5143 38.4431 47.811 37.6972 47.0995 36.9517L46.3761 37.6421C47.0848 38.3848 47.7855 39.1278 48.478 39.8706L49.2094 39.1886ZM44.9566 34.733C44.2446 34.0047 43.5249 33.2772 42.7975 32.5511L42.091 33.2588C42.8155 33.982 43.5323 34.7066 44.2415 35.4321L44.9566 34.733ZM40.6006 30.3852C39.8698 29.6738 39.1317 28.9642 38.3863 28.257L37.698 28.9825C38.4402 29.6867 39.1753 30.3932 39.903 31.1017L40.6006 30.3852ZM36.1372 26.1511C35.3863 25.4574 34.6285 24.7665 33.8636 24.0788L33.195 24.8225C33.9565 25.507 34.711 26.1949 35.4586 26.8856L36.1372 26.1511ZM31.5602 22.0366C30.7892 21.3627 30.0115 20.6924 29.2271 20.0264L28.5798 20.7886C29.3605 21.4516 30.1346 22.1187 30.902 22.7895L31.5602 22.0366ZM26.8672 18.0522C26.076 17.4002 25.2783 16.7528 24.4741 16.1105L23.85 16.8918C24.6501 17.5309 25.4439 18.1751 26.2313 18.8239L26.8672 18.0522ZM22.0559 14.2094C21.2442 13.5816 20.4263 12.9593 19.6022 12.3429L19.0032 13.1437C19.823 13.7568 20.6366 14.3759 21.444 15.0004L22.0559 14.2094ZM17.1239 10.5209C16.2921 9.92004 15.4542 9.32546 14.6103 8.73761L14.0387 9.55815C14.8778 10.1427 15.7111 10.734 16.5383 11.3315L17.1239 10.5209ZM12.0693 7.00055C11.217 6.42896 10.3587 5.86447 9.49467 5.30755L8.95292 6.14809C9.8118 6.70166 10.6649 7.2628 11.5123 7.83107L12.0693 7.00055ZM6.89071 3.66349C6.01768 3.12375 5.13888 2.59196 4.25439 2.06858L3.74514 2.92919C4.62397 3.44923 5.49723 3.97766 6.36486 4.51406L6.89071 3.66349ZM0.000114259 0.212441L5.9168 10.1284L11.5459 0.046411L0.000114259 0.212441ZM88.0001 92.5C88.8785 92.0221 88.8785 92.0221 88.8785 92.0221C88.8785 92.0221 88.8785 92.0221 88.8784 92.0221C88.8784 92.022 88.8784 92.022 88.8784 92.0219C88.8783 92.0218 88.8783 92.0217 88.8782 92.0215C88.878 92.0212 88.8778 92.0208 88.8775 92.0203C88.8769 92.0192 88.8761 92.0177 88.875 92.0157C88.8729 92.0118 88.8698 92.0061 88.8657 91.9987C88.8576 91.9839 88.8456 91.962 88.8298 91.9333C88.7981 91.8758 88.7512 91.7908 88.6889 91.6792C88.5645 91.4559 88.3792 91.1262 88.1341 90.6974L86.3977 91.6899C86.6392 92.1123 86.8209 92.4357 86.9419 92.6529C87.0025 92.7614 87.0478 92.8434 87.0778 92.8979C87.0928 92.9251 87.1039 92.9455 87.1112 92.9589C87.1149 92.9655 87.1176 92.9705 87.1193 92.9737C87.1202 92.9752 87.1208 92.9764 87.1212 92.9771C87.1214 92.9774 87.1215 92.9777 87.1216 92.9778C87.1216 92.9779 87.1217 92.9779 87.1217 92.9779C87.1217 92.9779 87.1217 92.9779 87.1217 92.9779C87.1217 92.9779 87.1217 92.9779 87.1216 92.9779C87.1216 92.9779 87.1216 92.9779 88.0001 92.5ZM86.5681 88.0181C86.1054 87.2414 85.5746 86.3621 84.9772 85.3897L83.2731 86.4366C83.8656 87.4011 84.3917 88.2725 84.8499 89.0417L86.5681 88.0181ZM83.3488 82.7749C82.8301 81.9528 82.276 81.0847 81.6873 80.1743L80.0079 81.2604C80.5925 82.1644 81.1425 83.0262 81.6574 83.8422L83.3488 82.7749ZM79.9996 77.5949C79.4523 76.7681 78.881 75.9138 78.2858 75.0343L76.6294 76.1553C77.2207 77.029 77.7883 77.8775 78.3318 78.6987L79.9996 77.5949ZM76.5443 72.4889C75.9728 71.6624 75.3825 70.8174 74.7736 69.9554L73.14 71.1094C73.745 71.9658 74.3315 72.8053 74.8994 73.6265L76.5443 72.4889ZM72.9751 67.4361C72.3889 66.6236 71.7876 65.7982 71.1712 64.9612L69.5607 66.1471C70.1732 66.9787 70.7707 67.7988 71.3531 68.6062L72.9751 67.4361ZM69.3338 62.4917C68.7233 61.6795 68.0994 60.858 67.4625 60.0281L65.8759 61.2458C66.5087 62.0703 67.1285 62.8865 67.7351 63.6935L69.3338 62.4917ZM65.5765 57.596C64.9519 56.7989 64.3158 55.9952 63.6682 55.1857L62.1065 56.4351C62.7498 57.2392 63.3817 58.0377 64.0022 58.8295L65.5765 57.596ZM61.7236 52.7803C61.0813 51.9941 60.4285 51.2034 59.7654 50.4088L58.2299 51.6902C58.8884 52.4794 59.5368 53.2648 60.1748 54.0457L61.7236 52.7803ZM57.7801 48.0551C57.1158 47.276 56.4419 46.4939 55.7585 45.7097L54.2507 47.0236C54.9293 47.8024 55.5985 48.579 56.2582 49.3527L57.7801 48.0551ZM53.7303 43.4077C53.0501 42.6442 52.3611 41.8792 51.6632 41.1133L50.1849 42.4604C50.8776 43.2206 51.5616 43.98 52.2369 44.7381L53.7303 43.4077ZM49.5751 38.8477C48.8787 38.1007 48.174 37.3535 47.4612 36.6065L46.0144 37.9873C46.7217 38.7285 47.4211 39.4701 48.1123 40.2115L49.5751 38.8477ZM45.3142 34.3835C44.6008 33.6537 43.8796 32.9248 43.1508 32.1972L41.7378 33.6126C42.4608 34.3344 43.1762 35.0575 43.884 35.7816L45.3142 34.3835ZM40.9494 30.0269C40.2171 29.314 39.4774 28.603 38.7304 27.8943L37.3539 29.3452C38.0945 30.0479 38.828 30.753 39.5543 31.46L40.9494 30.0269ZM36.4765 25.7839C35.724 25.0887 34.9645 24.3962 34.1979 23.707L32.8608 25.1943C33.6205 25.8773 34.3733 26.5637 35.1193 27.2529L36.4765 25.7839ZM31.8893 21.6602C31.1165 20.9847 30.337 20.3129 29.5507 19.6453L28.2562 21.1698C29.035 21.8311 29.8073 22.4967 30.573 23.166L31.8893 21.6602ZM27.1852 17.6663C26.3921 17.0127 25.5924 16.3637 24.7862 15.7198L23.538 17.2824C24.3361 17.92 25.1279 18.5626 25.9133 19.2098L27.1852 17.6663ZM22.3618 13.8139C21.5481 13.1845 20.728 12.5606 19.9017 11.9425L18.7038 13.5441C19.5213 14.1556 20.3328 14.773 21.1381 15.3959L22.3618 13.8139ZM17.4166 10.1156C16.5826 9.51308 15.7424 8.91685 14.8961 8.32734L13.7529 9.96843C14.5897 10.5513 15.4205 11.1409 16.2455 11.7368L17.4166 10.1156ZM12.3478 6.58529C11.493 6.01203 10.6322 5.44588 9.76554 4.88728L8.68205 6.56836C9.53833 7.12026 10.3889 7.67973 11.2338 8.24633L12.3478 6.58529ZM7.15364 3.2382C6.2779 2.69679 5.39634 2.16333 4.50903 1.63827L3.49051 3.3595C4.36652 3.87787 5.23701 4.40463 6.10193 4.93935L7.15364 3.2382Z" fill="#0D3982"/>
</svg>
