<svg width="45" height="44" viewBox="0 0 45 44" fill="none" xmlns="http://www.w3.org/2000/svg">
<g clip-path="url(#clip0_1914_1698)">
<path d="M1.51415 20.8621C1.51415 20.6133 1.52667 20.4018 1.51415 20.1903C1.48912 19.7176 1.18879 19.4066 0.763321 19.4066C0.337845 19.4066 0.0375137 19.73 0.0249977 20.2027C-0.200253 26.4103 1.60175 31.9211 5.78139 36.5737C9.62317 40.8406 14.4535 43.3907 20.1849 43.8883C28.6693 44.6347 35.552 41.5248 40.6827 34.7574C43.9238 30.4781 45.1752 25.5395 44.9749 20.2152C44.9624 19.73 44.6621 19.419 44.2366 19.4066C43.7986 19.3941 43.4858 19.73 43.4733 20.2276C43.4608 20.4267 43.4733 20.6257 43.4733 20.8621C29.4952 20.8621 15.5422 20.8621 1.51415 20.8621ZM34.4508 22.417C34.4633 22.5041 34.4758 22.529 34.4758 22.5663C34.3006 26.6342 33.1743 30.4159 31.072 33.9115C30.9844 34.0484 30.7216 34.1603 30.5589 34.1479C29.2825 34.0359 28.0186 33.8742 26.7422 33.7747C25.5909 33.6752 24.4396 33.6379 23.2758 33.5757C23.2758 29.8561 23.2758 26.149 23.2758 22.417C27.005 22.417 30.7216 22.417 34.4508 22.417ZM21.7241 33.4886C19.2714 33.7125 16.8687 33.924 14.466 34.1603C14.1407 34.1976 13.9905 34.0608 13.8529 33.812C12.201 31.013 11.1624 28.015 10.7119 24.8055C10.5992 24.0094 10.5617 23.2132 10.4866 22.4046C14.2783 22.4046 17.9825 22.4046 21.7116 22.4046C21.7241 26.1366 21.7241 29.8312 21.7241 33.4886ZM12.4763 34.4091C12.4012 34.4464 12.3637 34.4838 12.3262 34.4962C10.6618 34.8818 8.98495 35.2426 7.3206 35.6407C7.02027 35.7153 6.89513 35.5909 6.74496 35.4043C4.15459 32.4436 2.51527 29.0226 1.83952 25.1538C1.68935 24.2582 1.62678 23.35 1.51415 22.4295C4.0795 22.4295 6.54474 22.4295 9.03501 22.4295C9.18518 26.7213 10.3239 30.702 12.4763 34.4091ZM32.5236 34.4216C34.6885 30.702 35.8148 26.7088 35.99 22.4295C38.4927 22.4295 40.9705 22.4295 43.4733 22.4295C43.4357 22.9395 43.4232 23.4122 43.3607 23.8974C42.8851 28.0026 41.3334 31.6475 38.7555 34.8818C38.255 35.5163 37.817 35.7402 36.9786 35.4914C35.552 35.0311 34.0503 34.7699 32.5236 34.4216ZM19.5842 42.3458C15.2794 41.7114 11.5128 39.9325 8.27166 36.9842C8.33423 36.922 8.35926 36.8971 8.38428 36.8847C9.96104 36.5488 11.5503 36.2005 13.1271 35.877C13.2522 35.8522 13.4524 35.989 13.5525 36.1134C14.4911 37.2205 15.342 38.3899 16.3431 39.4224C17.3568 40.4674 18.4955 41.363 19.5842 42.3458ZM25.3657 42.3458C25.4032 42.2712 25.4157 42.2338 25.4407 42.209C27.8059 40.4922 29.8206 38.4397 31.4975 36.0512C31.5726 35.9392 31.8103 35.8646 31.948 35.9019C33.4246 36.2005 34.9013 36.5239 36.3779 36.8349C36.4905 36.8598 36.5906 36.9096 36.7658 36.9593C33.4872 39.92 29.7205 41.7114 25.3657 42.3458ZM23.2883 41.8482C23.2883 39.5593 23.2883 37.3325 23.2883 35.0187C25.5158 35.1804 27.7058 35.3421 30.0208 35.5163C28.1187 38.1287 25.9288 40.1812 23.2883 41.8482ZM15.0917 35.6656C15.1043 35.6158 15.1293 35.566 15.1418 35.5038C17.3317 35.3421 19.5091 35.1928 21.7116 35.0311C21.7116 37.3574 21.7116 39.5717 21.7116 41.8606C19.0712 40.1812 16.8812 38.1287 15.0917 35.6656Z" fill="#01B9EA"/>
<path d="M26.2542 19.4066C25.7912 19.4066 25.5033 19.0708 25.5033 18.4861C25.5033 17.5407 25.4408 16.5828 25.5284 15.6373C25.5909 14.9158 25.7161 14.1694 26.0164 13.5226C26.3418 12.8135 26.8924 12.1915 27.3679 11.5073C26.7422 10.8729 25.9038 10.4748 24.9402 10.4623C23.3134 10.425 21.6991 10.425 20.0723 10.4623C19.0962 10.4872 18.2703 10.8853 17.5695 11.6068C18.6833 12.5522 19.3715 13.7216 19.4841 15.1522C19.5717 16.2718 19.5217 17.3914 19.5217 18.511C19.5217 19.0583 19.2339 19.3942 18.7834 19.4066C18.3204 19.4191 5.73137 19.4191 5.26835 19.4066C4.81785 19.3942 4.54255 19.0583 4.54255 18.4985C4.54255 17.6029 4.54255 16.6947 4.54255 15.7991C4.55506 12.7388 6.83259 10.4748 9.8985 10.4623C11.3251 10.4499 12.7392 10.4375 14.1657 10.4748C14.7539 10.4872 15.342 10.6116 15.9052 10.7485C16.168 10.8107 16.3181 10.7858 16.5058 10.5867C17.532 9.52934 18.7959 8.98199 20.2725 8.98199C21.7992 8.96955 23.3384 8.96955 24.8651 8.98199C26.0039 8.99443 27.0926 9.29298 27.931 10.0643C28.5442 10.6241 29.0823 10.6863 29.9082 10.6116C31.8729 10.4375 33.8751 10.3877 35.8398 10.537C38.3051 10.7236 40.1071 12.5274 40.4324 14.9656C40.5826 16.1474 40.5075 17.3541 40.52 18.5483C40.52 19.0956 40.2197 19.4315 39.7692 19.4191H26.2542V19.4066Z" fill="#01B9EA"/>
<path d="M22.5376 7.46423C24.6024 7.45179 26.2667 5.74752 26.2542 3.69493C26.2292 1.64234 24.5148 -0.0246049 22.45 0.000274931C20.4102 0.0251548 18.7459 1.70454 18.7584 3.74469C18.7584 5.80972 20.4603 7.47667 22.5376 7.46423Z" fill="#01B9EA"/>
<path d="M32.9616 8.95614C35.0264 8.96858 36.7283 7.30163 36.7408 5.24904C36.7408 3.18402 35.064 1.49219 32.9992 1.49219C30.9469 1.49219 29.2575 3.1467 29.245 5.1744C29.2325 7.23943 30.8969 8.9437 32.9616 8.95614Z" fill="#01B9EA"/>
<path d="M12.0384 8.95765C14.1032 8.94521 15.7676 7.24094 15.7551 5.18835C15.7425 3.13577 14.0281 1.48126 11.9508 1.50614C9.91106 1.53102 8.24671 3.21041 8.25923 5.25055C8.27174 7.30314 9.97363 8.97009 12.0384 8.95765Z" fill="#01B9EA"/>
<path d="M44.9749 14.2193C44.9624 13.759 44.6496 13.4355 44.2241 13.4355C43.7986 13.4355 43.4608 13.7963 43.4733 14.2193C43.4858 14.6422 43.8487 15.003 44.2366 15.003C44.6996 15.003 44.9875 14.6795 44.9749 14.2193Z" fill="#01B9EA"/>
<path d="M0.788345 13.4359C0.3879 13.4235 0.0375096 13.7469 0.0249957 14.1574C0.0124817 14.5928 0.375385 14.9909 0.77583 15.0033C1.2013 15.0158 1.50164 14.7172 1.51415 14.2818C1.52666 13.7967 1.22633 13.4483 0.788345 13.4359Z" fill="#01B9EA"/>
<path d="M44.9749 17.2288C44.9749 16.7561 44.6371 16.4078 44.1991 16.4202C43.7986 16.4327 43.4733 16.781 43.4733 17.1791C43.4858 17.6145 43.8612 18.0001 44.2617 17.9877C44.6996 17.9752 44.9875 17.6642 44.9749 17.2288Z" fill="#01B9EA"/>
<path d="M1.51424 17.2173C1.50173 16.7446 1.17636 16.3963 0.738375 16.4212C0.33793 16.4336 0.0125712 16.7819 0.0250851 17.18C0.0375991 17.6154 0.413015 18.001 0.825974 17.9762C1.25145 17.9637 1.52675 17.6652 1.51424 17.2173Z" fill="#01B9EA"/>
</g>
<defs>
<clipPath id="clip0_1914_1698">
<rect width="45" height="44" fill="white" transform="matrix(-1 0 0 1 45 0)"/>
</clipPath>
</defs>
</svg>
