<svg width="24" height="24" viewBox="0 0 24 24" fill="none" xmlns="http://www.w3.org/2000/svg">
<g clip-path="url(#clip0_1930_4240)">
<path d="M14.9815 0H4.21874C3.43635 0 2.79993 0.636422 2.79993 1.41881V3.6C2.79993 3.8212 2.97913 3.99998 3.19991 3.99998H15.9999C16.2207 3.99998 16.3999 3.8212 16.3999 3.6V1.41881C16.4 0.636422 15.7635 0 14.9815 0ZM15.5999 3.20002H3.59994V1.41881C3.59994 1.07761 3.87754 0.800016 4.21874 0.800016H14.9811C15.3223 0.800016 15.5999 1.07761 15.5999 1.41881V3.20002Z" fill="#01B9EA"/>
<path d="M16 20H3.20003C2.97925 20 2.80005 20.1788 2.80005 20.4V22.5812C2.8 23.3636 3.43642 24 4.21881 24H14.9812C15.7636 24 16.4 23.3636 16.4 22.5812V20.4C16.4 20.1788 16.2208 20 16 20ZM15.6 22.5812C15.6 22.9224 15.3224 23.2 14.9816 23.2H4.21881C3.87761 23.2 3.60002 22.9224 3.60002 22.5812V20.8H15.6V22.5812Z" fill="#01B9EA"/>
<path d="M9.59999 20C8.49721 20 7.59998 20.8972 7.59998 22C7.59998 23.1028 8.49716 24 9.59999 24C10.7028 24 11.6 23.1028 11.6 22C11.6 20.8972 10.7028 20 9.59999 20ZM9.59999 23.2C8.9384 23.2 8.39999 22.6616 8.39999 22C8.39999 21.3384 8.9384 20.8 9.59999 20.8C10.2616 20.8 10.8 21.3384 10.8 22C10.8 22.6616 10.2616 23.2 9.59999 23.2Z" fill="#01B9EA"/>
<path d="M10.8001 1.59961H8.40011C8.17932 1.59961 8.00012 1.77839 8.00012 1.99959C8.00012 2.2208 8.17932 2.39962 8.40011 2.39962H10.8001C11.0209 2.39962 11.2001 2.22084 11.2001 1.99964C11.2001 1.77844 11.0209 1.59961 10.8001 1.59961Z" fill="#01B9EA"/>
<path d="M20 6H8.79998C8.13838 6 7.59998 6.53841 7.59998 7.2V16.8C7.59998 17.4616 8.13838 18 8.79998 18H20C20.6616 18 21.2 17.4616 21.2 16.8V7.2C21.2 6.53841 20.6616 6 20 6ZM20.4 16.8C20.4 17.0208 20.2208 17.2 20 17.2H8.79998C8.57957 17.2 8.39999 17.0208 8.39999 16.8V7.2C8.39999 6.97922 8.57919 6.80002 8.79998 6.80002H20C20.2204 6.80002 20.3999 6.97922 20.3999 7.2V16.8H20.4Z" fill="#01B9EA"/>
<path d="M14.4 8.80078C12.8559 8.80078 11.6 10.4156 11.6 12.4008C11.6 14.386 12.856 16.0008 14.4 16.0008C15.9439 16.0008 17.1999 14.386 17.1999 12.4008C17.1999 10.4156 15.944 8.80078 14.4 8.80078ZM14.4 15.2008C13.2972 15.2008 12.3999 13.9444 12.3999 12.4008C12.3999 10.8572 13.2971 9.60084 14.4 9.60084C15.5027 9.60084 16.4 10.8572 16.4 12.4008C16.4 13.9444 15.5027 15.2008 14.4 15.2008Z" fill="#01B9EA"/>
<path d="M11.5999 7.59961C11.3792 7.59961 11.2 7.77839 11.2 7.99959C11.2 8.2208 11.3792 8.39958 11.5999 8.39958C12.2503 8.39958 12.7999 8.964 12.7999 9.63239C12.7999 9.85359 12.9791 10.0324 13.1999 10.0324C13.4207 10.0324 13.5999 9.85359 13.5999 9.63239C13.5999 8.51161 12.7027 7.59961 11.5999 7.59961Z" fill="#01B9EA"/>
<path d="M12.1749 10.7992C11.5389 10.7992 10.8001 10.2748 10.8001 9.5992C10.8001 9.378 10.6209 9.19922 10.4001 9.19922C10.1793 9.19922 10.0001 9.378 10.0001 9.5992C10.0001 10.6644 11.0165 11.5992 12.1749 11.5992C12.3957 11.5992 12.5749 11.4204 12.5749 11.1992C12.5749 10.978 12.3957 10.7992 12.1749 10.7992Z" fill="#01B9EA"/>
<path d="M12.0001 12.4004H10.4001C10.1793 12.4004 10.0001 12.5792 10.0001 12.8004C10.0001 13.0216 10.1793 13.2004 10.4001 13.2004H12.0001C12.2209 13.2004 12.4001 13.0216 12.4001 12.8004C12.4001 12.5792 12.2209 12.4004 12.0001 12.4004Z" fill="#01B9EA"/>
<path d="M12.5268 14C11.3941 14 10.4 14.9348 10.4 16C10.4 16.2212 10.5792 16.4 10.8 16.4C11.0208 16.4 11.2 16.2212 11.2 16C11.2 15.372 11.8324 14.8 12.5268 14.8C12.7476 14.8 12.9268 14.6212 12.9268 14.4C12.9268 14.1788 12.7477 14 12.5268 14Z" fill="#01B9EA"/>
<path d="M17.2 7.59961C16.0972 7.59961 15.2 8.51161 15.2 9.63239C15.2 9.85359 15.3792 10.0324 15.5999 10.0324C15.8207 10.0324 15.9999 9.85359 15.9999 9.63239C15.9999 8.964 16.5495 8.39958 17.1999 8.39958C17.4207 8.39958 17.5999 8.2208 17.5999 7.99959C17.5999 7.77839 17.4208 7.59961 17.2 7.59961Z" fill="#01B9EA"/>
<path d="M18.4 9.19922C18.1792 9.19922 18 9.378 18 9.5992C18 10.2748 17.2612 10.7992 16.6252 10.7992C16.4044 10.7992 16.2252 10.978 16.2252 11.1992C16.2252 11.4204 16.4044 11.5992 16.6252 11.5992C17.7836 11.5992 18.8 10.6644 18.8 9.59916C18.8 9.378 18.6208 9.19922 18.4 9.19922Z" fill="#01B9EA"/>
<path d="M18.4 12.4004H16.8C16.5792 12.4004 16.4 12.5792 16.4 12.8004C16.4 13.0216 16.5792 13.2004 16.8 13.2004H18.4C18.6208 13.2004 18.8 13.0216 18.8 12.8004C18.8 12.5792 18.6208 12.4004 18.4 12.4004Z" fill="#01B9EA"/>
<path d="M16.2733 14C16.0525 14 15.8733 14.1788 15.8733 14.4C15.8733 14.6212 16.0525 14.8 16.2733 14.8C16.9677 14.8 17.6001 15.372 17.6001 16C17.6001 16.2212 17.7793 16.4 18.0001 16.4C18.2208 16.4 18.4 16.2212 18.4 16C18.4 14.9348 17.4061 14 16.2733 14Z" fill="#01B9EA"/>
<path d="M17.0679 11.308C16.6991 9.80841 15.6266 8.80078 14.3999 8.80078C13.1731 8.80078 12.1007 9.80836 11.7319 11.308L11.6631 11.5872L11.9059 11.7416C12.5763 12.1664 13.4619 12.4008 14.3999 12.4008C15.3379 12.4008 16.2235 12.1664 16.8939 11.7416L17.1367 11.5872L17.0679 11.308ZM14.3999 11.6008C13.7303 11.6008 13.1003 11.4636 12.5927 11.2108C12.9211 10.2364 13.6223 9.6008 14.3999 9.6008C15.1775 9.6008 15.8787 10.2364 16.2071 11.2108C15.6995 11.4636 15.0695 11.6008 14.3999 11.6008Z" fill="#01B9EA"/>
<path d="M6.39999 6H4.80001C4.57923 6 4.40002 6.17878 4.40002 6.39998V7.99997C4.40002 8.22117 4.57923 8.39995 4.80001 8.39995H6.39999C6.62077 8.39995 6.79998 8.22117 6.79998 7.99997V6.39998C6.80002 6.17878 6.62082 6 6.39999 6ZM6.00001 7.59998H5.19999V6.79997H6.00001V7.59998Z" fill="#01B9EA"/>
<path d="M6.39999 15.5996H4.80001C4.57923 15.5996 4.40002 15.7784 4.40002 15.9996V17.5996C4.40002 17.8208 4.57923 17.9996 4.80001 17.9996H6.39999C6.62077 17.9996 6.79998 17.8208 6.79998 17.5996V15.9996C6.80002 15.7784 6.62082 15.5996 6.39999 15.5996ZM6.00001 17.1996H5.19999V16.3996H6.00001V17.1996Z" fill="#01B9EA"/>
<path d="M6.39999 12.4004H4.80001C4.57923 12.4004 4.40002 12.5792 4.40002 12.8004V14.4004C4.40002 14.6216 4.57923 14.8004 4.80001 14.8004H6.39999C6.62077 14.8004 6.79998 14.6216 6.79998 14.4004V12.8004C6.80002 12.5792 6.62082 12.4004 6.39999 12.4004ZM6.00001 14.0004H5.19999V13.2004H6.00001V14.0004Z" fill="#01B9EA"/>
<path d="M6.39999 9.19922H4.80001C4.57923 9.19922 4.40002 9.378 4.40002 9.5992V11.1992C4.40002 11.4204 4.57923 11.5992 4.80001 11.5992H6.39999C6.62077 11.5992 6.79998 11.4204 6.79998 11.1992V9.5992C6.80002 9.378 6.62082 9.19922 6.39999 9.19922ZM6.00001 10.7992H5.19999V9.99919H6.00001V10.7992Z" fill="#01B9EA"/>
<path d="M8.79993 6.80002H15.9999C16.2207 6.80002 16.3999 6.62123 16.3999 6.40003V1.41881C16.4 0.636422 15.7635 0 14.9811 0H4.21874C3.43635 0 2.79993 0.636422 2.79993 1.41881V22.5812C2.79993 23.3636 3.43635 24 4.21874 24H14.9811C15.7635 24 16.4 23.3636 16.4 22.5812V17.6C16.4 17.3788 16.2208 17.2 16 17.2H8.79997C8.57957 17.2 8.39999 17.0208 8.39999 16.8V7.2C8.39994 6.97922 8.57914 6.80002 8.79993 6.80002ZM8.79993 18H15.5999V22.5812C15.5999 22.9224 15.3223 23.2 14.9811 23.2H4.21874C3.87754 23.2 3.59994 22.9224 3.59994 22.5812V1.41881C3.59994 1.07761 3.87754 0.800016 4.21874 0.800016H14.9811C15.3223 0.800016 15.5999 1.07761 15.5999 1.41881V6H8.79993C8.13833 6 7.59993 6.53841 7.59993 7.2V16.8C7.59993 17.4616 8.13833 18 8.79993 18Z" fill="#01B9EA"/>
</g>
<defs>
<clipPath id="clip0_1930_4240">
<rect width="24" height="24" fill="white"/>
</clipPath>
</defs>
</svg>
