<svg width="86" height="93" viewBox="0 0 86 93" fill="none" xmlns="http://www.w3.org/2000/svg">
<path d="M85.5 93L82.9816 87.8047L79.7416 92.5833L85.5 93ZM1.5 1C1.0609 1.23915 1.06091 1.23916 1.06091 1.23917C1.06092 1.23918 1.06093 1.23919 1.06093 1.23921C1.06095 1.23923 1.06096 1.23927 1.06099 1.2393C1.06103 1.23938 1.06109 1.23949 1.06116 1.23962C1.0613 1.23989 1.06151 1.24026 1.06177 1.24074C1.0623 1.24171 1.06306 1.24311 1.06406 1.24494C1.06606 1.2486 1.06901 1.254 1.07291 1.26111C1.0807 1.27533 1.09228 1.29641 1.10764 1.32426C1.13836 1.37995 1.18418 1.46269 1.24503 1.57164C1.36673 1.78952 1.54854 2.1122 1.78978 2.53293L2.65729 2.03551C2.41796 1.61811 2.23799 1.29868 2.11807 1.08398C2.05811 0.976636 2.01316 0.895471 1.9833 0.841334C1.96837 0.814265 1.95722 0.793953 1.94985 0.780504C1.94616 0.773779 1.94342 0.76877 1.94163 0.76549C1.94073 0.76385 1.94008 0.762642 1.93965 0.761868C1.93944 0.761481 1.93929 0.761202 1.9392 0.761032C1.93915 0.760947 1.93912 0.760889 1.9391 0.760859C1.93909 0.760844 1.93909 0.760835 1.93909 0.760833C1.93909 0.760833 1.93909 0.760836 1.93909 0.760836C1.93909 0.760841 1.9391 0.760849 1.5 1ZM3.31454 5.13247C3.76251 5.88153 4.27639 6.72952 4.85537 7.66835L5.70653 7.14344C5.13 6.20859 4.61848 5.36448 4.17277 4.61921L3.31454 5.13247ZM6.45251 10.2229C6.95908 11.0225 7.50061 11.8678 8.07677 12.7554L8.91554 12.2109C8.34144 11.3265 7.80191 10.4843 7.29727 9.68775L6.45251 10.2229ZM9.72143 15.2601C10.2528 16.0603 10.808 16.8879 11.3868 17.7409L12.2143 17.1794C11.6374 16.3292 11.0841 15.5044 10.5545 14.7069L9.72143 15.2601ZM13.0753 20.2034C13.6282 21.0015 14.1996 21.8182 14.7893 22.6523L15.6058 22.075C15.018 21.2435 14.4484 20.4294 13.8973 19.6339L13.0753 20.2034ZM16.5309 25.0912C17.1057 25.8883 17.696 26.699 18.3015 27.5223L19.1071 26.9298C18.5034 26.109 17.915 25.3008 17.3419 24.5063L16.5309 25.0912ZM20.087 29.9264C20.6743 30.7095 21.2746 31.5027 21.8878 32.305L22.6823 31.6977C22.0709 30.8979 21.4725 30.1072 20.887 29.3264L20.087 29.9264ZM23.7212 34.6807C24.3288 35.4606 24.948 36.248 25.5789 37.0423L26.362 36.4204C25.7331 35.6285 25.1157 34.8436 24.51 34.0661L23.7212 34.6807ZM27.4436 39.3682C28.0663 40.1376 28.6996 40.9127 29.3433 41.6929L30.1146 41.0565C29.473 40.2788 28.8417 39.5061 28.2209 38.739L27.4436 39.3682ZM31.261 43.9952C31.8962 44.7505 32.5409 45.5099 33.195 46.2729L33.9542 45.6221C33.3022 44.8615 32.6595 44.1045 32.0263 43.3516L31.261 43.9952ZM35.165 48.5485C35.814 49.291 36.4719 50.0364 37.1384 50.7841L37.8849 50.1187C37.2205 49.3734 36.5648 48.6305 35.9178 47.8903L35.165 48.5485ZM39.1456 53.0138C39.8126 53.7474 40.4879 54.4829 41.1713 55.2197L41.9045 54.5397C41.2233 53.8053 40.5503 53.0723 39.8855 52.3411L39.1456 53.0138ZM43.2173 57.4035C43.9014 58.1263 44.5933 58.8501 45.293 59.5743L46.0122 58.8795C45.3149 58.1578 44.6254 57.4365 43.9436 56.7161L43.2173 57.4035ZM47.3792 61.7117C48.0795 62.4218 48.7873 63.132 49.5024 63.842L50.2069 63.1323C49.4943 62.4249 48.7891 61.7172 48.0912 61.0096L47.3792 61.7117ZM51.6314 65.9331C52.3462 66.6277 53.068 67.3217 53.7967 68.0146L54.4858 67.2899C53.7597 66.5995 53.0405 65.9081 52.3283 65.216L51.6314 65.9331ZM55.9742 70.0623C56.7038 70.7408 57.44 71.4179 58.183 72.0934L58.8557 71.3535C58.1156 70.6806 57.3821 70.006 56.6553 69.33L55.9742 70.0623ZM60.4084 74.0937C61.1531 74.7554 61.9041 75.4151 62.6617 76.0725L63.3171 75.3172C62.5626 74.6624 61.8144 74.0053 61.0726 73.3462L60.4084 74.0937ZM64.9348 78.0217C65.6948 78.6657 66.461 79.3071 67.2335 79.9457L67.8706 79.1749C67.1013 78.539 66.3382 77.9001 65.5812 77.2588L64.9348 78.0217ZM69.5541 81.8402C70.3297 82.4655 71.1114 83.0877 71.8991 83.7065L72.5169 82.9202C71.7325 82.304 70.9541 81.6844 70.1817 81.0617L69.5541 81.8402ZM74.2672 85.5427C75.0587 86.1482 75.856 86.7502 76.6591 87.3482L77.2563 86.5462C76.4567 85.9508 75.6629 85.3514 74.8748 84.7485L74.2672 85.5427ZM79.0747 89.1222C79.8821 89.7069 80.6952 90.2874 81.5139 90.8635L82.0894 90.0457C81.2744 89.4722 80.465 88.8943 79.6612 88.3122L79.0747 89.1222ZM85.5 93L80.4632 82.6094L73.9831 92.1667L85.5 93ZM1.5 1C0.621805 1.4783 0.621816 1.47832 0.621827 1.47834C0.621832 1.47835 0.621845 1.47838 0.621855 1.47839C0.621875 1.47843 0.6219 1.47848 0.621927 1.47853C0.621983 1.47863 0.622053 1.47876 0.622139 1.47892C0.622309 1.47923 0.622539 1.47965 0.622829 1.48018C0.623407 1.48124 0.624223 1.48274 0.625276 1.48466C0.627382 1.48852 0.630437 1.4941 0.634439 1.50141C0.642444 1.51601 0.654237 1.53749 0.66981 1.56572C0.700955 1.6222 0.747218 1.70572 0.808513 1.81546C0.931103 2.03493 1.11383 2.35925 1.35603 2.78164L3.09105 1.7868C2.85266 1.37106 2.67362 1.05326 2.55459 0.840157C2.49507 0.733606 2.45056 0.653229 2.42113 0.599871C2.40642 0.573191 2.39548 0.553267 2.38832 0.540203C2.38474 0.533671 2.3821 0.528854 2.38042 0.525765C2.37957 0.524221 2.37896 0.523109 2.37859 0.52243C2.37841 0.522091 2.37828 0.52186 2.37822 0.521738C2.37818 0.521677 2.37817 0.521643 2.37816 0.521636C2.37816 0.521633 2.37816 0.521636 2.37817 0.521646C2.37817 0.521651 2.37818 0.521664 2.37818 0.521667C2.37819 0.521681 2.3782 0.521697 1.5 1ZM2.88542 5.38911C3.33453 6.14006 3.84959 6.98999 4.42979 7.93081L6.13211 6.88098C5.5568 5.94812 5.04646 5.10595 4.60188 4.36258L2.88542 5.38911ZM6.03013 10.4905C6.53767 11.2916 7.08019 12.1384 7.65738 13.0276L9.33493 11.9386C8.76185 11.0558 8.22332 10.2152 7.71965 9.42017L6.03013 10.4905ZM9.3049 15.5367C9.83721 16.3383 10.3933 17.1672 10.9731 18.0217L12.6281 16.8987C12.0521 16.0499 11.4997 15.2265 10.971 14.4303L9.3049 15.5367ZM12.6643 20.4881C13.2181 21.2875 13.7904 22.1055 14.381 22.941L16.0141 21.7864C15.4272 20.9562 14.8586 20.1434 14.3083 19.3492L12.6643 20.4881ZM16.1253 25.3837C16.7011 26.182 17.2922 26.9939 17.8988 27.8186L19.5099 26.6336C18.9071 25.814 18.3196 25.0071 17.7475 24.2138L16.1253 25.3837ZM19.687 30.2263C20.2751 31.0107 20.8764 31.8051 21.4906 32.6087L23.0796 31.3941C22.4691 30.5955 21.8716 29.806 21.287 29.0265L19.687 30.2263ZM23.3268 34.988C23.9353 35.7691 24.5555 36.5577 25.1873 37.3533L26.7535 36.1095C26.1256 35.3188 25.5092 34.535 24.9045 33.7588L23.3268 34.988ZM27.0549 39.6827C27.6787 40.4534 28.3129 41.2297 28.9576 42.0111L30.5003 40.7383C29.8597 39.9618 29.2294 39.1903 28.6095 38.4245L27.0549 39.6827ZM30.8783 44.317C31.5145 45.0735 32.1602 45.8342 32.8154 46.5984L34.3338 45.2967C33.6828 44.5373 33.0412 43.7815 32.409 43.0297L30.8783 44.317ZM34.7885 48.8776C35.4387 49.6213 36.0975 50.3678 36.7651 51.1168L38.2581 49.786C37.5949 49.0419 36.9402 48.3002 36.2943 47.5613L34.7885 48.8776ZM38.7757 53.3501C39.4438 54.085 40.1202 54.8217 40.8047 55.5598L42.2711 54.1997C41.5911 53.4665 40.9192 52.7347 40.2555 52.0047L38.7757 53.3501ZM42.8541 57.7472C43.5394 58.4712 44.2325 59.1962 44.9334 59.9217L46.3718 58.5321C45.6757 57.8116 44.9874 57.0916 44.3067 56.3724L42.8541 57.7472ZM47.0232 62.0628C47.7248 62.7742 48.4338 63.4856 49.1501 64.1968L50.5592 62.7774C49.8479 62.0713 49.1439 61.3648 48.4472 60.6585L47.0232 62.0628ZM51.2829 66.2917C51.999 66.9876 52.7221 67.6828 53.4522 68.377L54.8303 66.9276C54.1055 66.2384 53.3877 65.5483 52.6768 64.8574L51.2829 66.2917ZM55.6337 70.4284C56.3646 71.1082 57.1023 71.7866 57.8466 72.4634L59.1921 70.9836C58.4533 70.3119 57.7212 69.6386 56.9958 68.9639L55.6337 70.4284ZM60.0763 74.4675C60.8224 75.1304 61.5749 75.7914 62.3339 76.4501L63.6448 74.9396C62.8918 74.2861 62.1451 73.6302 61.4047 72.9724L60.0763 74.4675ZM64.6115 78.4032C65.3731 79.0485 66.1409 79.6912 66.9149 80.331L68.1892 78.7896C67.4215 78.1549 66.6599 77.5174 65.9044 76.8773L64.6115 78.4032ZM69.2403 82.2295C70.0175 82.8561 70.8009 83.4796 71.5902 84.0997L72.8258 82.527C72.0431 81.9121 71.2663 81.2938 70.4955 80.6724L69.2403 82.2295ZM73.9634 85.9398C74.7565 86.5466 75.5556 87.1499 76.3605 87.7493L77.555 86.1451C76.7571 85.551 75.965 84.953 75.1787 84.3514L73.9634 85.9398ZM78.7814 89.5271C79.5906 90.1131 80.4056 90.695 81.2262 91.2725L82.3771 89.6368C81.564 89.0646 80.7564 88.488 79.9544 87.9073L78.7814 89.5271Z" fill="#0D3982"/>
</svg>
