<svg width="87" height="94" viewBox="0 0 87 94" fill="none" xmlns="http://www.w3.org/2000/svg">
<path d="M-0.00012082 93.5004L0.0639659 87.7273L5.03161 90.6694L-0.00012082 93.5004ZM85.4999 1.00028C85.7641 1.42477 85.7641 1.42476 85.7642 1.42476C85.7642 1.42476 85.7642 1.42475 85.7642 1.42475C85.7642 1.42475 85.7642 1.42475 85.7641 1.42476C85.7641 1.42478 85.7641 1.42481 85.764 1.42486C85.7638 1.42495 85.7636 1.42511 85.7632 1.42534C85.7625 1.4258 85.7613 1.42652 85.7597 1.42752C85.7566 1.4295 85.7517 1.43255 85.7451 1.43666C85.732 1.4449 85.7121 1.45739 85.6856 1.47416C85.6325 1.5077 85.5529 1.55831 85.4474 1.62601C85.2365 1.7614 84.9225 1.96515 84.5118 2.23735L83.9593 1.40381C84.3742 1.12886 84.6923 0.922464 84.9072 0.784499C85.0146 0.715516 85.0963 0.663643 85.1513 0.628864C85.1788 0.611475 85.1997 0.598359 85.2138 0.589516C85.2208 0.585094 85.2262 0.58174 85.2298 0.579454C85.2317 0.578311 85.2331 0.577435 85.234 0.576826C85.2345 0.576522 85.2349 0.576284 85.2352 0.576113C85.2353 0.576027 85.2354 0.575959 85.2355 0.575906C85.2356 0.57588 85.2356 0.575858 85.2356 0.575841C85.2356 0.575832 85.2357 0.575822 85.2357 0.575817C85.2357 0.575808 85.2357 0.5758 85.4999 1.00028ZM82.0437 3.91745C81.3152 4.42474 80.4886 5.00959 79.5715 5.67213L78.9859 4.86154C79.9077 4.19554 80.7391 3.60735 81.4722 3.09684L82.0437 3.91745ZM77.1486 7.45042C76.3905 8.0153 75.5894 8.62 74.7481 9.26457L74.1399 8.47078C74.9848 7.82345 75.7894 7.21606 76.5511 6.64855L77.1486 7.45042ZM72.3655 11.1142C71.6039 11.7131 70.8161 12.3398 70.0038 12.9944L69.3763 12.2158C70.1918 11.5586 70.9827 10.9295 71.7474 10.3282L72.3655 11.1142ZM67.6617 14.9042C66.9043 15.529 66.1289 16.1756 65.3368 16.844L64.6919 16.0797C65.4869 15.4089 66.2651 14.7599 67.0253 14.1328L67.6617 14.9042ZM63.0374 18.8058C62.2956 19.4457 61.541 20.1033 60.7745 20.7787L60.1134 20.0284C60.8826 19.3507 61.6398 18.6907 62.3842 18.0486L63.0374 18.8058ZM58.5231 22.7835C57.7853 23.4473 57.0379 24.1267 56.2814 24.8217L55.6048 24.0853C56.3639 23.388 57.1139 22.7062 57.8542 22.0401L58.5231 22.7835ZM54.0692 26.8748C53.3486 27.5505 52.6208 28.2397 51.8862 28.9424L51.1949 28.2198C51.9319 27.5147 52.6622 26.8233 53.3852 26.1453L54.0692 26.8748ZM49.7084 31.0469C48.9977 31.7406 48.2815 32.4465 47.5601 33.1647L46.8545 32.4561C47.5783 31.7355 48.2969 31.0272 49.0099 30.3312L49.7084 31.0469ZM45.4374 35.2993C44.735 36.0127 44.0283 36.7374 43.3178 37.4735L42.5983 36.7789C43.3111 36.0405 44.0201 35.3134 44.7248 34.5977L45.4374 35.2993ZM41.244 39.6429C40.5577 40.368 39.8683 41.1034 39.1761 41.8492L38.4432 41.1689C39.1376 40.4207 39.8292 39.6829 40.5177 38.9555L41.244 39.6429ZM37.1339 44.0715C36.4636 44.8081 35.7911 45.5544 35.1167 46.3103L34.3705 45.6445C35.0471 44.8862 35.7218 44.1375 36.3943 43.3985L37.1339 44.0715ZM33.1112 48.5806C32.4567 49.329 31.8007 50.0864 31.1436 50.8527L30.3845 50.2018C31.0437 49.4329 31.7018 48.6731 32.3585 47.9223L33.1112 48.5806ZM29.1787 53.1673C28.5398 53.9276 27.9 54.6963 27.2598 55.4735L26.488 54.8377C27.1303 54.0579 27.7721 53.2867 28.4132 52.5239L29.1787 53.1673ZM25.3426 57.8244C24.7178 58.5984 24.0928 59.3803 23.4679 60.1703L22.6836 59.5499C23.3106 58.7573 23.9377 57.9728 24.5645 57.1963L25.3426 57.8244ZM21.5991 62.557C20.9891 63.3442 20.3793 64.139 19.7701 64.9414L18.9736 64.3367C19.5849 63.5316 20.1966 62.7342 20.8086 61.9445L21.5991 62.557ZM17.9496 67.3644C17.3551 68.164 16.7614 68.9709 16.1685 69.7852L15.3601 69.1966C15.9549 68.3796 16.5507 67.57 17.1471 66.7678L17.9496 67.3644ZM14.3965 72.245C13.8182 73.0563 13.241 73.8748 12.6652 74.7002L11.845 74.128C12.4229 73.2998 13.002 72.4787 13.5822 71.6646L14.3965 72.245ZM10.942 77.1972C10.3805 78.0197 9.82045 78.8491 9.26205 79.6852L8.43046 79.1298C8.99075 78.2909 9.55268 77.4587 10.1161 76.6334L10.942 77.1972ZM7.59201 82.2138C7.04655 83.0489 6.50286 83.8907 5.96114 84.7389L5.11835 84.2007C5.66192 83.3495 6.20745 82.505 6.75476 81.667L7.59201 82.2138ZM4.34584 87.2972C3.81656 88.1452 3.28936 88.9994 2.76443 89.8601L1.91071 89.3393C2.43745 88.4757 2.96645 87.6185 3.49753 86.7677L4.34584 87.2972ZM-0.00012082 93.5004L0.128046 81.9542L10.0633 87.8383L-0.00012082 93.5004ZM85.4999 1.00028C86.0284 1.84925 86.0284 1.84924 86.0284 1.84923C86.0284 1.84922 86.0284 1.84921 86.0284 1.84921C86.0284 1.8492 86.0285 1.84919 86.0285 1.84919C86.0285 1.84919 86.0284 1.8492 86.0284 1.84923C86.0283 1.84928 86.0281 1.84941 86.0278 1.8496C86.0272 1.84998 86.0261 1.85063 86.0247 1.85155C86.0217 1.85338 86.0171 1.85627 86.0108 1.86024C85.9982 1.86816 85.9788 1.88035 85.9527 1.89681C85.9007 1.92972 85.822 1.9797 85.7176 2.04676C85.5087 2.18087 85.1966 2.38329 84.788 2.65412L83.6831 0.987037C84.1 0.710723 84.4202 0.502994 84.6371 0.363746C84.7455 0.294121 84.8281 0.241615 84.8842 0.206215C84.9122 0.188515 84.9335 0.175091 84.9481 0.165942C84.9554 0.161367 84.961 0.157861 84.9649 0.155424C84.9668 0.154205 84.9684 0.153253 84.9695 0.152568C84.97 0.152226 84.9704 0.151951 84.9708 0.151742C84.971 0.151637 84.9711 0.15155 84.9712 0.151479C84.9713 0.151443 84.9713 0.151412 84.9714 0.151385C84.9714 0.151371 84.9714 0.151354 84.9714 0.151347C84.9714 0.151331 84.9715 0.151316 85.4999 1.00028ZM82.3294 4.32776C81.6033 4.83344 80.779 5.41662 79.8643 6.07743L78.6931 4.45624C79.6173 3.78851 80.4511 3.19865 81.1864 2.68653L82.3294 4.32776ZM77.4473 7.85135C76.691 8.41492 75.8917 9.01827 75.0522 9.66146L73.8358 8.07389C74.6825 7.42518 75.4889 6.81643 76.2523 6.24762L77.4473 7.85135ZM72.6746 11.5073C71.9145 12.1049 71.1283 12.7304 70.3175 13.3838L69.0626 11.8265C69.8796 11.1681 70.6721 10.5376 71.4383 9.93512L72.6746 11.5073ZM67.9798 15.2899C67.2238 15.9135 66.4499 16.5589 65.6592 17.2261L64.3694 15.6976C65.1659 15.0255 65.9455 14.3754 66.7071 13.7471L67.9798 15.2899ZM63.364 19.1844C62.6235 19.8232 61.8702 20.4796 61.1051 21.1538L59.7829 19.6532C60.5533 18.9743 61.3119 18.3132 62.0577 17.67L63.364 19.1844ZM58.8576 23.1551C58.121 23.8179 57.3748 24.4961 56.6196 25.1899L55.2666 23.7171C56.0269 23.0186 56.7782 22.3357 57.5198 21.6684L58.8576 23.1551ZM54.4112 27.2396C53.6918 27.9141 52.9652 28.6021 52.2319 29.3037L50.8493 27.8585C51.5875 27.1523 52.319 26.4596 53.0432 25.7806L54.4112 27.2396ZM50.0577 31.4047C49.3481 32.0972 48.6331 32.802 47.9129 33.5191L46.5018 32.1018C47.2266 31.38 47.9464 30.6706 48.6607 29.9734L50.0577 31.4047ZM45.7937 35.6502C45.0924 36.3623 44.3868 37.0859 43.6775 37.8207L42.2385 36.4317C42.9525 35.692 43.6627 34.9638 44.3686 34.2469L45.7937 35.6502ZM41.6071 39.9867C40.9219 40.7105 40.2336 41.4447 39.5426 42.1893L38.0767 40.8288C38.7722 40.0794 39.465 39.3403 40.1546 38.6118L41.6071 39.9867ZM37.5037 44.408C36.8345 45.1434 36.1631 45.8885 35.4898 46.6431L33.9974 45.3117C34.6751 44.5521 35.3509 43.8022 36.0245 43.062L37.5037 44.408ZM33.4876 48.9098C32.8341 49.657 32.1792 50.4131 31.5232 51.1782L30.0049 49.8763C30.6652 49.1062 31.3244 48.3452 31.9821 47.5931L33.4876 48.9098ZM29.5615 53.489C28.9236 54.248 28.2849 55.0155 27.6457 55.7914L26.102 54.5197C26.7454 53.7387 27.3883 52.9662 28.0304 52.2022L29.5615 53.489ZM25.7316 58.1385C25.1079 58.9112 24.4839 59.6919 23.86 60.4806L22.2915 59.2397C22.9195 58.4458 23.5476 57.66 24.1754 56.8822L25.7316 58.1385ZM21.9943 62.8633C21.3853 63.6492 20.7765 64.4426 20.1683 65.2438L18.5754 64.0344C19.1876 63.228 19.8004 62.4292 20.4134 61.6382L21.9943 62.8633ZM18.3509 67.6628C17.7574 68.461 17.1646 69.2666 16.5727 70.0795L14.9559 68.9023C15.5517 68.084 16.1484 67.273 16.7459 66.4695L18.3509 67.6628ZM14.8037 72.5352C14.2264 73.3452 13.6501 74.1622 13.0752 74.9863L11.435 73.8419C12.0137 73.0123 12.5938 72.1898 13.175 71.3744L14.8037 72.5352ZM11.355 77.4791C10.7944 78.3003 10.2353 79.1282 9.67785 79.9629L8.01466 78.8521C8.57589 78.0118 9.13877 77.1782 9.70311 76.3515L11.355 77.4791ZM8.01063 82.4872C7.46609 83.3209 6.92334 84.1612 6.38254 85.008L4.69696 83.9315C5.24144 83.079 5.7879 82.233 6.33613 81.3936L8.01063 82.4872ZM4.76999 87.562C4.24162 88.4085 3.71533 89.2613 3.19129 90.1204L1.48385 89.079C2.01149 88.2139 2.54139 87.3552 3.07338 86.503L4.76999 87.562Z" fill="#0D3982"/>
</svg>
