<svg width="147" height="15" viewBox="0 0 147 15" fill="none" xmlns="http://www.w3.org/2000/svg">
<path d="M146.5 4.99984L140.99 3.27441L142.251 8.90862L146.5 4.99984ZM0.999923 1.00055C0.78496 1.45198 0.784982 1.45199 0.785006 1.452C0.785017 1.45201 0.785043 1.45202 0.785064 1.45203C0.785105 1.45205 0.785153 1.45207 0.785209 1.4521C0.785319 1.45215 0.785457 1.45222 0.785623 1.45229C0.785955 1.45245 0.786398 1.45266 0.78695 1.45292C0.788056 1.45345 0.789604 1.45418 0.791593 1.45512C0.795573 1.457 0.801319 1.45971 0.80883 1.46323C0.823851 1.47028 0.845932 1.48058 0.875053 1.49402C0.933295 1.52091 1.0197 1.56038 1.13411 1.61155C1.36294 1.71387 1.70381 1.86295 2.15552 2.05169L2.54105 1.129C2.09706 0.943483 1.76375 0.79767 1.54232 0.698656C1.4316 0.649149 1.34886 0.611342 1.29424 0.586123C1.26693 0.573513 1.24665 0.56405 1.23341 0.557845C1.2268 0.554742 1.22195 0.552454 1.21886 0.550994C1.21731 0.550265 1.21621 0.549742 1.21555 0.549428C1.21522 0.549271 1.215 0.549166 1.21488 0.549114C1.21483 0.549087 1.2148 0.549075 1.2148 0.549075C1.2148 0.549075 1.21481 0.549078 1.21482 0.549084C1.21483 0.549088 1.21485 0.549095 1.21485 0.549097C1.21487 0.549105 1.21489 0.549114 0.999923 1.00055ZM4.90352 3.1339C5.7147 3.43696 6.64419 3.77156 7.69061 4.12966L8.01439 3.18353C6.97688 2.82848 6.05613 2.49701 5.2535 2.19714L4.90352 3.1339ZM10.5331 5.06405C11.4154 5.34281 12.3564 5.6301 13.3557 5.92303L13.637 4.96342C12.6445 4.67246 11.7101 4.38719 10.8343 4.11051L10.5331 5.06405ZM16.2068 6.72885C17.125 6.97898 18.0832 7.2312 19.081 7.48384L19.3265 6.51443C18.3345 6.26327 17.3821 6.01258 16.4697 5.76401L16.2068 6.72885ZM21.9458 8.1833C22.8739 8.4017 23.8316 8.61927 24.8187 8.83491L25.0321 7.85795C24.0503 7.64346 23.0978 7.42708 22.1748 7.20989L21.9458 8.1833ZM27.7133 9.44368C28.6629 9.63582 29.6369 9.82551 30.6349 10.0119L30.8185 9.02892C29.8254 8.84343 28.8564 8.6547 27.9116 8.46354L27.7133 9.44368ZM33.5458 10.5338C34.4947 10.697 35.4635 10.8568 36.4521 11.0126L36.6078 10.0248C35.6239 9.86973 34.6596 9.71068 33.7152 9.5483L33.5458 10.5338ZM39.3965 11.4562C40.3533 11.5936 41.3271 11.7271 42.3179 11.8562L42.447 10.8645C41.4606 10.7361 40.4912 10.6032 39.5387 10.4663L39.3965 11.4562ZM45.2508 12.2189C46.2222 12.3326 47.2088 12.442 48.2105 12.5464L48.3142 11.5518C47.3167 11.4478 46.3343 11.339 45.3672 11.2256L45.2508 12.2189ZM51.1331 12.833C52.1117 12.923 53.104 13.0082 54.1098 13.0882L54.1891 12.0913C53.1874 12.0116 52.1992 11.9268 51.2246 11.8372L51.1331 12.833ZM57.0317 13.3034C58.0114 13.3697 59.0032 13.4312 60.0071 13.4873L60.063 12.4889C59.063 12.4329 58.0751 12.3718 57.0993 12.3056L57.0317 13.3034ZM62.9396 13.6346C63.9211 13.6783 64.9136 13.717 65.9171 13.7503L65.9503 12.7508C64.9506 12.7177 63.9619 12.6792 62.9841 12.6356L62.9396 13.6346ZM68.8522 13.8315C69.8367 13.8533 70.8312 13.87 71.8357 13.8812L71.8468 12.8813C70.846 12.8701 69.8552 12.8535 68.8744 12.8317L68.8522 13.8315ZM74.7671 13.8984C75.7536 13.8989 76.7493 13.8942 77.7542 13.884L77.744 12.884C76.7427 12.8942 75.7506 12.8989 74.7677 12.8984L74.7671 13.8984ZM80.683 13.8391C81.6657 13.819 82.6569 13.7937 83.6566 13.7629L83.6258 12.7634C82.6296 12.7941 81.6419 12.8193 80.6626 12.8394L80.683 13.8391ZM86.5997 13.6574C87.5773 13.6175 88.5628 13.5723 89.556 13.5218L89.5051 12.523C88.5153 12.5734 87.5332 12.6184 86.5589 12.6583L86.5997 13.6574ZM92.5175 13.3563C93.4889 13.2973 94.4676 13.2331 95.4533 13.1636L95.383 12.1661C94.4005 12.2353 93.425 12.2993 92.4568 12.3582L92.5175 13.3563ZM98.4321 12.9391C99.3981 12.8615 100.371 12.779 101.35 12.6911L101.261 11.6951C100.285 11.7827 99.3151 11.865 98.3521 11.9423L98.4321 12.9391ZM104.303 12.4124C105.278 12.3157 106.26 12.2139 107.248 12.1067L107.14 11.1125C106.155 11.2193 105.176 11.3209 104.204 11.4173L104.303 12.4124ZM110.172 11.7761C111.153 11.6607 112.14 11.5401 113.133 11.4142L113.007 10.4221C112.017 10.5477 111.033 10.6679 110.055 10.783L110.172 11.7761ZM116.043 11.032C117.014 10.9002 117.99 10.7633 118.971 10.6213L118.828 9.63157C117.849 9.77323 116.876 9.9097 115.909 10.0411L116.043 11.032ZM121.918 10.1815C122.878 10.0341 123.843 9.88167 124.813 9.72419L124.652 8.73711C123.685 8.89414 122.723 9.04611 121.767 9.19312L121.918 10.1815ZM127.738 9.23644C128.707 9.07072 129.681 8.89994 130.66 8.72403L130.483 7.73979C129.507 7.91522 128.535 8.08551 127.569 8.25076L127.738 9.23644ZM133.548 8.19267C134.516 8.01057 135.488 7.82345 136.465 7.63122L136.272 6.65002C135.298 6.84172 134.328 7.02832 133.363 7.20992L133.548 8.19267ZM139.366 7.04856C140.32 6.85275 141.28 6.65209 142.243 6.44647L142.035 5.46849C141.074 5.67355 140.117 5.87367 139.165 6.06895L139.366 7.04856ZM146.5 4.99984L135.481 1.54897L138.002 12.8174L146.5 4.99984ZM0.999923 1.00055C0.569997 1.90341 0.57004 1.90343 0.570085 1.90345C0.570102 1.90346 0.570149 1.90348 0.570184 1.9035C0.570253 1.90353 0.570329 1.90357 0.570412 1.90361C0.570578 1.90369 0.570771 1.90378 0.570993 1.90388C0.571435 1.90409 0.571988 1.90436 0.572652 1.90467C0.57398 1.9053 0.57575 1.90614 0.577962 1.90719C0.582386 1.90928 0.588579 1.9122 0.596537 1.91593C0.612454 1.92339 0.635435 1.93411 0.665461 1.94797C0.725512 1.9757 0.813745 2.016 0.930008 2.06799C1.16253 2.17197 1.50719 2.32269 1.96276 2.51304L2.73382 0.667647C2.29368 0.483748 1.96415 0.339571 1.74642 0.242212C1.63756 0.193531 1.55664 0.156556 1.50383 0.132172C1.47742 0.119981 1.45804 0.110936 1.44571 0.10515C1.43954 0.102259 1.43513 0.10018 1.43249 0.0989312C1.43117 0.0983063 1.43028 0.0978881 1.42984 0.0976796C1.42962 0.0975753 1.42951 0.0975237 1.42952 0.0975238C1.42952 0.0975238 1.42954 0.0975373 1.4296 0.0975632C1.42963 0.0975766 1.42966 0.0975929 1.4297 0.097613C1.42972 0.0976226 1.42976 0.0976401 1.42977 0.0976454C1.42981 0.0976631 1.42985 0.097682 0.999923 1.00055ZM4.72853 3.60228C5.54399 3.90694 6.47784 4.2431 7.52872 4.60273L8.17629 2.71047C7.14323 2.35694 6.22684 2.02703 5.42849 1.72876L4.72853 3.60228ZM10.3824 5.54082C11.268 5.82061 12.2124 6.10892 13.215 6.40284L13.7776 4.48361C12.7885 4.19364 11.8574 3.90938 10.9849 3.63373L10.3824 5.54082ZM16.0754 7.21127C16.9965 7.46218 17.9575 7.71516 18.9583 7.96855L19.4492 6.02973C18.4602 5.77931 17.5107 5.52938 16.6011 5.28159L16.0754 7.21127ZM21.8312 8.67C22.7619 8.88902 23.7222 9.10718 24.712 9.32339L25.1388 7.36947C24.1596 7.15555 23.2097 6.93976 22.2894 6.72318L21.8312 8.67ZM27.6141 9.93376C28.5662 10.1264 29.5426 10.3165 30.5431 10.5034L30.9103 8.53742C29.9197 8.35239 28.9531 8.16413 28.0107 7.97347L27.6141 9.93376ZM33.461 11.0266C34.4123 11.1902 35.3834 11.3503 36.3742 11.5065L36.6857 9.53095C35.704 9.37619 34.7421 9.21752 33.7999 9.05553L33.461 11.0266ZM39.3254 11.9511C40.2844 12.0888 41.2603 12.2226 42.2533 12.352L42.5116 10.3687C41.5274 10.2405 40.5601 10.1079 39.6098 9.9714L39.3254 11.9511ZM45.1926 12.7155C46.1661 12.8295 47.1548 12.9391 48.1586 13.0438L48.366 11.0545C47.3707 10.9507 46.3904 10.8421 45.4253 10.729L45.1926 12.7155ZM51.0873 13.331C52.068 13.4211 53.0623 13.5064 54.0701 13.5866L54.2288 11.5929C53.2291 11.5134 52.2429 11.4287 51.2703 11.3393L51.0873 13.331ZM56.9979 13.8022C57.9796 13.8687 58.9733 13.9303 59.9792 13.9865L60.0909 11.9897C59.0929 11.9338 58.107 11.8728 57.1331 11.8068L56.9979 13.8022ZM62.9174 14.1341C63.9008 14.1779 64.8952 14.2167 65.9005 14.25L65.9668 12.2511C64.9691 12.218 63.9822 12.1796 63.0064 12.1361L62.9174 14.1341ZM68.8412 14.3314C69.8274 14.3533 70.8237 14.3699 71.8301 14.3812L71.8524 12.3813C70.8534 12.3701 69.8644 12.3536 68.8855 12.3319L68.8412 14.3314ZM74.7669 14.3984C75.7551 14.3989 76.7525 14.3942 77.7592 14.384L77.739 12.3841C76.7394 12.3942 75.749 12.3989 74.7679 12.3984L74.7669 14.3984ZM80.6933 14.339C81.6777 14.3189 82.6706 14.2935 83.672 14.2627L83.6104 12.2636C82.6159 12.2943 81.6299 12.3195 80.6524 12.3395L80.6933 14.339ZM86.6201 14.157C87.5994 14.117 88.5865 14.0717 89.5814 14.0211L89.4797 12.0237C88.4915 12.074 87.5111 12.1189 86.5384 12.1587L86.6201 14.157ZM92.5478 13.8554C93.5209 13.7963 94.5011 13.732 95.4885 13.6624L95.3479 11.6673C94.3669 11.7365 93.3931 11.8003 92.4265 11.8591L92.5478 13.8554ZM98.4721 13.4375C99.4397 13.3598 100.414 13.2771 101.395 13.1891L101.216 11.1971C100.242 11.2845 99.2735 11.3667 98.3121 11.4439L98.4721 13.4375ZM104.352 12.91C105.329 12.8131 106.312 12.7111 107.302 12.6038L107.086 10.6154C106.103 10.7221 105.125 10.8235 104.155 10.9197L104.352 12.91ZM110.231 12.2727C111.213 12.1571 112.201 12.0364 113.196 11.9102L112.944 9.92612C111.956 10.0515 110.973 10.1715 109.997 10.2864L110.231 12.2727ZM116.111 11.5274C117.082 11.3955 118.06 11.2584 119.043 11.1161L118.756 9.13673C117.779 9.27818 116.808 9.41444 115.841 9.54563L116.111 11.5274ZM121.994 10.6757C122.955 10.5281 123.921 10.3754 124.893 10.2177L124.572 8.24358C123.606 8.40038 122.646 8.55213 121.691 8.69893L121.994 10.6757ZM127.822 9.72928C128.793 9.56332 129.768 9.39231 130.748 9.21614L130.394 7.24768C129.419 7.42285 128.45 7.5929 127.485 7.75792L127.822 9.72928ZM133.64 8.68405C134.609 8.50169 135.583 8.31431 136.562 8.12182L136.176 6.15942C135.203 6.35086 134.234 6.5372 133.271 6.71855L133.64 8.68405ZM139.466 7.53836C140.422 7.34229 141.383 7.14136 142.348 6.93547L141.93 4.97949C140.97 5.18428 140.015 5.38413 139.064 5.57914L139.466 7.53836Z" fill="#0D3982"/>
</svg>
