<svg width="34" height="34" viewBox="0 0 34 34" fill="none" xmlns="http://www.w3.org/2000/svg">
<path d="M17.5312 27.625H16.4688V28.6875H17.5312V27.625Z" fill="#01B9EA"/>
<path d="M11.6875 12.2188H13.8125C13.9534 12.2188 14.0885 12.1628 14.1882 12.0632C14.2878 11.9635 14.3438 11.8284 14.3438 11.6875V9.5625C14.3438 9.4216 14.2878 9.28648 14.1882 9.18685C14.0885 9.08722 13.9534 9.03125 13.8125 9.03125H11.6875C11.5466 9.03125 11.4115 9.08722 11.3118 9.18685C11.2122 9.28648 11.1562 9.4216 11.1562 9.5625V11.6875C11.1562 11.8284 11.2122 11.9635 11.3118 12.0632C11.4115 12.1628 11.5466 12.2188 11.6875 12.2188ZM12.2188 10.0938H13.2812V11.1562H12.2188V10.0938Z" fill="#01B9EA"/>
<path d="M15.9375 12.2188H18.0625C18.2034 12.2188 18.3385 12.1628 18.4382 12.0632C18.5378 11.9635 18.5938 11.8284 18.5938 11.6875V9.5625C18.5938 9.4216 18.5378 9.28648 18.4382 9.18685C18.3385 9.08722 18.2034 9.03125 18.0625 9.03125H15.9375C15.7966 9.03125 15.6615 9.08722 15.5618 9.18685C15.4622 9.28648 15.4062 9.4216 15.4062 9.5625V11.6875C15.4062 11.8284 15.4622 11.9635 15.5618 12.0632C15.6615 12.1628 15.7966 12.2188 15.9375 12.2188ZM16.4688 10.0938H17.5312V11.1562H16.4688V10.0938Z" fill="#01B9EA"/>
<path d="M14.3438 15.9375V13.8125C14.3438 13.6716 14.2878 13.5365 14.1882 13.4368C14.0885 13.3372 13.9534 13.2812 13.8125 13.2812H11.6875C11.5466 13.2812 11.4115 13.3372 11.3118 13.4368C11.2122 13.5365 11.1562 13.6716 11.1562 13.8125V15.9375C11.1562 16.0784 11.2122 16.2135 11.3118 16.3132C11.4115 16.4128 11.5466 16.4688 11.6875 16.4688H13.8125C13.9534 16.4688 14.0885 16.4128 14.1882 16.3132C14.2878 16.2135 14.3438 16.0784 14.3438 15.9375ZM13.2812 15.4062H12.2188V14.3438H13.2812V15.4062Z" fill="#01B9EA"/>
<path d="M15.9375 16.4688H18.0625C18.2034 16.4688 18.3385 16.4128 18.4382 16.3132C18.5378 16.2135 18.5938 16.0784 18.5938 15.9375V13.8125C18.5938 13.6716 18.5378 13.5365 18.4382 13.4368C18.3385 13.3372 18.2034 13.2812 18.0625 13.2812H15.9375C15.7966 13.2812 15.6615 13.3372 15.5618 13.4368C15.4622 13.5365 15.4062 13.6716 15.4062 13.8125V15.9375C15.4062 16.0784 15.4622 16.2135 15.5618 16.3132C15.6615 16.4128 15.7966 16.4688 15.9375 16.4688ZM16.4688 14.3438H17.5312V15.4062H16.4688V14.3438Z" fill="#01B9EA"/>
<path d="M15.9375 20.7188H18.0625C18.2034 20.7188 18.3385 20.6628 18.4382 20.5632C18.5378 20.4635 18.5938 20.3284 18.5938 20.1875V18.0625C18.5938 17.9216 18.5378 17.7865 18.4382 17.6868C18.3385 17.5872 18.2034 17.5312 18.0625 17.5312H15.9375C15.7966 17.5312 15.6615 17.5872 15.5618 17.6868C15.4622 17.7865 15.4062 17.9216 15.4062 18.0625V20.1875C15.4062 20.3284 15.4622 20.4635 15.5618 20.5632C15.6615 20.6628 15.7966 20.7188 15.9375 20.7188ZM16.4688 18.5938H17.5312V19.6562H16.4688V18.5938Z" fill="#01B9EA"/>
<path d="M20.1875 20.7188H22.3125C22.4534 20.7188 22.5885 20.6628 22.6882 20.5632C22.7878 20.4635 22.8438 20.3284 22.8438 20.1875V18.0625C22.8438 17.9216 22.7878 17.7865 22.6882 17.6868C22.5885 17.5872 22.4534 17.5312 22.3125 17.5312H20.1875C20.0466 17.5312 19.9115 17.5872 19.8118 17.6868C19.7122 17.7865 19.6562 17.9216 19.6562 18.0625V20.1875C19.6562 20.3284 19.7122 20.4635 19.8118 20.5632C19.9115 20.6628 20.0466 20.7188 20.1875 20.7188ZM20.7188 18.5938H21.7812V19.6562H20.7188V18.5938Z" fill="#01B9EA"/>
<path d="M15.9375 24.9688H18.0625C18.2034 24.9688 18.3385 24.9128 18.4382 24.8132C18.5378 24.7135 18.5938 24.5784 18.5938 24.4375V22.3125C18.5938 22.1716 18.5378 22.0365 18.4382 21.9368C18.3385 21.8372 18.2034 21.7812 18.0625 21.7812H15.9375C15.7966 21.7812 15.6615 21.8372 15.5618 21.9368C15.4622 22.0365 15.4062 22.1716 15.4062 22.3125V24.4375C15.4062 24.5784 15.4622 24.7135 15.5618 24.8132C15.6615 24.9128 15.7966 24.9688 15.9375 24.9688ZM16.4688 22.8438H17.5312V23.9062H16.4688V22.8438Z" fill="#01B9EA"/>
<path d="M20.1875 24.9688H22.3125C22.4534 24.9688 22.5885 24.9128 22.6882 24.8132C22.7878 24.7135 22.8438 24.5784 22.8438 24.4375V22.3125C22.8438 22.1716 22.7878 22.0365 22.6882 21.9368C22.5885 21.8372 22.4534 21.7812 22.3125 21.7812H20.1875C20.0466 21.7812 19.9115 21.8372 19.8118 21.9368C19.7122 22.0365 19.6562 22.1716 19.6562 22.3125V24.4375C19.6562 24.5784 19.7122 24.7135 19.8118 24.8132C19.9115 24.9128 20.0466 24.9688 20.1875 24.9688ZM20.7188 22.8438H21.7812V23.9062H20.7188V22.8438Z" fill="#01B9EA"/>
<path d="M18.5938 5.3125H15.4062V6.375H18.5938V5.3125Z" fill="#01B9EA"/>
<path d="M23.6268 14.2648C23.7038 14.3125 23.7918 14.3396 23.8822 14.3437C23.9727 14.3478 24.0627 14.3287 24.1437 14.2882L28.3937 12.1632C28.4821 12.1192 28.5565 12.0513 28.6085 11.9673C28.6605 11.8833 28.688 11.7865 28.688 11.6877C28.688 11.589 28.6605 11.4922 28.6085 11.4082C28.5565 11.3242 28.4821 11.2563 28.3937 11.2123L24.1437 9.08728C24.0627 9.0468 23.9727 9.0277 23.8822 9.03179C23.7917 9.03589 23.7038 9.06305 23.6268 9.11069C23.5498 9.15833 23.4862 9.22487 23.4421 9.30399C23.3981 9.38311 23.375 9.47218 23.375 9.56275V13.8127C23.375 13.9033 23.3981 13.9924 23.4421 14.0715C23.4862 14.1507 23.5498 14.2172 23.6268 14.2648ZM24.4375 10.4223L26.9684 11.6877L24.4375 12.9532V10.4223Z" fill="#01B9EA"/>
<path d="M3.1875 18.0625V26.5625C3.1875 26.7034 3.24347 26.8385 3.3431 26.9382C3.44273 27.0378 3.57785 27.0938 3.71875 27.0938H9.03125V28.6875C9.03125 29.2511 9.25513 29.7916 9.65365 30.1901C10.0522 30.5886 10.5927 30.8125 11.1562 30.8125H22.8438C23.4073 30.8125 23.9478 30.5886 24.3464 30.1901C24.7449 29.7916 24.9688 29.2511 24.9688 28.6875V16.4688H30.2812C30.4221 16.4688 30.5573 16.4128 30.6569 16.3132C30.7565 16.2135 30.8125 16.0784 30.8125 15.9375V7.4375C30.8125 7.2966 30.7565 7.16148 30.6569 7.06185C30.5573 6.96222 30.4221 6.90625 30.2812 6.90625H24.9688V5.3125C24.9688 4.74891 24.7449 4.20841 24.3464 3.8099C23.9478 3.41138 23.4073 3.1875 22.8438 3.1875H11.1562C10.5927 3.1875 10.0522 3.41138 9.65365 3.8099C9.25513 4.20841 9.03125 4.74891 9.03125 5.3125V17.5312H3.71875C3.57785 17.5312 3.44273 17.5872 3.3431 17.6868C3.24347 17.7865 3.1875 17.9216 3.1875 18.0625ZM29.75 15.4062H21.7812V11.6875C21.7812 11.5466 21.7252 11.4115 21.6256 11.3119L20.9387 10.625L21.6256 9.93809C21.7252 9.83849 21.7812 9.70338 21.7812 9.5625V7.96875H29.75V15.4062ZM10.0938 5.3125C10.0938 5.03071 10.2057 4.76046 10.4049 4.5612C10.6042 4.36194 10.8745 4.25 11.1562 4.25H22.8438C23.1255 4.25 23.3958 4.36194 23.5951 4.5612C23.7943 4.76046 23.9062 5.03071 23.9062 5.3125V6.90625H21.25C21.1091 6.90625 20.974 6.96222 20.8743 7.06185C20.7747 7.16148 20.7188 7.2966 20.7188 7.4375V9.34256L19.8119 10.2494C19.7123 10.349 19.6564 10.4841 19.6564 10.625C19.6564 10.7659 19.7123 10.901 19.8119 11.0006L20.7188 11.9074V15.9375C20.7188 16.0784 20.7747 16.2135 20.8743 16.3132C20.974 16.4128 21.1091 16.4688 21.25 16.4688H23.9062V28.6875C23.9062 28.9693 23.7943 29.2395 23.5951 29.4388C23.3958 29.6381 23.1255 29.75 22.8438 29.75H11.1562C10.8745 29.75 10.6042 29.6381 10.4049 29.4388C10.2057 29.2395 10.0938 28.9693 10.0938 28.6875V27.0938H12.75C12.8909 27.0938 13.026 27.0378 13.1257 26.9382C13.2253 26.8385 13.2812 26.7034 13.2812 26.5625V24.6574L14.1881 23.7506C14.2877 23.651 14.3436 23.5159 14.3436 23.375C14.3436 23.2341 14.2877 23.099 14.1881 22.9994L13.2812 22.0926V18.0625C13.2812 17.9216 13.2253 17.7865 13.1257 17.6868C13.026 17.5872 12.8909 17.5312 12.75 17.5312H10.0938V5.3125ZM4.25 18.5938H12.2188V22.3125C12.2188 22.4534 12.2748 22.5885 12.3744 22.6881L13.0613 23.375L12.3744 24.0619C12.2748 24.1615 12.2188 24.2966 12.2188 24.4375V26.0312H4.25V18.5938Z" fill="#01B9EA"/>
<path d="M6.375 19.6562H5.3125V20.7188H6.375V19.6562Z" fill="#01B9EA"/>
<path d="M11.1562 19.6562H7.4375V20.7188H11.1562V19.6562Z" fill="#01B9EA"/>
<path d="M11.1562 21.7812H5.3125V22.8438H11.1562V21.7812Z" fill="#01B9EA"/>
<path d="M11.1562 23.9062H5.3125V24.9688H11.1562V23.9062Z" fill="#01B9EA"/>
<path d="M7.96875 7.4375H6.90625V15.9375H7.96875V7.4375Z" fill="#01B9EA"/>
<path d="M27.0938 18.0625H26.0312V25.5H27.0938V18.0625Z" fill="#01B9EA"/>
<path d="M27.0938 26.5625H26.0312V27.625H27.0938V26.5625Z" fill="#01B9EA"/>
</svg>
