<svg width="24" height="24" viewBox="0 0 24 24" fill="none" xmlns="http://www.w3.org/2000/svg">
<g clip-path="url(#clip0_1930_3965)">
<path d="M1.6 20.0066H2.4V19.2066H1.6C1.1581 19.2066 0.8 18.8485 0.8 18.4066V2.40664C0.8 1.96474 1.1581 1.60664 1.6 1.60664H19.2C19.6419 1.60664 20 1.96474 20 2.40664V3.20664H20.8V2.40664C20.8 1.52304 20.0836 0.806641 19.2 0.806641H1.6C0.7164 0.806641 0 1.52304 0 2.40664V18.4066C0 19.2902 0.7164 20.0066 1.6 20.0066Z" fill="#01B9EA"/>
<path d="M1.59998 2.40625H2.39998V3.20625H1.59998V2.40625Z" fill="#01B9EA"/>
<path d="M3.19983 2.40625H3.99983V3.20625H3.19983V2.40625Z" fill="#01B9EA"/>
<path d="M4.7998 2.40625H5.5998V3.20625H4.7998V2.40625Z" fill="#01B9EA"/>
<path d="M3.19983 21.6059C3.19983 22.4895 3.91623 23.2059 4.79983 23.2059H22.3998C23.2834 23.2059 23.9998 22.4895 23.9998 21.6059V5.60586C23.9998 4.72226 23.2834 4.00586 22.3998 4.00586H4.79983C3.91623 4.00586 3.19983 4.72226 3.19983 5.60586V21.6059ZM3.99983 5.60586C3.99983 5.16396 4.35793 4.80586 4.79983 4.80586H22.3998C22.8417 4.80586 23.1998 5.16396 23.1998 5.60586V21.6059C23.1998 22.0478 22.8417 22.4059 22.3998 22.4059H4.79983C4.35793 22.4059 3.99983 22.0478 3.99983 21.6059V5.60586Z" fill="#01B9EA"/>
<path d="M4.7998 5.60742H5.5998V6.40742H4.7998V5.60742Z" fill="#01B9EA"/>
<path d="M6.40002 5.60742H7.20002V6.40742H6.40002V5.60742Z" fill="#01B9EA"/>
<path d="M8 5.60742H8.8V6.40742H8V5.60742Z" fill="#01B9EA"/>
<g clip-path="url(#clip1_1930_3965)">
<path d="M18.2352 11.4896C17.9943 10.8357 17.4559 10.3511 16.8979 10.17C16.6397 10.0863 16.3528 10.1543 16.1598 10.3473L8.62215 17.8849C8.42241 18.0847 8.35642 18.385 8.45409 18.6501C8.6783 19.2586 9.15589 19.7362 9.7644 19.9604C10.0294 20.0581 10.3298 19.9921 10.5295 19.7923C11.1027 19.2193 17.4951 12.8272 18.0672 12.2547C18.2665 12.0554 18.333 11.7551 18.2352 11.4896ZM17.7545 11.6667C17.7834 11.7452 17.7637 11.8337 17.7048 11.8926L16.3772 13.2202C16.3189 13.2679 16.2386 13.282 16.1671 13.2556C15.6996 13.0834 15.3326 12.7165 15.1604 12.249C15.1316 12.1707 15.151 12.0821 15.2101 12.0231C16.6272 10.6043 16.5297 10.6949 16.5732 10.6718C16.6067 10.6591 16.6594 10.63 16.7424 10.6581C17.1683 10.8029 17.5719 11.1712 17.7545 11.6667ZM10.1673 19.4301C10.1083 19.4891 10.0197 19.5085 9.94153 19.4797C9.47401 19.3074 9.10707 18.9405 8.93484 18.473C8.90602 18.3948 8.92549 18.3062 8.98443 18.2472L14.7152 12.5164C14.9392 13.0512 15.3629 13.4754 15.8975 13.6999L10.1673 19.4301Z" fill="#01B9EA"/>
<path d="M12.0287 11.8779C12.3279 11.9633 12.5576 12.1929 12.6429 12.4921C12.7363 12.8196 13.202 12.8203 13.2955 12.4921C13.3809 12.1929 13.6105 11.9633 13.9097 11.8779C14.2373 11.7845 14.2379 11.3189 13.9097 11.2253C13.6105 11.1399 13.3809 10.9104 13.2955 10.6111C13.2021 10.2836 12.7365 10.283 12.6429 10.6111C12.5575 10.9103 12.3279 11.1399 12.0287 11.2253C11.7012 11.3187 11.7005 11.7843 12.0287 11.8779ZM12.9692 11.123C13.079 11.2958 13.225 11.4419 13.3978 11.5516C13.225 11.6614 13.079 11.8074 12.9692 11.9802C12.8595 11.8074 12.7135 11.6613 12.5407 11.5516C12.7134 11.4419 12.8595 11.2958 12.9692 11.123Z" fill="#01B9EA"/>
<path d="M9.69852 10.1763C10.098 10.2902 10.4045 10.5967 10.5185 10.9962C10.6178 11.3446 11.1132 11.3454 11.2128 10.9962C11.3267 10.5967 11.6333 10.2902 12.0327 10.1763C12.3811 10.0769 12.3819 9.58157 12.0327 9.48196C11.6332 9.36799 11.3267 9.06146 11.2128 8.66202C11.1134 8.31358 10.618 8.31278 10.5185 8.66202C10.4045 9.06146 10.098 9.36799 9.69852 9.48193C9.3501 9.58132 9.34926 10.0766 9.69852 10.1763ZM10.8656 9.15769C11.0209 9.44156 11.2531 9.67373 11.537 9.82909C11.2531 9.98442 11.0209 10.2166 10.8656 10.5005C10.7103 10.2166 10.4781 9.98442 10.1942 9.82909C10.4781 9.67373 10.7103 9.44156 10.8656 9.15769Z" fill="#01B9EA"/>
<path d="M12.8081 9.0109C13.3387 9.16231 13.7459 9.56951 13.8973 10.1002C14.0045 10.4761 14.5388 10.4767 14.6462 10.1002C14.7976 9.56951 15.2048 9.16231 15.7355 9.01092C16.1113 8.90375 16.1121 8.36947 15.7355 8.26207C15.2048 8.11066 14.7976 7.70346 14.6462 7.17279C14.539 6.79699 14.0047 6.79615 13.8973 7.17279C13.7459 7.70346 13.3387 8.11066 12.8081 8.26207C12.4323 8.36922 12.4314 8.90347 12.8081 9.0109ZM14.2718 7.63022C14.4793 8.07467 14.8336 8.429 15.278 8.63648C14.8336 8.84396 14.4793 9.1983 14.2718 9.64274C14.0643 9.19827 13.71 8.84396 13.2655 8.63648C13.71 8.42898 14.0643 8.07467 14.2718 7.63022Z" fill="#01B9EA"/>
<path d="M11.0315 16.668C10.8901 16.668 10.7754 16.7826 10.7754 16.9241C10.7754 17.0656 10.8901 17.1803 11.0315 17.1803H11.0322C11.1737 17.1803 11.288 17.0656 11.288 16.9241C11.288 16.7826 11.173 16.668 11.0315 16.668Z" fill="#01B9EA"/>
<path d="M10.2058 17.3922L9.59266 18.0107C9.49307 18.1112 9.49379 18.2734 9.59425 18.3729C9.69463 18.4725 9.8568 18.4719 9.9565 18.3714L10.5696 17.7529C10.6692 17.6524 10.6685 17.4902 10.568 17.3906C10.4676 17.291 10.3053 17.2918 10.2058 17.3922Z" fill="#01B9EA"/>
</g>
<path d="M20 20.8066H22.4V21.6066H20V20.8066Z" fill="#01B9EA"/>
</g>
<defs>
<clipPath id="clip0_1930_3965">
<rect width="24" height="24" fill="white"/>
</clipPath>
<clipPath id="clip1_1930_3965">
<rect width="13.1142" height="13.1142" fill="white" transform="translate(6.78772 6.89062)"/>
</clipPath>
</defs>
</svg>
