<svg width="24" height="24" viewBox="0 0 24 24" fill="none" xmlns="http://www.w3.org/2000/svg">
<g clip-path="url(#clip0_1930_4713)">
<path d="M10.4075 3.58493H12.7973L9.61084 0.398438V2.78831C9.61084 3.22824 9.96753 3.58493 10.4075 3.58493Z" fill="url(#paint0_linear_1930_4713)"/>
<path d="M20.7635 10.7549H23.1534L19.9669 7.56836V9.95823C19.9669 10.3982 20.3236 10.7549 20.7635 10.7549Z" fill="url(#paint1_linear_1930_4713)"/>
<path d="M3.23791 3.98217H7.22103C7.441 3.98217 7.61934 3.80383 7.61934 3.58386C7.61934 3.36389 7.441 3.18555 7.22103 3.18555H3.23791C3.01795 3.18555 2.8396 3.36389 2.8396 3.58386C2.8396 3.80383 3.01795 3.98217 3.23791 3.98217Z" fill="#01B9EA"/>
<path d="M10.4075 5.57617H3.23791C3.01795 5.57617 2.8396 5.75452 2.8396 5.97448C2.8396 6.19445 3.01795 6.3728 3.23791 6.3728H10.4075C10.6275 6.3728 10.8058 6.19445 10.8058 5.97448C10.8058 5.75452 10.6275 5.57617 10.4075 5.57617Z" fill="#01B9EA"/>
<path d="M9.6109 7.9668H3.23791C3.01795 7.9668 2.8396 8.14514 2.8396 8.36511C2.8396 8.58507 3.01795 8.76342 3.23791 8.76342H9.6109C9.83087 8.76342 10.0092 8.58507 10.0092 8.36511C10.0092 8.14514 9.83087 7.9668 9.6109 7.9668Z" fill="#01B9EA"/>
<path d="M9.6109 10.3555H3.23791C3.01795 10.3555 2.8396 10.5338 2.8396 10.7538C2.8396 10.9737 3.01795 11.1521 3.23791 11.1521H9.6109C9.83087 11.1521 10.0092 10.9737 10.0092 10.7538C10.0092 10.5338 9.83087 10.3555 9.6109 10.3555Z" fill="#01B9EA"/>
<path d="M9.6109 12.7461H3.23791C3.01795 12.7461 2.8396 12.9244 2.8396 13.1444C2.8396 13.3644 3.01795 13.5427 3.23791 13.5427H9.6109C9.83087 13.5427 10.0092 13.3644 10.0092 13.1444C10.0092 12.9244 9.83087 12.7461 9.6109 12.7461Z" fill="#01B9EA"/>
<path d="M23.5467 10.7293C23.5448 10.6945 23.5378 10.6599 23.5263 10.627C23.522 10.6142 23.5187 10.6019 23.5133 10.5895C23.494 10.5461 23.467 10.5066 23.4335 10.4728L20.2471 7.28631C20.2124 7.25266 20.172 7.22563 20.1276 7.20657C20.1164 7.2019 20.1053 7.19879 20.0938 7.1947C20.059 7.18245 20.0226 7.17525 19.9859 7.17312C19.9783 7.17312 19.9715 7.16884 19.9639 7.16884H13.1957V3.58481C13.1957 3.57606 13.1914 3.56847 13.1906 3.55972C13.1887 3.5249 13.1817 3.49029 13.1702 3.45742C13.1659 3.44458 13.1626 3.43233 13.1572 3.41988C13.1379 3.37651 13.1109 3.33703 13.0774 3.30319L9.89094 0.116693C9.8571 0.0834354 9.81743 0.0564016 9.77386 0.0369528C9.76239 0.0318961 9.75033 0.0285898 9.73846 0.024311C9.70385 0.0124472 9.66806 0.00544567 9.63169 0.00311181C9.62566 0.00388976 9.61885 0 9.61088 0H2.44127C1.34202 0.00136142 0.451068 0.892118 0.449707 1.99156V14.7375C0.451068 15.837 1.34202 16.7277 2.44127 16.7291H10.8058V21.9072C10.8072 23.0066 11.6981 23.8974 12.7974 23.8987H21.5602C22.6597 23.8974 23.5506 23.0066 23.5518 21.9072V10.7544C23.5518 10.7457 23.5475 10.7381 23.5467 10.7293ZM22.1921 10.3561H20.7636C20.5436 10.3561 20.3653 10.1778 20.3653 9.9578V8.52948L22.1921 10.3561ZM11.836 3.1865H10.4075C10.1875 3.1865 10.0092 3.00815 10.0092 2.78818V1.35986L11.836 3.1865ZM2.44127 15.9325C1.78137 15.9325 1.24633 15.3974 1.24633 14.7375V1.99156C1.24633 1.33166 1.78137 0.796624 2.44127 0.796624H9.21257V2.78818C9.21257 3.44808 9.74761 3.98312 10.4075 3.98312H12.3991V7.20948C12.3921 7.20948 12.3856 7.21415 12.3784 7.2159C12.2651 7.24041 12.154 7.27503 12.0467 7.31898C12.0068 7.33454 11.9733 7.35555 11.9364 7.37363C11.8636 7.40767 11.7932 7.44618 11.7252 7.48857C11.6853 7.51425 11.6491 7.54323 11.6112 7.57104C11.5521 7.61519 11.4951 7.66225 11.4408 7.71204C11.4054 7.74549 11.3724 7.78031 11.3393 7.81609C11.2899 7.86938 11.2436 7.9254 11.2006 7.98413C11.1715 8.024 11.1436 8.06387 11.1174 8.10374C11.0781 8.16714 11.0425 8.23288 11.0106 8.30037C10.99 8.34296 10.9684 8.384 10.9509 8.42795C10.9215 8.50536 10.8968 8.58452 10.8772 8.66484C10.8669 8.70471 10.8533 8.74166 10.8453 8.78445C10.8202 8.90834 10.807 9.03456 10.8058 9.16117V15.9325H2.44127ZM21.5602 23.1021H12.7974C12.1375 23.1021 11.6024 22.5671 11.6024 21.9072V9.16117C11.6024 8.50128 12.1375 7.96624 12.7974 7.96624H19.5687V9.9578C19.5687 10.6177 20.1037 11.1527 20.7636 11.1527H22.7552V21.9072C22.7552 22.5671 22.2203 23.1021 21.5602 23.1021Z" fill="#01B9EA"/>
<path d="M13.594 11.1521H17.5771C17.7971 11.1521 17.9754 10.9737 17.9754 10.7538C17.9754 10.5338 17.7971 10.3555 17.5771 10.3555H13.594C13.374 10.3555 13.1957 10.5338 13.1957 10.7538C13.1957 10.9737 13.374 11.1521 13.594 11.1521Z" fill="#01B9EA"/>
<path d="M13.594 13.5427H20.7636C20.9836 13.5427 21.1619 13.3644 21.1619 13.1444C21.1619 12.9244 20.9836 12.7461 20.7636 12.7461H13.594C13.374 12.7461 13.1957 12.9244 13.1957 13.1444C13.1957 13.3644 13.374 13.5427 13.594 13.5427Z" fill="#01B9EA"/>
<path d="M13.594 15.9333H20.7636C20.9836 15.9333 21.1619 15.755 21.1619 15.535C21.1619 15.3151 20.9836 15.1367 20.7636 15.1367H13.594C13.374 15.1367 13.1957 15.3151 13.1957 15.535C13.1957 15.755 13.374 15.9333 13.594 15.9333Z" fill="#01B9EA"/>
<path d="M13.594 18.322H20.7636C20.9836 18.322 21.1619 18.1437 21.1619 17.9237C21.1619 17.7037 20.9836 17.5254 20.7636 17.5254H13.594C13.374 17.5254 13.1957 17.7037 13.1957 17.9237C13.1957 18.1437 13.374 18.322 13.594 18.322Z" fill="#01B9EA"/>
<path d="M20.3653 20.3143C20.3653 20.0944 20.1869 19.916 19.967 19.916H13.594C13.374 19.916 13.1957 20.0944 13.1957 20.3143C13.1957 20.5343 13.374 20.7126 13.594 20.7126H19.967C20.1869 20.7126 20.3653 20.5343 20.3653 20.3143Z" fill="#01B9EA"/>
<path d="M14.82 2.54295C14.84 2.59118 14.8692 2.63494 14.9062 2.6717L16.5957 4.36103C16.6957 4.46449 16.8439 4.50592 16.9831 4.46955C17.1224 4.43318 17.2311 4.32427 17.2675 4.18501C17.304 4.04576 17.2624 3.89775 17.1589 3.79779L16.1488 2.788H19.9669C20.627 2.788 21.1619 3.32304 21.1619 3.98294V6.77112C21.1619 6.99109 21.3402 7.16944 21.5602 7.16944C21.7802 7.16944 21.9585 6.99109 21.9585 6.77112V3.98294C21.9573 2.8835 21.0664 1.99274 19.9669 1.99138H16.1488L17.1589 0.981598C17.2624 0.881631 17.304 0.733626 17.2675 0.594372C17.2311 0.455118 17.1224 0.346205 16.9831 0.309836C16.8439 0.273466 16.6957 0.314892 16.5957 0.41836L14.9062 2.10768C14.8692 2.14444 14.84 2.1882 14.82 2.23644C14.7786 2.33446 14.7786 2.44493 14.82 2.54295Z" fill="#01B9EA"/>
<path d="M9.18166 21.7536C9.16163 21.7053 9.13245 21.6616 9.0955 21.6248L7.40598 19.9355C7.30582 19.832 7.15781 19.7906 7.01856 19.827C6.87931 19.8633 6.77059 19.9722 6.73402 20.1115C6.69766 20.2508 6.73908 20.3988 6.84274 20.4987L7.85291 21.5085H4.03453C3.37463 21.5085 2.83959 20.9735 2.83959 20.3136V17.9237C2.83959 17.7037 2.66125 17.5254 2.44128 17.5254C2.22131 17.5254 2.04297 17.7037 2.04297 17.9237V20.3136C2.04433 21.413 2.93528 22.3038 4.03453 22.3051H7.85291L6.84274 23.3149C6.73908 23.4149 6.69766 23.5629 6.73402 23.7021C6.77059 23.8414 6.87931 23.9503 7.01856 23.9867C7.15781 24.023 7.30582 23.9816 7.40598 23.8782L9.0955 22.1888C9.13245 22.1521 9.16163 22.1083 9.18166 22.0601C9.22308 21.9621 9.22308 21.8516 9.18166 21.7536Z" fill="#01B9EA"/>
<path d="M21.5602 19.916C21.3402 19.916 21.1619 20.0944 21.1619 20.3143V21.111C21.1619 21.3309 20.9835 21.5093 20.7635 21.5093H19.9669C19.7469 21.5093 19.5686 21.6876 19.5686 21.9076C19.5686 22.1275 19.7469 22.3059 19.9669 22.3059H20.7635C21.4236 22.3059 21.9585 21.7708 21.9585 21.111V20.3143C21.9585 20.0944 21.7801 19.916 21.5602 19.916Z" fill="#01B9EA"/>
</g>
<defs>
<linearGradient id="paint0_linear_1930_4713" x1="9.61084" y1="0.514077" x2="13.3979" y2="1.58497" gradientUnits="userSpaceOnUse">
<stop offset="0.161458" stop-color="#F92121"/>
<stop offset="1" stop-color="#2D4BB3"/>
</linearGradient>
<linearGradient id="paint1_linear_1930_4713" x1="19.9669" y1="7.684" x2="23.754" y2="8.75489" gradientUnits="userSpaceOnUse">
<stop offset="0.161458" stop-color="#F92121"/>
<stop offset="1" stop-color="#2D4BB3"/>
</linearGradient>
<clipPath id="clip0_1930_4713">
<rect width="24" height="24" fill="white"/>
</clipPath>
</defs>
</svg>
