<svg width="24" height="24" viewBox="0 0 24 24" fill="none" xmlns="http://www.w3.org/2000/svg">
<g clip-path="url(#clip0_1930_3953)">
<path d="M22.125 0.75H1.875C1.57663 0.75 1.29048 0.868526 1.0795 1.0795C0.868526 1.29048 0.75 1.57663 0.75 1.875V19.875C0.75 20.1734 0.868526 20.4595 1.0795 20.6705C1.29048 20.8815 1.57663 21 1.875 21H7.41975L8.81738 22.3976C8.8877 22.4679 8.98306 22.5074 9.0825 22.5074C9.18194 22.5074 9.2773 22.4679 9.34762 22.3976L10.3429 21.4024C10.3939 21.4245 10.446 21.4463 10.5 21.4676V22.875C10.5 22.9745 10.5395 23.0698 10.6098 23.1402C10.6802 23.2105 10.7755 23.25 10.875 23.25H13.125C13.2245 23.25 13.3198 23.2105 13.3902 23.1402C13.4605 23.0698 13.5 22.9745 13.5 22.875V21.4676C13.554 21.4463 13.6061 21.4245 13.6571 21.4024L14.6524 22.3976C14.724 22.4654 14.8189 22.5031 14.9175 22.5031C15.0161 22.5031 15.111 22.4654 15.1826 22.3976L16.5802 21H22.125C22.4234 21 22.7095 20.8815 22.9205 20.6705C23.1315 20.4595 23.25 20.1734 23.25 19.875V1.875C23.25 1.57663 23.1315 1.29048 22.9205 1.0795C22.7095 0.868526 22.4234 0.75 22.125 0.75ZM14.9175 21.6022L13.9976 20.6824C13.9403 20.625 13.8658 20.5877 13.7855 20.5762C13.7052 20.5647 13.6233 20.5796 13.5521 20.6186C13.3791 20.7116 13.1975 20.7876 13.0099 20.8455C12.9344 20.8699 12.8685 20.9175 12.8218 20.9817C12.7751 21.0458 12.75 21.1232 12.75 21.2025V22.5H11.25V21.2025C11.25 21.1232 11.2249 21.0458 11.1782 20.9817C11.1315 20.9175 11.0656 20.8699 10.9901 20.8455C10.8025 20.7876 10.6209 20.7116 10.4479 20.6186C10.3767 20.5796 10.2948 20.5647 10.2145 20.5762C10.1342 20.5877 10.0597 20.625 10.0024 20.6824L9.0825 21.6022L8.025 20.5425L8.9445 19.6226C9.00181 19.5653 9.039 19.4909 9.05049 19.4107C9.06199 19.3304 9.04716 19.2486 9.00825 19.1775C8.91553 19.0044 8.83957 18.8228 8.78137 18.6353C8.75698 18.5594 8.70904 18.4932 8.64451 18.4464C8.57998 18.3996 8.50221 18.3746 8.4225 18.375H7.125V16.875H8.4225C8.50189 16.875 8.57924 16.8498 8.64339 16.803C8.70755 16.7563 8.75521 16.6903 8.7795 16.6147C8.83769 16.4272 8.91366 16.2456 9.00638 16.0725C9.04529 16.0014 9.06011 15.9196 9.04862 15.8393C9.03713 15.7591 8.99994 15.6847 8.94263 15.6274L8.025 14.7075L9.08438 13.6478L10.0042 14.5676C10.0616 14.625 10.136 14.6623 10.2164 14.6738C10.2967 14.6853 10.3786 14.6704 10.4497 14.6314C10.6228 14.5384 10.8043 14.4624 10.992 14.4045C11.0672 14.3798 11.1326 14.332 11.1789 14.2679C11.2253 14.2037 11.2502 14.1266 11.25 14.0475V12.75H12.75V14.0475C12.75 14.1268 12.7751 14.2042 12.8218 14.2683C12.8685 14.3325 12.9344 14.3801 13.0099 14.4045C13.1975 14.4624 13.3791 14.5384 13.5521 14.6314C13.6233 14.6704 13.7052 14.6853 13.7855 14.6738C13.8658 14.6623 13.9403 14.625 13.9976 14.5676L14.9175 13.6478L15.9769 14.7075L15.0574 15.6274C15.0001 15.6847 14.9629 15.7591 14.9514 15.8393C14.9399 15.9196 14.9547 16.0014 14.9936 16.0725C15.0863 16.2456 15.1623 16.4272 15.2205 16.6147C15.2448 16.6903 15.2925 16.7563 15.3566 16.803C15.4208 16.8498 15.4981 16.875 15.5775 16.875H16.875V18.375H15.5775C15.4981 18.375 15.4208 18.4002 15.3566 18.447C15.2925 18.4937 15.2448 18.5597 15.2205 18.6353C15.1623 18.8228 15.0863 19.0044 14.9936 19.1775C14.9547 19.2486 14.9399 19.3304 14.9514 19.4107C14.9629 19.4909 15.0001 19.5653 15.0574 19.6226L15.9769 20.5425L14.9175 21.6022ZM22.5 19.875C22.5 19.9745 22.4605 20.0698 22.3902 20.1402C22.3198 20.2105 22.2245 20.25 22.125 20.25H16.7452L15.7774 19.2817C15.7999 19.2311 15.8213 19.179 15.8426 19.125H17.25C17.3495 19.125 17.4448 19.0855 17.5152 19.0152C17.5855 18.9448 17.625 18.8495 17.625 18.75V16.5C17.625 16.4005 17.5855 16.3052 17.5152 16.2348C17.4448 16.1645 17.3495 16.125 17.25 16.125H15.8426C15.8213 16.071 15.7999 16.0189 15.7774 15.9679L16.7726 14.9726C16.8429 14.9023 16.8824 14.8069 16.8824 14.7075C16.8824 14.6081 16.8429 14.5127 16.7726 14.4424L15.1826 12.8524C15.1123 12.7821 15.0169 12.7426 14.9175 12.7426C14.8181 12.7426 14.7227 12.7821 14.6524 12.8524L13.6571 13.8476C13.6061 13.8255 13.554 13.8037 13.5 13.7824V12.375C13.5 12.2755 13.4605 12.1802 13.3902 12.1098C13.3198 12.0395 13.2245 12 13.125 12H10.875C10.7755 12 10.6802 12.0395 10.6098 12.1098C10.5395 12.1802 10.5 12.2755 10.5 12.375V13.7824C10.446 13.8037 10.3939 13.8255 10.3429 13.8476L9.34762 12.8524C9.27598 12.7846 9.18111 12.7469 9.0825 12.7469C8.98389 12.7469 8.88902 12.7846 8.81738 12.8524L7.22738 14.4424C7.15707 14.5127 7.11758 14.6081 7.11758 14.7075C7.11758 14.8069 7.15707 14.9023 7.22738 14.9726L8.22262 15.9679C8.20013 16.0189 8.17875 16.071 8.15738 16.125H6.75C6.65054 16.125 6.55516 16.1645 6.48483 16.2348C6.41451 16.3052 6.375 16.4005 6.375 16.5V18.75C6.375 18.8495 6.41451 18.9448 6.48483 19.0152C6.55516 19.0855 6.65054 19.125 6.75 19.125H8.15738C8.17875 19.179 8.20013 19.2311 8.22262 19.2817L7.25475 20.25H1.875C1.77554 20.25 1.68016 20.2105 1.60984 20.1402C1.53951 20.0698 1.5 19.9745 1.5 19.875V5.25H22.5V19.875ZM1.5 4.5V1.875C1.5 1.77554 1.53951 1.68016 1.60984 1.60984C1.68016 1.53951 1.77554 1.5 1.875 1.5H22.125C22.2245 1.5 22.3198 1.53951 22.3902 1.60984C22.4605 1.68016 22.5 1.77554 22.5 1.875V4.5H1.5Z" fill="#01B9EA"/>
<path d="M20.625 1.875H10.125C9.82663 1.875 9.54048 1.99353 9.3295 2.2045C9.11853 2.41548 9 2.70163 9 3C9 3.29837 9.11853 3.58452 9.3295 3.7955C9.54048 4.00647 9.82663 4.125 10.125 4.125H20.625C20.9234 4.125 21.2095 4.00647 21.4205 3.7955C21.6315 3.58452 21.75 3.29837 21.75 3C21.75 2.70163 21.6315 2.41548 21.4205 2.2045C21.2095 1.99353 20.9234 1.875 20.625 1.875ZM20.625 3.375H10.125C10.0255 3.375 9.93016 3.33549 9.85983 3.26516C9.78951 3.19484 9.75 3.09946 9.75 3C9.75 2.90054 9.78951 2.80516 9.85983 2.73484C9.93016 2.66451 10.0255 2.625 10.125 2.625H20.625C20.7245 2.625 20.8198 2.66451 20.8902 2.73484C20.9605 2.80516 21 2.90054 21 3C21 3.09946 20.9605 3.19484 20.8902 3.26516C20.8198 3.33549 20.7245 3.375 20.625 3.375Z" fill="#01B9EA"/>
<path d="M3 3.75C3.41421 3.75 3.75 3.41421 3.75 3C3.75 2.58579 3.41421 2.25 3 2.25C2.58579 2.25 2.25 2.58579 2.25 3C2.25 3.41421 2.58579 3.75 3 3.75Z" fill="#01B9EA"/>
<path d="M5.25 3.75C5.66421 3.75 6 3.41421 6 3C6 2.58579 5.66421 2.25 5.25 2.25C4.83579 2.25 4.5 2.58579 4.5 3C4.5 3.41421 4.83579 3.75 5.25 3.75Z" fill="#01B9EA"/>
<path d="M7.5 3.75C7.91421 3.75 8.25 3.41421 8.25 3C8.25 2.58579 7.91421 2.25 7.5 2.25C7.08579 2.25 6.75 2.58579 6.75 3C6.75 3.41421 7.08579 3.75 7.5 3.75Z" fill="#01B9EA"/>
<path d="M12 15.375C11.555 15.375 11.12 15.507 10.75 15.7542C10.38 16.0014 10.0916 16.3528 9.92127 16.764C9.75097 17.1751 9.70642 17.6275 9.79323 18.064C9.88005 18.5004 10.0943 18.9013 10.409 19.216C10.7237 19.5307 11.1246 19.7449 11.561 19.8318C11.9975 19.9186 12.4499 19.874 12.861 19.7037C13.2722 19.5334 13.6236 19.245 13.8708 18.875C14.118 18.505 14.25 18.07 14.25 17.625C14.2494 17.0284 14.0122 16.4565 13.5903 16.0347C13.1685 15.6128 12.5966 15.3756 12 15.375ZM12 19.125C11.7033 19.125 11.4133 19.037 11.1666 18.8722C10.92 18.7074 10.7277 18.4731 10.6142 18.199C10.5007 17.9249 10.4709 17.6233 10.5288 17.3324C10.5867 17.0414 10.7296 16.7741 10.9393 16.5643C11.1491 16.3546 11.4164 16.2117 11.7074 16.1538C11.9983 16.0959 12.2999 16.1256 12.574 16.2392C12.8481 16.3527 13.0824 16.545 13.2472 16.7916C13.412 17.0383 13.5 17.3283 13.5 17.625C13.5 18.0228 13.342 18.4044 13.0607 18.6857C12.7794 18.967 12.3978 19.125 12 19.125Z" fill="#01B9EA"/>
<path d="M5.25 10.8742H14.1112C14.3635 10.8745 14.613 10.9258 14.845 11.0248C15.077 11.1238 15.2866 11.2687 15.4613 11.4506C15.7976 11.8011 16.2141 12.0647 16.6749 12.2187C17.1356 12.3727 17.6269 12.4125 18.1065 12.3347C18.586 12.2568 19.0395 12.0637 19.4279 11.7719C19.8163 11.48 20.128 11.0983 20.3363 10.6593C20.3633 10.602 20.3754 10.5388 20.3714 10.4755C20.3674 10.4122 20.3474 10.351 20.3133 10.2976C20.2793 10.2441 20.2322 10.2002 20.1765 10.1699C20.1208 10.1396 20.0584 10.1238 19.995 10.1242H17.8241L17.325 9.38546L17.8271 8.62421H19.995C20.0582 8.62426 20.1204 8.60831 20.1759 8.57786C20.2313 8.54741 20.2781 8.50345 20.312 8.45005C20.3458 8.39665 20.3656 8.33556 20.3696 8.27245C20.3735 8.20934 20.3614 8.14626 20.3344 8.08908C20.1261 7.65016 19.8144 7.26837 19.426 6.97654C19.0376 6.68472 18.5841 6.49159 18.1046 6.41375C17.625 6.33592 17.1338 6.37571 16.673 6.52971C16.2122 6.68371 15.7958 6.9473 15.4594 7.29783C15.2849 7.47954 15.0756 7.62423 14.844 7.72325C14.6124 7.82228 14.3632 7.87362 14.1112 7.87421H5.25C4.85218 7.87421 4.47064 8.03224 4.18934 8.31355C3.90804 8.59485 3.75 8.97638 3.75 9.37421C3.75 9.77203 3.90804 10.1536 4.18934 10.4349C4.47064 10.7162 4.85218 10.8742 5.25 10.8742ZM5.25 8.62421H14.1112C14.4645 8.62353 14.814 8.55161 15.1388 8.41276C15.4636 8.2739 15.7571 8.07097 16.0016 7.81608C16.2165 7.59249 16.4751 7.41566 16.7615 7.29666C17.0478 7.17766 17.3556 7.11905 17.6656 7.12451C17.9756 7.12996 18.2812 7.19937 18.5632 7.32837C18.8451 7.45737 19.0974 7.6432 19.3043 7.87421H17.625C17.5629 7.87422 17.5018 7.88964 17.4472 7.91909C17.3925 7.94855 17.346 7.99111 17.3119 8.04296L16.5619 9.18183C16.5212 9.24364 16.4997 9.31611 16.5001 9.39011C16.5005 9.46412 16.5228 9.53635 16.5641 9.59771L17.3141 10.7092C17.3485 10.76 17.3948 10.8017 17.449 10.8304C17.5032 10.8592 17.5636 10.8742 17.625 10.8742H19.3043C19.0974 11.1052 18.8451 11.291 18.5632 11.42C18.2812 11.5491 17.9756 11.6185 17.6656 11.6239C17.3556 11.6294 17.0478 11.5708 16.7615 11.4518C16.4751 11.3328 16.2165 11.1559 16.0016 10.9323C15.7571 10.6775 15.4636 10.4745 15.1388 10.3357C14.814 10.1968 14.4645 10.1249 14.1112 10.1242H5.25C5.05109 10.1242 4.86032 10.0452 4.71967 9.90454C4.57902 9.76389 4.5 9.57312 4.5 9.37421C4.5 9.1753 4.57902 8.98453 4.71967 8.84388C4.86032 8.70323 5.05109 8.62421 5.25 8.62421Z" fill="#01B9EA"/>
<path d="M5.625 9.75H6C6.09946 9.75 6.19484 9.71049 6.26517 9.64017C6.33549 9.56984 6.375 9.47446 6.375 9.375C6.375 9.27554 6.33549 9.18016 6.26517 9.10983C6.19484 9.03951 6.09946 9 6 9H5.625C5.52554 9 5.43016 9.03951 5.35984 9.10983C5.28951 9.18016 5.25 9.27554 5.25 9.375C5.25 9.47446 5.28951 9.56984 5.35984 9.64017C5.43016 9.71049 5.52554 9.75 5.625 9.75Z" fill="#01B9EA"/>
<path d="M7.125 9.75H12.375C12.4745 9.75 12.5698 9.71049 12.6402 9.64017C12.7105 9.56984 12.75 9.47446 12.75 9.375C12.75 9.27554 12.7105 9.18016 12.6402 9.10983C12.5698 9.03951 12.4745 9 12.375 9H7.125C7.02554 9 6.93016 9.03951 6.85983 9.10983C6.78951 9.18016 6.75 9.27554 6.75 9.375C6.75 9.47446 6.78951 9.56984 6.85983 9.64017C6.93016 9.71049 7.02554 9.75 7.125 9.75Z" fill="#01B9EA"/>
<path d="M13.5 9.75H13.875C13.9745 9.75 14.0698 9.71049 14.1402 9.64017C14.2105 9.56984 14.25 9.47446 14.25 9.375C14.25 9.27554 14.2105 9.18016 14.1402 9.10983C14.0698 9.03951 13.9745 9 13.875 9H13.5C13.4005 9 13.3052 9.03951 13.2348 9.10983C13.1645 9.18016 13.125 9.27554 13.125 9.375C13.125 9.47446 13.1645 9.56984 13.2348 9.64017C13.3052 9.71049 13.4005 9.75 13.5 9.75Z" fill="#01B9EA"/>
</g>
<defs>
<clipPath id="clip0_1930_3953">
<rect width="24" height="24" fill="white"/>
</clipPath>
</defs>
</svg>
