<svg width="24" height="24" viewBox="0 0 24 24" fill="none" xmlns="http://www.w3.org/2000/svg">
<g clip-path="url(#clip0_1930_4167)">
<path d="M9.01172 20.4844C8.43014 20.4844 7.95703 20.9575 7.95703 21.5391C7.95703 22.1206 8.43019 22.5938 9.01172 22.5938C9.59325 22.5938 10.0664 22.1206 10.0664 21.5391C10.0664 20.9575 9.5933 20.4844 9.01172 20.4844ZM9.01172 21.8906C8.81784 21.8906 8.66016 21.7329 8.66016 21.5391C8.66016 21.3452 8.81789 21.1875 9.01172 21.1875C9.20555 21.1875 9.36328 21.3452 9.36328 21.5391C9.36328 21.7329 9.20559 21.8906 9.01172 21.8906Z" fill="#01B9EA"/>
<path d="M8.66016 23.2969H9.36328V24H8.66016V23.2969Z" fill="#01B9EA"/>
<path d="M5.14453 12.4805H7.95703V13.1836H5.14453V12.4805Z" fill="#01B9EA"/>
<path d="M5.14453 10.7227H7.95703V11.4258H5.14453V10.7227Z" fill="#01B9EA"/>
<path d="M5.14453 8.96484H7.95703V9.66797H5.14453V8.96484Z" fill="#01B9EA"/>
<path d="M5.14453 7.20703H7.95703V7.91016H5.14453V7.20703Z" fill="#01B9EA"/>
<path d="M15.3398 7.03125C14.6296 7.03125 13.9585 7.26127 13.399 7.69645L13.8307 8.25145C14.2656 7.91316 14.7875 7.73438 15.3398 7.73438C16.6968 7.73438 17.8008 8.83837 17.8008 10.1953C17.8008 11.5522 16.6968 12.6562 15.3398 12.6562C13.9829 12.6562 12.8789 11.5522 12.8789 10.1953C12.8789 9.64289 13.0577 9.12098 13.396 8.68608L12.841 8.25441C12.4058 8.81395 12.1758 9.48506 12.1758 10.1953C12.1758 11.94 13.5952 13.3593 15.3398 13.3593C17.0845 13.3593 18.5039 11.94 18.5039 10.1953C18.5039 8.45062 17.0845 7.03125 15.3398 7.03125Z" fill="#01B9EA"/>
<path d="M21.668 11.4663V8.92425H20.5981C20.4665 8.37628 20.2515 7.85761 19.9564 7.37625L20.7133 6.61941L18.9158 4.82194L18.1589 5.57878C17.6774 5.28366 17.1587 5.06864 16.611 4.93711V3.86714H15.6914V1.75781C15.6914 0.788531 14.9029 0 13.9336 0H4.08984C3.12061 0 2.33203 0.788531 2.33203 1.75781V22.2422C2.33203 23.2115 3.12056 24 4.08984 24H7.95703V23.2969H4.08984C3.50831 23.2969 3.03516 22.8237 3.03516 22.2422V19.7813H14.9883V22.2422C14.9883 22.8237 14.5152 23.2969 13.9336 23.2969H10.0664V24H13.9336C14.9029 24 15.6914 23.2115 15.6914 22.2422V16.5234H16.6109V15.4535C17.159 15.3219 17.6776 15.1069 18.1589 14.8119L18.9158 15.5687L20.7133 13.7712L19.9564 13.0144C20.2515 12.5329 20.4665 12.0142 20.5981 11.4664H21.668V11.4663ZM10.9038 0.703125L10.5523 1.40625H7.47117L7.11961 0.703125H10.9038ZM14.9883 19.0782H3.03516V1.75781C3.03516 1.17628 3.50827 0.703125 4.08984 0.703125H6.33356L7.03664 2.10938H10.9868L11.6899 0.703125H13.9336C14.5152 0.703125 14.9883 1.17628 14.9883 1.75781V3.86714H14.0689V4.93711C13.5208 5.06873 13.0022 5.2837 12.5209 5.57873L11.764 4.82189L9.96652 6.61941L10.7234 7.37625C10.4282 7.85775 10.2132 8.37642 10.0817 8.9242H9.01172V11.4663H10.0816C10.2133 12.0143 10.4283 12.533 10.7233 13.0142L9.96647 13.7711L11.764 15.5686L12.5209 14.8117C13.0024 15.1069 13.521 15.3219 14.0689 15.4535V16.5234H14.9883V19.0782H14.9883ZM19.9675 11.0512C19.8476 11.7042 19.595 12.3135 19.2169 12.862L19.0507 13.1031L19.7189 13.7712L18.9157 14.5744L18.2476 13.9063L18.0065 14.0725C17.4583 14.4504 16.8491 14.7029 16.1957 14.823L15.9077 14.876V15.8203H14.7719V14.8759L14.4839 14.823C13.831 14.703 13.2218 14.4505 12.6731 14.0723L12.432 13.9062L11.7639 14.5743L10.9607 13.7712L11.6288 13.103L11.4627 12.8619C11.0848 12.3137 10.8322 11.7045 10.7121 11.0512L10.6591 10.7632H9.71484V9.62733H10.6593L10.7122 9.33928C10.8322 8.68636 11.0847 8.07717 11.4628 7.5285L11.6289 7.28742L10.9608 6.61931L11.7639 5.81616L12.4321 6.48431L12.6732 6.31809C13.2214 5.94014 13.8307 5.68762 14.4839 5.56758L14.772 5.51461V4.57027H15.9078V5.51475L16.1958 5.56767C16.8487 5.68762 17.4579 5.94009 18.0066 6.31823L18.2476 6.48436L18.9158 5.81625L19.7189 6.61936L19.0507 7.28747L19.2169 7.52859C19.5949 8.07694 19.8475 8.68617 19.9675 9.33938L20.0205 9.62742H20.9648V10.7633H20.0205L19.9675 11.0512Z" fill="#01B9EA"/>
<path d="M16.2933 10.0566H16.9965V10.7598H16.2933V10.0566Z" fill="#01B9EA"/>
<path d="M15.5902 8.65039H16.2933V9.35352H15.5902V8.65039Z" fill="#01B9EA"/>
</g>
<defs>
<clipPath id="clip0_1930_4167">
<rect width="24" height="24" fill="white"/>
</clipPath>
</defs>
</svg>
