<svg width="24" height="24" viewBox="0 0 24 24" fill="none" xmlns="http://www.w3.org/2000/svg">
<g clip-path="url(#clip0_1930_4638)">
<path d="M14.25 14.75H11.75C11.336 14.75 11 14.414 11 14C11 13.586 11.336 13.25 11.75 13.25H14.25C14.664 13.25 15 13.586 15 14C15 14.414 14.664 14.75 14.25 14.75Z" fill="#01B9EA"/>
<path d="M14.25 17H12.75C11.785 17 11 16.215 11 15.25V12.75C11 11.785 11.785 11 12.75 11H14.25C14.664 11 15 11.336 15 11.75C15 12.164 14.664 12.5 14.25 12.5H12.75C12.612 12.5 12.5 12.612 12.5 12.75V15.25C12.5 15.388 12.612 15.5 12.75 15.5H14.25C14.664 15.5 15 15.836 15 16.25C15 16.664 14.664 17 14.25 17Z" fill="#01B9EA"/>
<path d="M9.25 17.0006C8.982 17.0006 8.729 16.8566 8.594 16.6146L7.5 14.6456V16.2506C7.5 16.6646 7.164 17.0006 6.75 17.0006C6.336 17.0006 6 16.6646 6 16.2506V11.7506C6 11.4086 6.231 11.1096 6.562 11.0246C6.892 10.9376 7.24 11.0866 7.406 11.3856L8.5 13.3556V11.7506C8.5 11.3366 8.836 11.0006 9.25 11.0006C9.664 11.0006 10 11.3366 10 11.7506V16.2506C10 16.5926 9.769 16.8916 9.438 16.9766C9.375 16.9926 9.312 17.0006 9.25 17.0006Z" fill="#01B9EA"/>
<path d="M18.5 17C18.086 17 17.75 16.664 17.75 16.25V11.75C17.75 11.336 18.086 11 18.5 11C18.914 11 19.25 11.336 19.25 11.75V16.25C19.25 16.664 18.914 17 18.5 17Z" fill="#01B9EA"/>
<path d="M20.25 12.5H16.75C16.336 12.5 16 12.164 16 11.75C16 11.336 16.336 11 16.75 11H20.25C20.664 11 21 11.336 21 11.75C21 12.164 20.664 12.5 20.25 12.5Z" fill="#01B9EA"/>
<path d="M21.25 23H2.75C1.233 23 0 21.767 0 20.25V3.75C0 2.233 1.233 1 2.75 1H21.25C22.767 1 24 2.233 24 3.75V20.25C24 21.767 22.767 23 21.25 23ZM2.75 2.5C2.061 2.5 1.5 3.061 1.5 3.75V20.25C1.5 20.939 2.061 21.5 2.75 21.5H21.25C21.939 21.5 22.5 20.939 22.5 20.25V3.75C22.5 3.061 21.939 2.5 21.25 2.5H2.75Z" fill="#01B9EA"/>
<path d="M23.25 6H0.75C0.336 6 0 5.664 0 5.25C0 4.836 0.336 4.5 0.75 4.5H23.25C23.664 4.5 24 4.836 24 5.25C24 5.664 23.664 6 23.25 6Z" fill="#01B9EA"/>
<path d="M3.75 17C4.16421 17 4.5 16.6642 4.5 16.25C4.5 15.8358 4.16421 15.5 3.75 15.5C3.33579 15.5 3 15.8358 3 16.25C3 16.6642 3.33579 17 3.75 17Z" fill="#01B9EA"/>
</g>
<defs>
<clipPath id="clip0_1930_4638">
<rect width="24" height="24" fill="white"/>
</clipPath>
</defs>
</svg>
